{
.appVersion = "895";
classes = (
{
automatic = 1;
code = "A Aacute Abreve Abreveacute Abrevedotbelow Abrevegrave Abrevehookabove Abrevetilde Acircumflex Acircumflexacute Acircumflexdotbelow Acircumflexgrave Acircumflexhookabove Acircumflextilde Adblgrave Adieresis Adotbelow Agrave Ahookabove Ainvertedbreve Amacron Aogonek Aring Aringacute Atilde AE AEacute B C Cacute Ccaron Ccedilla Ccircumflex Cdotaccent D DZ DZcaron Eth Dcaron Dcroat Dz Dzcaron E Eacute Ebreve Ecaron Ecircumflex Ecircumflexacute Ecircumflexdotbelow Ecircumflexgrave Ecircumflexhookabove Ecircumflextilde Edblgrave Edieresis Edotaccent Edotbelow Egrave Ehookabove Einvertedbreve Emacron Eogonek Etilde F G Gbreve Gcaron Gcircumflex Gcommaaccent Gdotaccent H Hbar Hcircumflex I Iacute Ibreve Icircumflex Idblgrave Idieresis Idotaccent Idotbelow Igrave Ihookabove Iinvertedbreve Imacron Iogonek Itilde J Jcircumflex K Kcommaaccent L LJ Lacute Lcaron Lcommaaccent Ldot Lj Lslash M N NJ Nacute Ncaron Ncommaaccent Eng Nj Ntilde O Oacute Obreve Ocircumflex Ocircumflexacute Ocircumflexdotbelow Ocircumflexgrave Ocircumflexhookabove Ocircumflextilde Odblgrave Odieresis Odieresismacron Odotaccentmacron Odotbelow Ograve Ohookabove Ohorn Ohornacute Ohorndotbelow Ohorngrave Ohornhookabove Ohorntilde Ohungarumlaut Oinvertedbreve Omacron Oogonek Oslash Oslashacute Otilde Otildemacron OE P Thorn Q R Racute Rcaron Rcommaaccent Rdblgrave Rinvertedbreve S Sacute Scaron Scedilla Scircumflex Scommaaccent Germandbls Schwa T Tbar Tcaron Tcedilla Tcommaaccent U Uacute Ubreve Ucircumflex Udblgrave Udieresis Udotbelow Ugrave Uhookabove Uhorn Uhornacute Uhorndotbelow Uhorngrave Uhornhookabove Uhorntilde Uhungarumlaut Uinvertedbreve Umacron Uogonek Uring Utilde V W Wacute Wcircumflex Wdieresis Wgrave X Y Yacute Ycircumflex Ydieresis Ydotbelow Ygrave Yhookabove Ymacron Ytilde Z Zacute Zcaron Zdotaccent Iacute_J.loclNLD";
name = Uppercase;
}
);

glyphs = (
{
color = 4;
glyphname = A;
lastChange = "2016-07-31 01:33:47 +0000";
layers = (
{
anchors = (
{
name = bottom;
position = "{323, 0}";
},
{
name = ogonek;
position = "{560, 0}";
},
{
name = top;
position = "{324, 665}";
}
);
layerId = "67BB2AE4-562A-42A4-A220-84C7D1DB401D";
paths = (
{
closed = 1;
nodes = (
"108 23 CURVE",
"321 551 LINE",
"541 23 LINE SMOOTH",
"550 1 OFFCURVE",
"566 -5 OFFCURVE",
"588 4 CURVE SMOOTH",
"609 13 OFFCURVE",
"616 29 OFFCURVE",
"607 51 CURVE SMOOTH",
"364 637 LINE SMOOTH",
"356 656 OFFCURVE",
"344 665 OFFCURVE",
"325 665 CURVE",
"323 665 LINE",
"303 665 OFFCURVE",
"290 656 OFFCURVE",
"282 637 CURVE SMOOTH",
"41 51 LINE SMOOTH",
"32 29 OFFCURVE",
"39 12 OFFCURVE",
"61 4 CURVE SMOOTH",
"82 -5 OFFCURVE",
"99 2 OFFCURVE"
);
},
{
closed = 1;
nodes = (
"495 164 LINE SMOOTH",
"518 164 OFFCURVE",
"531 177 OFFCURVE",
"531 200 CURVE SMOOTH",
"531 223 OFFCURVE",
"518 236 OFFCURVE",
"495 236 CURVE SMOOTH",
"150 236 LINE SMOOTH",
"127 236 OFFCURVE",
"114 223 OFFCURVE",
"114 200 CURVE SMOOTH",
"114 177 OFFCURVE",
"127 164 OFFCURVE",
"150 164 CURVE SMOOTH"
);
}
);
width = 646;
}
);
leftKerningGroup = A;
rightKerningGroup = A;
unicode = 0041;
},
{
color = 4;
glyphname = AE;
layers = (
{
anchors = (
{
name = bottom;
position = "{528, 0}";
},
{
name = top;
position = "{529, 665}";
}
);
layerId = "67BB2AE4-562A-42A4-A220-84C7D1DB401D";
paths = (
{
closed = 1;
nodes = (
"762 0 LINE SMOOTH",
"785 0 OFFCURVE",
"798 13 OFFCURVE",
"798 36 CURVE SMOOTH",
"798 59 OFFCURVE",
"785 72 OFFCURVE",
"762 72 CURVE SMOOTH",
"493 72 LINE",
"493 300 LINE",
"644 300 LINE SMOOTH",
"667 300 OFFCURVE",
"680 313 OFFCURVE",
"680 336 CURVE SMOOTH",
"680 359 OFFCURVE",
"667 372 OFFCURVE",
"644 372 CURVE SMOOTH",
"493 372 LINE",
"493 593 LINE",
"762 593 LINE SMOOTH",
"785 593 OFFCURVE",
"798 606 OFFCURVE",
"798 629 CURVE SMOOTH",
"798 652 OFFCURVE",
"785 665 OFFCURVE",
"762 665 CURVE SMOOTH",
"418 665 LINE SMOOTH",
"398 665 OFFCURVE",
"385 657 OFFCURVE",
"375 640 CURVE SMOOTH",
"43 55 LINE SMOOTH",
"32 35 OFFCURVE",
"37 18 OFFCURVE",
"57 6 CURVE SMOOTH",
"77 -6 OFFCURVE",
"94 -1 OFFCURVE",
"106 20 CURVE SMOOTH",
"188 164 LINE",
"421 164 LINE",
"421 36 LINE SMOOTH",
"421 13 OFFCURVE",
"433 0 OFFCURVE",
"457 0 CURVE SMOOTH"
);
},
{
closed = 1;
nodes = (
"417 575 LINE",
"421 575 LINE",
"421 236 LINE",
"229 236 LINE"
);
}
);
width = 848;
}
);
leftKerningGroup = A;
leftMetricsKey = A;
rightKerningGroup = E;
rightMetricsKey = E;
unicode = 00C6;
},
{
color = 4;
glyphname = B;
lastChange = "2016-07-31 01:33:47 +0000";
layers = (
{
anchors = (
{
name = bottom;
position = "{329, 0}";
},
{
name = top;
position = "{327, 665}";
}
);
layerId = "67BB2AE4-562A-42A4-A220-84C7D1DB401D";
paths = (
{
closed = 1;
nodes = (
"410 0 LINE SMOOTH",
"529 0 OFFCURVE",
"593 63 OFFCURVE",
"593 182 CURVE SMOOTH",
"593 215 LINE SMOOTH",
"593 333 OFFCURVE",
"530 396 OFFCURVE",
"410 396 CURVE SMOOTH",
"172 396 LINE SMOOTH",
"149 396 OFFCURVE",
"136 383 OFFCURVE",
"136 360 CURVE SMOOTH",
"136 337 OFFCURVE",
"149 324 OFFCURVE",
"172 324 CURVE SMOOTH",
"410 324 LINE SMOOTH",
"490 324 OFFCURVE",
"521 293 OFFCURVE",
"521 215 CURVE SMOOTH",
"521 182 LINE SMOOTH",
"521 104 OFFCURVE",
"489 72 OFFCURVE",
"410 72 CURVE SMOOTH",
"172 72 LINE",
"172 593 LINE",
"397 593 LINE SMOOTH",
"460 593 OFFCURVE",
"484 570 OFFCURVE",
"484 509 CURVE SMOOTH",
"484 482 LINE SMOOTH",
"484 431 OFFCURVE",
"465 396 OFFCURVE",
"418 396 CURVE SMOOTH",
"404 396 OFFCURVE",
"397 382 OFFCURVE",
"397 362 CURVE SMOOTH",
"397 351 OFFCURVE",
"411 345 OFFCURVE",
"435 347 CURVE SMOOTH",
"513 354 OFFCURVE",
"556 405 OFFCURVE",
"556 482 CURVE SMOOTH",
"556 509 LINE SMOOTH",
"556 610 OFFCURVE",
"500 665 OFFCURVE",
"397 665 CURVE SMOOTH",
"136 665 LINE SMOOTH",
"113 665 OFFCURVE",
"100 652 OFFCURVE",
"100 629 CURVE SMOOTH",
"100 36 LINE SMOOTH",
"100 13 OFFCURVE",
"113 0 OFFCURVE",
"136 0 CURVE SMOOTH"
);
}
);
width = 653;
}
);
leftKerningGroup = H;
leftMetricsKey = H;
rightKerningGroup = B;
unicode = 0042;
},
{
color = 4;
glyphname = C;
layers = (
{
anchors = (
{
name = bottom;
position = "{358, 0}";
},
{
name = top;
position = "{361, 665}";
}
);
layerId = "67BB2AE4-562A-42A4-A220-84C7D1DB401D";
paths = (
{
closed = 1;
nodes = (
"418 0 LINE SMOOTH",
"542 0 OFFCURVE",
"604 49 OFFCURVE",
"614 161 CURVE SMOOTH",
"617 185 OFFCURVE",
"603 198 OFFCURVE",
"579 198 CURVE SMOOTH",
"556 198 OFFCURVE",
"545 186 OFFCURVE",
"542 162 CURVE SMOOTH",
"535 93 OFFCURVE",
"502 72 OFFCURVE",
"418 72 CURVE SMOOTH",
"298 72 LINE SMOOTH",
"188 72 OFFCURVE",
"152 108 OFFCURVE",
"152 218 CURVE SMOOTH",
"152 447 LINE SMOOTH",
"152 558 OFFCURVE",
"188 594 OFFCURVE",
"297 593 CURVE SMOOTH",
"418 593 LINE SMOOTH",
"502 593 OFFCURVE",
"535 572 OFFCURVE",
"542 503 CURVE SMOOTH",
"545 479 OFFCURVE",
"556 467 OFFCURVE",
"579 467 CURVE SMOOTH",
"603 467 OFFCURVE",
"617 480 OFFCURVE",
"614 504 CURVE SMOOTH",
"604 616 OFFCURVE",
"542 665 OFFCURVE",
"418 665 CURVE SMOOTH",
"297 665 LINE SMOOTH",
"148 666 OFFCURVE",
"80 598 OFFCURVE",
"80 447 CURVE SMOOTH",
"80 218 LINE SMOOTH",
"80 68 OFFCURVE",
"148 0 OFFCURVE",
"298 0 CURVE SMOOTH"
);
}
);
width = 684;
}
);
leftKerningGroup = O;
leftMetricsKey = O;
rightKerningGroup = C;
unicode = 0043;
},
{
color = 4;
glyphname = D;
lastChange = "2016-07-31 01:33:47 +0000";
layers = (
{
anchors = (
{
name = bottom;
position = "{337, 0}";
},
{
name = center;
position = "{180, 333}";
},
{
name = top;
position = "{337, 665}";
}
);
layerId = "67BB2AE4-562A-42A4-A220-84C7D1DB401D";
paths = (
{
closed = 1;
nodes = (
"377 0 LINE SMOOTH",
"548 0 OFFCURVE",
"625 77 OFFCURVE",
"625 248 CURVE SMOOTH",
"625 417 LINE SMOOTH",
"625 588 OFFCURVE",
"548 665 OFFCURVE",
"377 665 CURVE SMOOTH",
"136 665 LINE SMOOTH",
"113 665 OFFCURVE",
"100 652 OFFCURVE",
"100 629 CURVE SMOOTH",
"100 36 LINE SMOOTH",
"100 13 OFFCURVE",
"113 0 OFFCURVE",
"136 0 CURVE SMOOTH"
);
},
{
closed = 1;
nodes = (
"172 593 LINE",
"377 593 LINE SMOOTH",
"508 593 OFFCURVE",
"553 548 OFFCURVE",
"553 417 CURVE SMOOTH",
"553 248 LINE SMOOTH",
"553 117 OFFCURVE",
"508 72 OFFCURVE",
"377 72 CURVE SMOOTH",
"172 72 LINE"
);
}
);
width = 705;
}
);
leftKerningGroup = H;
leftMetricsKey = H;
rightKerningGroup = O;
rightMetricsKey = O;
unicode = 0044;
},
{
color = 4;
glyphname = E;
layers = (
{
anchors = (
{
name = bottom;
position = "{334, 0}";
},
{
name = ogonek;
position = "{501, 29}";
},
{
name = top;
position = "{334, 665}";
},
{
name = topleft;
position = "{104, 665}";
}
);
layerId = "67BB2AE4-562A-42A4-A220-84C7D1DB401D";
paths = (
{
closed = 1;
nodes = (
"501 0 LINE SMOOTH",
"524 0 OFFCURVE",
"537 13 OFFCURVE",
"537 36 CURVE SMOOTH",
"537 59 OFFCURVE",
"524 72 OFFCURVE",
"501 72 CURVE SMOOTH",
"172 72 LINE",
"172 593 LINE",
"501 593 LINE SMOOTH",
"524 593 OFFCURVE",
"537 606 OFFCURVE",
"537 629 CURVE SMOOTH",
"537 652 OFFCURVE",
"524 665 OFFCURVE",
"501 665 CURVE SMOOTH",
"136 665 LINE SMOOTH",
"113 665 OFFCURVE",
"100 652 OFFCURVE",
"100 629 CURVE SMOOTH",
"100 36 LINE SMOOTH",
"100 13 OFFCURVE",
"113 0 OFFCURVE",
"136 0 CURVE SMOOTH"
);
},
{
closed = 1;
nodes = (
"383 300 LINE SMOOTH",
"406 300 OFFCURVE",
"419 313 OFFCURVE",
"419 336 CURVE SMOOTH",
"419 359 OFFCURVE",
"406 372 OFFCURVE",
"383 372 CURVE SMOOTH",
"172 372 LINE SMOOTH",
"149 372 OFFCURVE",
"136 359 OFFCURVE",
"136 336 CURVE SMOOTH",
"136 313 OFFCURVE",
"149 300 OFFCURVE",
"172 300 CURVE SMOOTH"
);
}
);
width = 587;
}
);
leftKerningGroup = H;
leftMetricsKey = H;
rightKerningGroup = E;
unicode = 0045;
},
{
color = 4;
glyphname = F;
layers = (
{
anchors = (
{
name = bottom;
position = "{326, 0}";
},
{
name = top;
position = "{326, 665}";
}
);
layerId = "67BB2AE4-562A-42A4-A220-84C7D1DB401D";
paths = (
{
closed = 1;
nodes = (
"172 36 CURVE SMOOTH",
"172 300 LINE",
"383 300 LINE SMOOTH",
"406 300 OFFCURVE",
"419 313 OFFCURVE",
"419 336 CURVE SMOOTH",
"419 359 OFFCURVE",
"406 372 OFFCURVE",
"383 372 CURVE SMOOTH",
"172 372 LINE",
"172 593 LINE",
"501 593 LINE SMOOTH",
"524 593 OFFCURVE",
"537 606 OFFCURVE",
"537 629 CURVE SMOOTH",
"537 652 OFFCURVE",
"524 665 OFFCURVE",
"501 665 CURVE SMOOTH",
"136 665 LINE SMOOTH",
"113 665 OFFCURVE",
"100 652 OFFCURVE",
"100 629 CURVE SMOOTH",
"100 36 LINE SMOOTH",
"100 13 OFFCURVE",
"113 0 OFFCURVE",
"136 0 CURVE SMOOTH",
"159 0 OFFCURVE",
"172 13 OFFCURVE"
);
}
);
width = 537;
}
);
leftKerningGroup = H;
leftMetricsKey = H;
rightKerningGroup = F;
unicode = 0046;
},
{
color = 4;
glyphname = G;
layers = (
{
anchors = (
{
name = bottom;
position = "{361, 0}";
},
{
name = top;
position = "{356, 665}";
}
);
layerId = "67BB2AE4-562A-42A4-A220-84C7D1DB401D";
paths = (
{
closed = 1;
nodes = (
"418 0 LINE SMOOTH",
"555 0 OFFCURVE",
"616 60 OFFCURVE",
"616 198 CURVE SMOOTH",
"616 287 LINE SMOOTH",
"616 310 OFFCURVE",
"603 323 OFFCURVE",
"580 323 CURVE SMOOTH",
"454 324 LINE SMOOTH",
"431 324 OFFCURVE",
"418 311 OFFCURVE",
"418 288 CURVE SMOOTH",
"418 265 OFFCURVE",
"430 252 OFFCURVE",
"454 252 CURVE SMOOTH",
"544 251 LINE",
"544 198 LINE SMOOTH",
"544 100 OFFCURVE",
"515 72 OFFCURVE",
"418 72 CURVE SMOOTH",
"298 72 LINE SMOOTH",
"188 72 OFFCURVE",
"152 108 OFFCURVE",
"152 218 CURVE SMOOTH",
"152 447 LINE SMOOTH",
"152 558 OFFCURVE",
"188 594 OFFCURVE",
"297 593 CURVE SMOOTH",
"418 593 LINE SMOOTH",
"502 593 OFFCURVE",
"535 572 OFFCURVE",
"542 503 CURVE SMOOTH",
"545 479 OFFCURVE",
"556 467 OFFCURVE",
"579 467 CURVE SMOOTH",
"603 467 OFFCURVE",
"617 480 OFFCURVE",
"614 504 CURVE SMOOTH",
"604 616 OFFCURVE",
"542 665 OFFCURVE",
"418 665 CURVE SMOOTH",
"297 665 LINE SMOOTH",
"148 666 OFFCURVE",
"80 598 OFFCURVE",
"80 447 CURVE SMOOTH",
"80 218 LINE SMOOTH",
"80 68 OFFCURVE",
"148 0 OFFCURVE",
"298 0 CURVE SMOOTH"
);
}
);
width = 686;
}
);
leftKerningGroup = O;
leftMetricsKey = O;
rightKerningGroup = C;
rightMetricsKey = C;
unicode = 0047;
},
{
color = 4;
glyphname = H;
lastChange = "2016-07-31 01:33:47 +0000";
layers = (
{
anchors = (
{
name = bottom;
position = "{378, 0}";
},
{
name = center;
position = "{378, 498}";
},
{
name = top;
position = "{378, 665}";
},
{
name = topleft;
position = "{100, 665}";
}
);
layerId = "67BB2AE4-562A-42A4-A220-84C7D1DB401D";
paths = (
{
closed = 1;
nodes = (
"172 36 CURVE SMOOTH",
"172 301 LINE",
"584 301 LINE",
"584 36 LINE SMOOTH",
"584 16 OFFCURVE",
"600 0 OFFCURVE",
"620 0 CURVE SMOOTH",
"640 0 OFFCURVE",
"656 16 OFFCURVE",
"656 36 CURVE SMOOTH",
"656 629 LINE SMOOTH",
"656 649 OFFCURVE",
"640 665 OFFCURVE",
"620 665 CURVE SMOOTH",
"600 665 OFFCURVE",
"584 649 OFFCURVE",
"584 629 CURVE SMOOTH",
"584 373 LINE",
"172 373 LINE",
"172 629 LINE SMOOTH",
"172 649 OFFCURVE",
"156 665 OFFCURVE",
"136 665 CURVE SMOOTH",
"116 665 OFFCURVE",
"100 649 OFFCURVE",
"100 629 CURVE SMOOTH",
"100 36 LINE SMOOTH",
"100 16 OFFCURVE",
"116 0 OFFCURVE",
"136 0 CURVE SMOOTH",
"156 0 OFFCURVE",
"172 16 OFFCURVE"
);
}
);
width = 756;
}
);
leftKerningGroup = H;
rightKerningGroup = H;
unicode = 0048;
},
{
color = 4;
glyphname = I;
layers = (
{
anchors = (
{
name = bottom;
position = "{136, 0}";
},
{
name = ogonek;
position = "{116, 5}";
},
{
name = top;
position = "{136, 665}";
},
{
name = topleft;
position = "{100, 665}";
}
);
layerId = "67BB2AE4-562A-42A4-A220-84C7D1DB401D";
paths = (
{
closed = 1;
nodes = (
"172 36 CURVE SMOOTH",
"172 629 LINE SMOOTH",
"172 653 OFFCURVE",
"160 665 OFFCURVE",
"136 665 CURVE SMOOTH",
"112 665 OFFCURVE",
"100 653 OFFCURVE",
"100 629 CURVE SMOOTH",
"100 36 LINE SMOOTH",
"100 12 OFFCURVE",
"112 0 OFFCURVE",
"136 0 CURVE SMOOTH",
"160 0 OFFCURVE",
"172 12 OFFCURVE"
);
}
);
width = 272;
}
);
leftKerningGroup = H;
leftMetricsKey = H;
rightKerningGroup = H;
rightMetricsKey = H;
unicode = 0049;
},
{
color = 4;
glyphname = J;
lastChange = "2016-07-31 01:33:47 +0000";
layers = (
{
anchors = (
{
name = bottom;
position = "{265, 0}";
},
{
name = top;
position = "{456, 665}";
}
);
layerId = "67BB2AE4-562A-42A4-A220-84C7D1DB401D";
paths = (
{
closed = 1;
nodes = (
"294 0 LINE SMOOTH",
"431 0 OFFCURVE",
"492 60 OFFCURVE",
"492 198 CURVE SMOOTH",
"492 629 LINE SMOOTH",
"492 652 OFFCURVE",
"479 665 OFFCURVE",
"456 665 CURVE SMOOTH",
"432 665 OFFCURVE",
"420 652 OFFCURVE",
"420 629 CURVE SMOOTH",
"420 198 LINE SMOOTH",
"420 100 OFFCURVE",
"391 72 OFFCURVE",
"294 72 CURVE SMOOTH",
"227 72 LINE SMOOTH",
"143 72 OFFCURVE",
"110 93 OFFCURVE",
"102 162 CURVE SMOOTH",
"100 186 OFFCURVE",
"88 198 OFFCURVE",
"65 198 CURVE SMOOTH",
"42 198 OFFCURVE",
"28 185 OFFCURVE",
"30 161 CURVE SMOOTH",
"41 49 OFFCURVE",
"102 0 OFFCURVE",
"227 0 CURVE SMOOTH"
);
}
);
width = 582;
}
);
leftKerningGroup = J;
rightKerningGroup = U;
rightMetricsKey = U;
unicode = 004A;
},
{
color = 4;
glyphname = K;
lastChange = "2016-07-31 01:33:47 +0000";
layers = (
{
anchors = (
{
name = bottom;
position = "{287, 0}";
},
{
name = top;
position = "{287, 665}";
}
);
layerId = "67BB2AE4-562A-42A4-A220-84C7D1DB401D";
paths = (
{
closed = 1;
nodes = (
"166 263 CURVE SMOOTH",
"494 602 LINE SMOOTH",
"510 618 OFFCURVE",
"510 636 OFFCURVE",
"494 653 CURVE SMOOTH",
"477 669 OFFCURVE",
"459 669 OFFCURVE",
"443 652 CURVE SMOOTH",
"115 314 LINE SMOOTH",
"98 297 OFFCURVE",
"99 279 OFFCURVE",
"115 263 CURVE SMOOTH",
"132 246 OFFCURVE",
"150 247 OFFCURVE"
);
},
{
closed = 1;
nodes = (
"172 36 CURVE SMOOTH",
"172 629 LINE SMOOTH",
"172 652 OFFCURVE",
"159 665 OFFCURVE",
"136 665 CURVE SMOOTH",
"113 665 OFFCURVE",
"100 652 OFFCURVE",
"100 629 CURVE SMOOTH",
"100 36 LINE SMOOTH",
"100 13 OFFCURVE",
"113 0 OFFCURVE",
"136 0 CURVE SMOOTH",
"159 0 OFFCURVE",
"172 13 OFFCURVE"
);
},
{
closed = 1;
nodes = (
"533 61 CURVE SMOOTH",
"273 384 LINE SMOOTH",
"258 402 OFFCURVE",
"241 404 OFFCURVE",
"222 389 CURVE SMOOTH",
"204 374 OFFCURVE",
"202 357 OFFCURVE",
"217 338 CURVE SMOOTH",
"477 16 LINE SMOOTH",
"492 -3 OFFCURVE",
"510 -5 OFFCURVE",
"528 10 CURVE SMOOTH",
"546 25 OFFCURVE",
"548 42 OFFCURVE"
);
}
);
width = 573;
}
);
leftKerningGroup = H;
leftMetricsKey = H;
rightKerningGroup = K;
unicode = 004B;
},
{
color = 4;
glyphname = L;
lastChange = "2016-07-31 01:33:47 +0000";
layers = (
{
anchors = (
{
name = bottom;
position = "{308, 0}";
},
{
name = center;
position = "{152, 315}";
},
{
name = top;
position = "{136, 665}";
},
{
name = topright;
position = "{232, 443}";
}
);
layerId = "67BB2AE4-562A-42A4-A220-84C7D1DB401D";
paths = (
{
closed = 1;
nodes = (
"459 0 LINE SMOOTH",
"483 0 OFFCURVE",
"495 12 OFFCURVE",
"495 36 CURVE SMOOTH",
"495 60 OFFCURVE",
"483 72 OFFCURVE",
"459 72 CURVE SMOOTH",
"172 72 LINE",
"172 629 LINE SMOOTH",
"172 653 OFFCURVE",
"160 665 OFFCURVE",
"136 665 CURVE SMOOTH",
"112 665 OFFCURVE",
"100 653 OFFCURVE",
"100 629 CURVE SMOOTH",
"100 36 LINE SMOOTH",
"100 12 OFFCURVE",
"112 0 OFFCURVE",
"136 0 CURVE SMOOTH"
);
}
);
width = 525;
}
);
leftKerningGroup = H;
leftMetricsKey = H;
rightKerningGroup = L;
unicode = 004C;
},
{
color = 4;
glyphname = M;
lastChange = "2016-07-31 01:33:47 +0000";
layers = (
{
anchors = (
{
name = bottom;
position = "{411, 0}";
},
{
name = top;
position = "{411, 665}";
}
);
layerId = "67BB2AE4-562A-42A4-A220-84C7D1DB401D";
paths = (
{
closed = 1;
nodes = (
"172 36 CURVE SMOOTH",
"172 543 LINE SMOOTH",
"172 572 OFFCURVE",
"136 591 OFFCURVE",
"144 563 CURVE SMOOTH",
"146 558 OFFCURVE",
"148 554 OFFCURVE",
"151 549 CURVE SMOOTH",
"369 224 LINE SMOOTH",
"380 208 OFFCURVE",
"391 201 OFFCURVE",
"405 201 CURVE SMOOTH",
"425 201 OFFCURVE",
"438 208 OFFCURVE",
"449 224 CURVE SMOOTH",
"667 549 LINE SMOOTH",
"683 574 OFFCURVE",
"690 593 OFFCURVE",
"681 593 CURVE SMOOTH",
"658 593 OFFCURVE",
"645 580 OFFCURVE",
"645 557 CURVE SMOOTH",
"645 36 LINE SMOOTH",
"645 13 OFFCURVE",
"658 0 OFFCURVE",
"681 0 CURVE SMOOTH",
"704 0 OFFCURVE",
"717 13 OFFCURVE",
"717 36 CURVE SMOOTH",
"717 629 LINE SMOOTH",
"717 652 OFFCURVE",
"707 665 OFFCURVE",
"687 665 CURVE SMOOTH",
"667 665 OFFCURVE",
"654 658 OFFCURVE",
"643 642 CURVE SMOOTH",
"401 275 LINE",
"417 277 LINE",
"176 642 LINE SMOOTH",
"165 658 OFFCURVE",
"153 665 OFFCURVE",
"136 665 CURVE SMOOTH",
"113 665 OFFCURVE",
"100 652 OFFCURVE",
"100 629 CURVE SMOOTH",
"100 36 LINE SMOOTH",
"100 13 OFFCURVE",
"113 0 OFFCURVE",
"136 0 CURVE SMOOTH",
"159 0 OFFCURVE",
"172 13 OFFCURVE"
);
}
);
width = 817;
}
);
leftKerningGroup = H;
leftMetricsKey = H;
rightKerningGroup = H;
rightMetricsKey = H;
unicode = 004D;
},
{
color = 4;
glyphname = N;
lastChange = "2016-07-31 01:33:47 +0000";
layers = (
{
anchors = (
{
name = bottom;
position = "{369, 0}";
},
{
name = top;
position = "{369, 665}";
}
);
layerId = "67BB2AE4-562A-42A4-A220-84C7D1DB401D";
paths = (
{
closed = 1;
nodes = (
"172 36 CURVE SMOOTH",
"172 541 LINE",
"155 549 LINE",
"565 21 LINE SMOOTH",
"577 6 OFFCURVE",
"587 0 OFFCURVE",
"601 0 CURVE SMOOTH",
"624 0 OFFCURVE",
"637 13 OFFCURVE",
"637 36 CURVE SMOOTH",
"637 629 LINE SMOOTH",
"637 652 OFFCURVE",
"624 665 OFFCURVE",
"601 665 CURVE SMOOTH",
"578 665 OFFCURVE",
"565 652 OFFCURVE",
"565 629 CURVE SMOOTH",
"565 124 LINE",
"583 116 LINE",
"172 644 LINE SMOOTH",
"161 659 OFFCURVE",
"150 665 OFFCURVE",
"136 665 CURVE SMOOTH",
"113 665 OFFCURVE",
"100 652 OFFCURVE",
"100 629 CURVE SMOOTH",
"100 36 LINE SMOOTH",
"100 13 OFFCURVE",
"113 0 OFFCURVE",
"136 0 CURVE SMOOTH",
"159 0 OFFCURVE",
"172 13 OFFCURVE"
);
}
);
width = 737;
}
);
leftKerningGroup = H;
leftMetricsKey = H;
rightKerningGroup = H;
rightMetricsKey = H;
unicode = 004E;
},
{
color = 4;
glyphname = Eng;
layers = (
{
components = (
{
name = N;
}
);
layerId = "67BB2AE4-562A-42A4-A220-84C7D1DB401D";
paths = (
{
closed = 1;
nodes = (
"499 -200 LINE SMOOTH",
"593 -200 OFFCURVE",
"637 -156 OFFCURVE",
"637 -62 CURVE SMOOTH",
"637 408 LINE SMOOTH",
"637 431 OFFCURVE",
"624 444 OFFCURVE",
"601 444 CURVE SMOOTH",
"578 444 OFFCURVE",
"565 431 OFFCURVE",
"565 408 CURVE SMOOTH",
"565 -62 LINE SMOOTH",
"565 -115 OFFCURVE",
"552 -128 OFFCURVE",
"499 -128 CURVE SMOOTH",
"383 -128 LINE SMOOTH",
"344 -128 OFFCURVE",
"327 -121 OFFCURVE",
"320 -97 CURVE SMOOTH",
"313 -74 OFFCURVE",
"305 -62 OFFCURVE",
"283 -62 CURVE SMOOTH",
"258 -62 OFFCURVE",
"244 -76 OFFCURVE",
"248 -100 CURVE SMOOTH",
"259 -168 OFFCURVE",
"303 -200 OFFCURVE",
"383 -200 CURVE SMOOTH"
);
}
);
width = 737;
}
);
leftKerningGroup = H;
leftMetricsKey = N;
rightKerningGroup = H;
rightMetricsKey = N;
unicode = 014A;
},
{
color = 4;
glyphname = O;
lastChange = "2016-07-31 01:33:47 +0000";
layers = (
{
anchors = (
{
name = bottom;
position = "{350, 0}";
},
{
name = center;
position = "{350, 333}";
},
{
name = ogonek;
position = "{482, 20}";
},
{
name = top;
position = "{358, 665}";
},
{
name = topleft;
position = "{80, 665}";
},
{
name = topright;
position = "{563, 609}";
}
);
layerId = "67BB2AE4-562A-42A4-A220-84C7D1DB401D";
paths = (
{
closed = 1;
nodes = (
"418 0 LINE SMOOTH",
"568 0 OFFCURVE",
"636 68 OFFCURVE",
"636 218 CURVE SMOOTH",
"636 447 LINE SMOOTH",
"636 597 OFFCURVE",
"568 665 OFFCURVE",
"418 665 CURVE SMOOTH",
"298 665 LINE SMOOTH",
"149 666 OFFCURVE",
"80 599 OFFCURVE",
"80 448 CURVE SMOOTH",
"80 218 LINE SMOOTH",
"80 68 OFFCURVE",
"148 0 OFFCURVE",
"298 0 CURVE SMOOTH"
);
},
{
closed = 1;
nodes = (
"152 218 CURVE SMOOTH",
"152 448 LINE SMOOTH",
"152 558 OFFCURVE",
"188 594 OFFCURVE",
"298 593 CURVE SMOOTH",
"418 593 LINE SMOOTH",
"528 593 OFFCURVE",
"564 557 OFFCURVE",
"564 447 CURVE SMOOTH",
"564 218 LINE SMOOTH",
"564 108 OFFCURVE",
"528 72 OFFCURVE",
"418 72 CURVE SMOOTH",
"298 72 LINE SMOOTH",
"188 72 OFFCURVE",
"152 108 OFFCURVE"
);
}
);
width = 716;
}
);
leftKerningGroup = O;
rightKerningGroup = O;
unicode = 004F;
},
{
color = 4;
glyphname = OE;
layers = (
{
layerId = "67BB2AE4-562A-42A4-A220-84C7D1DB401D";
paths = (
{
closed = 1;
nodes = (
"492 72 LINE",
"492 300 LINE",
"663 300 LINE SMOOTH",
"686 300 OFFCURVE",
"699 313 OFFCURVE",
"699 336 CURVE SMOOTH",
"699 359 OFFCURVE",
"686 372 OFFCURVE",
"663 372 CURVE SMOOTH",
"492 372 LINE",
"492 593 LINE",
"781 593 LINE SMOOTH",
"804 593 OFFCURVE",
"817 606 OFFCURVE",
"817 629 CURVE SMOOTH",
"817 652 OFFCURVE",
"804 665 OFFCURVE",
"781 665 CURVE SMOOTH",
"298 665 LINE SMOOTH",
"149 665 OFFCURVE",
"80 599 OFFCURVE",
"80 448 CURVE SMOOTH",
"80 218 LINE SMOOTH",
"80 68 OFFCURVE",
"148 0 OFFCURVE",
"298 0 CURVE SMOOTH",
"781 0 LINE SMOOTH",
"804 0 OFFCURVE",
"817 13 OFFCURVE",
"817 36 CURVE SMOOTH",
"817 59 OFFCURVE",
"804 72 OFFCURVE",
"781 72 CURVE SMOOTH"
);
},
{
closed = 1;
nodes = (
"152 448 LINE SMOOTH",
"152 558 OFFCURVE",
"188 593 OFFCURVE",
"298 593 CURVE SMOOTH",
"420 593 LINE",
"420 72 LINE",
"298 72 LINE SMOOTH",
"188 72 OFFCURVE",
"152 108 OFFCURVE",
"152 218 CURVE SMOOTH"
);
}
);
width = 867;
}
);
leftKerningGroup = O;
leftMetricsKey = O;
rightKerningGroup = E;
rightMetricsKey = E;
unicode = 0152;
},
{
color = 4;
glyphname = P;
lastChange = "2016-07-31 01:33:47 +0000";
layers = (
{
anchors = (
{
name = bottom;
position = "{302, 0}";
},
{
name = top;
position = "{302, 665}";
}
);
layerId = "67BB2AE4-562A-42A4-A220-84C7D1DB401D";
paths = (
{
closed = 1;
nodes = (
"172 36 CURVE SMOOTH",
"172 593 LINE",
"370 593 LINE SMOOTH",
"449 593 OFFCURVE",
"481 561 OFFCURVE",
"481 482 CURVE SMOOTH",
"481 452 LINE SMOOTH",
"481 373 OFFCURVE",
"449 341 OFFCURVE",
"370 341 CURVE SMOOTH",
"172 341 LINE SMOOTH",
"149 341 OFFCURVE",
"136 328 OFFCURVE",
"136 305 CURVE SMOOTH",
"136 282 OFFCURVE",
"149 269 OFFCURVE",
"172 269 CURVE SMOOTH",
"370 269 LINE SMOOTH",
"489 269 OFFCURVE",
"553 333 OFFCURVE",
"553 452 CURVE SMOOTH",
"553 482 LINE SMOOTH",
"553 601 OFFCURVE",
"489 665 OFFCURVE",
"370 665 CURVE SMOOTH",
"136 665 LINE SMOOTH",
"113 665 OFFCURVE",
"100 652 OFFCURVE",
"100 629 CURVE SMOOTH",
"100 36 LINE SMOOTH",
"100 13 OFFCURVE",
"113 0 OFFCURVE",
"136 0 CURVE SMOOTH",
"159 0 OFFCURVE",
"172 13 OFFCURVE"
);
}
);
width = 593;
}
);
leftKerningGroup = H;
leftMetricsKey = H;
rightKerningGroup = P;
unicode = 0050;
},
{
color = 4;
glyphname = Thorn;
layers = (
{
layerId = "67BB2AE4-562A-42A4-A220-84C7D1DB401D";
paths = (
{
closed = 1;
nodes = (
"322 170 LINE SMOOTH",
"441 170 OFFCURVE",
"505 234 OFFCURVE",
"505 353 CURVE SMOOTH",
"505 383 LINE SMOOTH",
"505 502 OFFCURVE",
"441 566 OFFCURVE",
"322 566 CURVE SMOOTH",
"172 566 LINE SMOOTH",
"149 566 OFFCURVE",
"136 553 OFFCURVE",
"136 530 CURVE SMOOTH",
"136 507 OFFCURVE",
"149 494 OFFCURVE",
"172 494 CURVE SMOOTH",
"322 494 LINE SMOOTH",
"401 494 OFFCURVE",
"433 462 OFFCURVE",
"433 383 CURVE SMOOTH",
"433 353 LINE SMOOTH",
"433 274 OFFCURVE",
"401 242 OFFCURVE",
"322 242 CURVE SMOOTH",
"172 242 LINE SMOOTH",
"149 242 OFFCURVE",
"136 229 OFFCURVE",
"136 206 CURVE SMOOTH",
"136 183 OFFCURVE",
"149 170 OFFCURVE",
"172 170 CURVE SMOOTH"
);
},
{
closed = 1;
nodes = (
"159 0 OFFCURVE",
"172 13 OFFCURVE",
"172 36 CURVE SMOOTH",
"172 629 LINE SMOOTH",
"172 652 OFFCURVE",
"159 665 OFFCURVE",
"136 665 CURVE SMOOTH",
"113 665 OFFCURVE",
"100 652 OFFCURVE",
"100 629 CURVE SMOOTH",
"100 36 LINE SMOOTH",
"100 13 OFFCURVE",
"113 0 OFFCURVE",
"136 0 CURVE SMOOTH"
);
}
);
width = 545;
}
);
leftKerningGroup = H;
leftMetricsKey = H;
rightKerningGroup = P;
rightMetricsKey = P;
unicode = 00DE;
},
{
color = 4;
glyphname = Q;
layers = (
{
anchors = (
{
name = bottom;
position = "{358, 0}";
},
{
name = top;
position = "{358, 665}";
}
);
components = (
{
name = O;
}
);
layerId = "67BB2AE4-562A-42A4-A220-84C7D1DB401D";
paths = (
{
closed = 1;
nodes = (
"630 -15 CURVE SMOOTH",
"472 150 LINE SMOOTH",
"457 164 OFFCURVE",
"442 165 OFFCURVE",
"427 151 CURVE SMOOTH",
"413 137 OFFCURVE",
"413 121 OFFCURVE",
"426 107 CURVE SMOOTH",
"584 -58 LINE SMOOTH",
"599 -72 OFFCURVE",
"614 -72 OFFCURVE",
"628 -59 CURVE SMOOTH",
"643 -45 OFFCURVE",
"643 -29 OFFCURVE"
);
}
);
width = 720;
}
);
leftKerningGroup = O;
leftMetricsKey = O;
rightKerningGroup = O;
rightMetricsKey = O;
unicode = 0051;
},
{
color = 4;
glyphname = R;
layers = (
{
anchors = (
{
name = bottom;
position = "{307, 0}";
},
{
name = top;
position = "{307, 665}";
}
);
components = (
{
name = P;
}
);
layerId = "67BB2AE4-562A-42A4-A220-84C7D1DB401D";
paths = (
{
closed = 1;
nodes = (
"549 47 CURVE SMOOTH",
"392 304 LINE SMOOTH",
"379 325 OFFCURVE",
"363 329 OFFCURVE",
"343 317 CURVE SMOOTH",
"323 305 OFFCURVE",
"318 287 OFFCURVE",
"330 267 CURVE SMOOTH",
"487 10 LINE SMOOTH",
"499 -9 OFFCURVE",
"517 -14 OFFCURVE",
"536 -2 CURVE SMOOTH",
"555 10 OFFCURVE",
"560 28 OFFCURVE"
);
}
);
width = 613;
}
);
leftKerningGroup = H;
leftMetricsKey = H;
rightKerningGroup = R;
unicode = 0052;
},
{
color = 4;
glyphname = S;
lastChange = "2016-07-31 01:33:47 +0000";
layers = (
{
anchors = (
{
name = bottom;
position = "{345, 0}";
},
{
name = top;
position = "{345, 665}";
}
);
layerId = "67BB2AE4-562A-42A4-A220-84C7D1DB401D";
paths = (
{
closed = 1;
nodes = (
"411 0 LINE SMOOTH",
"541 0 OFFCURVE",
"600 59 OFFCURVE",
"600 188 CURVE SMOOTH",
"600 317 OFFCURVE",
"540 378 OFFCURVE",
"411 378 CURVE SMOOTH",
"282 378 LINE SMOOTH",
"200 378 OFFCURVE",
"174 404 OFFCURVE",
"174 486 CURVE SMOOTH",
"174 568 OFFCURVE",
"199 593 OFFCURVE",
"281 593 CURVE SMOOTH",
"408 593 LINE SMOOTH",
"477 593 OFFCURVE",
"506 575 OFFCURVE",
"513 522 CURVE SMOOTH",
"517 499 OFFCURVE",
"527 487 OFFCURVE",
"550 487 CURVE SMOOTH",
"574 487 OFFCURVE",
"588 500 OFFCURVE",
"585 524 CURVE SMOOTH",
"574 620 OFFCURVE",
"517 665 OFFCURVE",
"408 665 CURVE SMOOTH",
"281 665 LINE SMOOTH",
"159 665 OFFCURVE",
"102 608 OFFCURVE",
"102 486 CURVE SMOOTH",
"102 364 OFFCURVE",
"160 306 OFFCURVE",
"282 306 CURVE SMOOTH",
"411 306 LINE SMOOTH",
"500 306 OFFCURVE",
"528 278 OFFCURVE",
"528 188 CURVE SMOOTH",
"528 100 OFFCURVE",
"501 72 OFFCURVE",
"411 72 CURVE SMOOTH",
"267 72 LINE SMOOTH",
"191 72 OFFCURVE",
"160 92 OFFCURVE",
"152 152 CURVE SMOOTH",
"149 176 OFFCURVE",
"138 188 OFFCURVE",
"115 188 CURVE SMOOTH",
"92 188 OFFCURVE",
"78 175 OFFCURVE",
"80 151 CURVE SMOOTH",
"91 48 OFFCURVE",
"151 0 OFFCURVE",
"267 0 CURVE SMOOTH"
);
}
);
width = 680;
}
);
leftKerningGroup = S;
leftMetricsKey = O;
rightKerningGroup = S;
rightMetricsKey = O;
unicode = 0053;
},
{
color = 4;
glyphname = Germandbls;
layers = (
{
layerId = "67BB2AE4-562A-42A4-A220-84C7D1DB401D";
paths = (
{
closed = 1;
nodes = (
"156 -14 OFFCURVE",
"172 2 OFFCURVE",
"172 22 CURVE SMOOTH",
"172 480 LINE SMOOTH",
"172 562 OFFCURVE",
"197 587 OFFCURVE",
"279 587 CURVE SMOOTH",
"287 587 LINE SMOOTH",
"363 587 OFFCURVE",
"390 565 OFFCURVE",
"393 495 CURVE",
"316 407 LINE",
"316 350 LINE",
"407 288 OFFCURVE",
"441 236 OFFCURVE",
"441 161 CURVE SMOOTH",
"441 82 OFFCURVE",
"417 58 OFFCURVE",
"338 58 CURVE SMOOTH",
"268 58 LINE SMOOTH",
"248 58 OFFCURVE",
"232 42 OFFCURVE",
"232 22 CURVE SMOOTH",
"232 2 OFFCURVE",
"248 -14 OFFCURVE",
"268 -14 CURVE SMOOTH",
"338 -14 LINE SMOOTH",
"457 -14 OFFCURVE",
"513 42 OFFCURVE",
"513 161 CURVE SMOOTH",
"513 250 OFFCURVE",
"476 318 OFFCURVE",
"391 385 CURVE",
"448 448 LINE SMOOTH",
"460 462 OFFCURVE",
"465 474 OFFCURVE",
"465 493 CURVE SMOOTH",
"461 606 OFFCURVE",
"404 659 OFFCURVE",
"287 659 CURVE SMOOTH",
"279 659 LINE SMOOTH",
"157 659 OFFCURVE",
"100 602 OFFCURVE",
"100 480 CURVE SMOOTH",
"100 22 LINE SMOOTH",
"100 2 OFFCURVE",
"116 -14 OFFCURVE",
"136 -14 CURVE SMOOTH"
);
}
);
width = 593;
}
);
leftKerningGroup = H;
leftMetricsKey = n;
rightKerningGroup = Germandbls;
rightMetricsKey = o;
unicode = 1E9E;
},
{
color = 4;
glyphname = Schwa;
layers = (
{
layerId = "67BB2AE4-562A-42A4-A220-84C7D1DB401D";
paths = (
{
closed = 1;
nodes = (
"418 0 LINE SMOOTH",
"568 0 OFFCURVE",
"636 68 OFFCURVE",
"636 218 CURVE SMOOTH",
"636 444 LINE SMOOTH",
"636 594 OFFCURVE",
"568 662 OFFCURVE",
"418 662 CURVE SMOOTH",
"298 662 LINE SMOOTH",
"148 662 OFFCURVE",
"80 594 OFFCURVE",
"80 444 CURVE SMOOTH",
"80 424 OFFCURVE",
"96 408 OFFCURVE",
"116 408 CURVE SMOOTH",
"136 408 OFFCURVE",
"152 424 OFFCURVE",
"152 444 CURVE SMOOTH",
"152 554 OFFCURVE",
"188 590 OFFCURVE",
"298 590 CURVE SMOOTH",
"418 590 LINE SMOOTH",
"528 590 OFFCURVE",
"564 554 OFFCURVE",
"564 444 CURVE SMOOTH",
"564 317 LINE",
"80 317 LINE",
"80 218 LINE SMOOTH",
"80 68 OFFCURVE",
"148 0 OFFCURVE",
"298 0 CURVE SMOOTH"
);
},
{
closed = 1;
nodes = (
"188 72 OFFCURVE",
"152 108 OFFCURVE",
"152 218 CURVE SMOOTH",
"152 245 LINE",
"564 245 LINE",
"564 218 LINE SMOOTH",
"564 108 OFFCURVE",
"528 72 OFFCURVE",
"418 72 CURVE SMOOTH",
"298 72 LINE SMOOTH"
);
}
);
width = 716;
}
);
leftKerningGroup = O;
leftMetricsKey = O;
rightKerningGroup = O;
rightMetricsKey = O;
unicode = 018F;
},
{
color = 4;
glyphname = T;
lastChange = "2016-07-31 01:33:47 +0000";
layers = (
{
anchors = (
{
name = bottom;
position = "{298, 0}";
},
{
name = center;
position = "{298, 333}";
},
{
name = top;
position = "{298, 665}";
}
);
layerId = "67BB2AE4-562A-42A4-A220-84C7D1DB401D";
paths = (
{
closed = 1;
nodes = (
"334 36 CURVE SMOOTH",
"334 593 LINE",
"535 593 LINE SMOOTH",
"558 593 OFFCURVE",
"571 606 OFFCURVE",
"571 629 CURVE SMOOTH",
"571 652 OFFCURVE",
"558 665 OFFCURVE",
"535 665 CURVE SMOOTH",
"61 665 LINE SMOOTH",
"38 665 OFFCURVE",
"25 652 OFFCURVE",
"25 629 CURVE SMOOTH",
"25 606 OFFCURVE",
"38 593 OFFCURVE",
"61 593 CURVE SMOOTH",
"262 593 LINE",
"262 36 LINE SMOOTH",
"262 13 OFFCURVE",
"275 0 OFFCURVE",
"298 0 CURVE SMOOTH",
"321 0 OFFCURVE",
"334 13 OFFCURVE"
);
}
);
width = 596;
}
);
leftKerningGroup = T;
rightKerningGroup = T;
unicode = 0054;
},
{
color = 4;
glyphname = U;
lastChange = "2016-07-31 01:33:47 +0000";
layers = (
{
anchors = (
{
name = bottom;
position = "{368, 0}";
},
{
name = ogonek;
position = "{575, 59}";
},
{
name = top;
position = "{368, 665}";
},
{
name = topright;
position = "{610, 665}";
}
);
layerId = "67BB2AE4-562A-42A4-A220-84C7D1DB401D";
paths = (
{
closed = 1;
nodes = (
"428 0 LINE SMOOTH",
"578 0 OFFCURVE",
"646 68 OFFCURVE",
"646 218 CURVE SMOOTH",
"646 629 LINE SMOOTH",
"646 652 OFFCURVE",
"633 665 OFFCURVE",
"610 665 CURVE SMOOTH",
"587 665 OFFCURVE",
"574 652 OFFCURVE",
"574 629 CURVE SMOOTH",
"574 218 LINE SMOOTH",
"574 108 OFFCURVE",
"538 72 OFFCURVE",
"428 72 CURVE SMOOTH",
"308 72 LINE SMOOTH",
"198 72 OFFCURVE",
"162 108 OFFCURVE",
"162 218 CURVE SMOOTH",
"162 629 LINE SMOOTH",
"162 652 OFFCURVE",
"149 665 OFFCURVE",
"126 665 CURVE SMOOTH",
"103 665 OFFCURVE",
"90 652 OFFCURVE",
"90 629 CURVE SMOOTH",
"90 218 LINE SMOOTH",
"90 68 OFFCURVE",
"158 0 OFFCURVE",
"308 0 CURVE SMOOTH"
);
}
);
width = 736;
}
);
leftKerningGroup = U;
leftMetricsKey = "=H-10";
rightKerningGroup = U;
rightMetricsKey = "=H-10";
unicode = 0055;
},
{
color = 4;
glyphname = V;
layers = (
{
anchors = (
{
name = bottom;
position = "{313, 0}";
},
{
name = top;
position = "{315, 665}";
}
);
layerId = "67BB2AE4-562A-42A4-A220-84C7D1DB401D";
paths = (
{
closed = 1;
nodes = (
"315 0 LINE SMOOTH",
"333 0 OFFCURVE",
"345 10 OFFCURVE",
"353 27 CURVE SMOOTH",
"606 614 LINE SMOOTH",
"615 635 OFFCURVE",
"608 652 OFFCURVE",
"587 661 CURVE SMOOTH",
"565 670 OFFCURVE",
"549 664 OFFCURVE",
"540 642 CURVE",
"317 114 LINE",
"90 642 LINE SMOOTH",
"81 664 OFFCURVE",
"64 670 OFFCURVE",
"43 661 CURVE SMOOTH",
"21 652 OFFCURVE",
"15 635 OFFCURVE",
"24 614 CURVE SMOOTH",
"276 27 LINE SMOOTH",
"284 9 OFFCURVE",
"295 0 OFFCURVE",
"311 0 CURVE"
);
}
);
width = 630;
}
);
leftKerningGroup = V;
rightKerningGroup = V;
unicode = 0056;
},
{
color = 4;
glyphname = W;
layers = (
{
anchors = (
{
name = bottom;
position = "{442, 0}";
},
{
name = top;
position = "{442, 665}";
}
);
layerId = "67BB2AE4-562A-42A4-A220-84C7D1DB401D";
paths = (
{
closed = 1;
nodes = (
"246 0 LINE",
"268 0 OFFCURVE",
"276 10 OFFCURVE",
"283 30 CURVE SMOOTH",
"441 538 LINE",
"433 552 LINE",
"595 30 LINE SMOOTH",
"601 10 OFFCURVE",
"613 0 OFFCURVE",
"632 0 CURVE",
"635 0 LINE",
"654 0 OFFCURVE",
"665 11 OFFCURVE",
"672 30 CURVE SMOOTH",
"860 617 LINE SMOOTH",
"867 639 OFFCURVE",
"859 655 OFFCURVE",
"837 662 CURVE SMOOTH",
"814 669 OFFCURVE",
"799 662 OFFCURVE",
"792 639 CURVE SMOOTH",
"624 113 LINE",
"641 113 LINE",
"482 635 LINE SMOOTH",
"476 654 OFFCURVE",
"463 665 OFFCURVE",
"443 665 CURVE",
"442 665 LINE",
"420 665 OFFCURVE",
"407 655 OFFCURVE",
"401 635 CURVE SMOOTH",
"242 113 LINE",
"259 113 LINE",
"91 639 LINE SMOOTH",
"83 662 OFFCURVE",
"68 670 OFFCURVE",
"46 662 CURVE SMOOTH",
"23 654 OFFCURVE",
"16 639 OFFCURVE",
"23 617 CURVE SMOOTH",
"211 30 LINE SMOOTH",
"217 9 OFFCURVE",
"227 0 OFFCURVE",
"244 0 CURVE"
);
}
);
width = 883;
}
);
leftKerningGroup = V;
leftMetricsKey = V;
rightKerningGroup = V;
rightMetricsKey = V;
unicode = 0057;
},
{
color = 4;
glyphname = X;
layers = (
{
anchors = (
{
name = bottom;
position = "{302, 0}";
},
{
name = top;
position = "{302, 665}";
}
);
layerId = "67BB2AE4-562A-42A4-A220-84C7D1DB401D";
paths = (
{
closed = 1;
nodes = (
"124 17 CURVE SMOOTH",
"299 275 LINE",
"483 17 LINE SMOOTH",
"496 -2 OFFCURVE",
"514 -5 OFFCURVE",
"533 8 CURVE SMOOTH",
"552 22 OFFCURVE",
"555 40 OFFCURVE",
"542 59 CURVE SMOOTH",
"346 334 LINE",
"543 606 LINE SMOOTH",
"557 625 OFFCURVE",
"554 642 OFFCURVE",
"535 656 CURVE SMOOTH",
"516 670 OFFCURVE",
"499 667 OFFCURVE",
"485 648 CURVE SMOOTH",
"302 396 LINE",
"122 648 LINE SMOOTH",
"109 667 OFFCURVE",
"91 670 OFFCURVE",
"72 657 CURVE",
"53 643 OFFCURVE",
"50 626 OFFCURVE",
"63 607 CURVE SMOOTH",
"255 337 LINE",
"65 58 LINE SMOOTH",
"52 39 OFFCURVE",
"55 21 OFFCURVE",
"74 8 CURVE SMOOTH",
"94 -5 OFFCURVE",
"111 -2 OFFCURVE"
);
}
);
width = 607;
}
);
leftKerningGroup = X;
rightKerningGroup = X;
unicode = 0058;
},
{
color = 4;
glyphname = Y;
layers = (
{
anchors = (
{
name = bottom;
position = "{293, 0}";
},
{
name = top;
position = "{293, 665}";
},
{
name = topleft;
position = "{40, 665}";
}
);
layerId = "67BB2AE4-562A-42A4-A220-84C7D1DB401D";
paths = (
{
closed = 1;
nodes = (
"499 647 CURVE SMOOTH",
"290 324 LINE",
"88 647 LINE SMOOTH",
"76 666 OFFCURVE",
"58 670 OFFCURVE",
"38 658 CURVE",
"19 645 OFFCURVE",
"15 628 OFFCURVE",
"27 608 CURVE SMOOTH",
"254 247 LINE",
"254 36 LINE SMOOTH",
"254 13 OFFCURVE",
"267 0 OFFCURVE",
"290 0 CURVE SMOOTH",
"313 0 OFFCURVE",
"326 13 OFFCURVE",
"326 36 CURVE SMOOTH",
"326 247 LINE",
"559 608 LINE SMOOTH",
"572 627 OFFCURVE",
"568 645 OFFCURVE",
"548 657 CURVE",
"529 670 OFFCURVE",
"511 666 OFFCURVE"
);
}
);
width = 587;
}
);
leftKerningGroup = Y;
leftMetricsKey = V;
rightKerningGroup = Y;
rightMetricsKey = V;
unicode = 0059;
},
{
color = 4;
glyphname = Z;
layers = (
{
anchors = (
{
name = bottom;
position = "{339, 0}";
},
{
name = top;
position = "{349, 665}";
}
);
layerId = "67BB2AE4-562A-42A4-A220-84C7D1DB401D";
paths = (
{
closed = 1;
nodes = (
"456 0 LINE SMOOTH",
"546 0 OFFCURVE",
"599 42 OFFCURVE",
"612 120 CURVE SMOOTH",
"615 144 OFFCURVE",
"601 158 OFFCURVE",
"577 158 CURVE SMOOTH",
"554 158 OFFCURVE",
"544 146 OFFCURVE",
"539 124 CURVE SMOOTH",
"531 87 OFFCURVE",
"506 72 OFFCURVE",
"456 72 CURVE SMOOTH",
"156 72 LINE",
"157 64 LINE",
"560 594 LINE SMOOTH",
"570 608 OFFCURVE",
"574 618 OFFCURVE",
"574 629 CURVE SMOOTH",
"574 652 OFFCURVE",
"562 665 OFFCURVE",
"538 665 CURVE SMOOTH",
"205 665 LINE SMOOTH",
"116 665 OFFCURVE",
"63 623 OFFCURVE",
"50 545 CURVE SMOOTH",
"46 521 OFFCURVE",
"61 507 OFFCURVE",
"85 507 CURVE SMOOTH",
"108 507 OFFCURVE",
"118 519 OFFCURVE",
"123 541 CURVE SMOOTH",
"131 578 OFFCURVE",
"156 593 OFFCURVE",
"205 593 CURVE SMOOTH",
"487 593 LINE",
"482 603 LINE",
"76 69 LINE SMOOTH",
"66 55 OFFCURVE",
"61 45 OFFCURVE",
"61 36 CURVE SMOOTH",
"61 13 OFFCURVE",
"74 0 OFFCURVE",
"97 0 CURVE SMOOTH"
);
}
);
width = 662;
}
);
leftKerningGroup = Z;
rightKerningGroup = Z;
unicode = 005A;
},
{
color = 4;
glyphname = Iacute_J.loclNLD;
layers = (
{
layerId = "67BB2AE4-562A-42A4-A220-84C7D1DB401D";
paths = (
{
closed = 1;
nodes = (
"365 0 LINE SMOOTH",
"502 0 OFFCURVE",
"563 60 OFFCURVE",
"563 198 CURVE SMOOTH",
"563 629 LINE SMOOTH",
"563 652 OFFCURVE",
"550 665 OFFCURVE",
"527 665 CURVE SMOOTH",
"503 665 OFFCURVE",
"491 652 OFFCURVE",
"491 629 CURVE SMOOTH",
"491 198 LINE SMOOTH",
"491 100 OFFCURVE",
"462 72 OFFCURVE",
"365 72 CURVE SMOOTH",
"298 72 LINE SMOOTH",
"214 72 OFFCURVE",
"181 93 OFFCURVE",
"173 162 CURVE SMOOTH",
"171 186 OFFCURVE",
"159 198 OFFCURVE",
"136 198 CURVE SMOOTH",
"113 198 OFFCURVE",
"99 185 OFFCURVE",
"101 161 CURVE SMOOTH",
"112 49 OFFCURVE",
"173 0 OFFCURVE",
"298 0 CURVE SMOOTH"
);
},
{
closed = 1;
nodes = (
"160 248 OFFCURVE",
"172 260 OFFCURVE",
"172 284 CURVE SMOOTH",
"172 629 LINE SMOOTH",
"172 653 OFFCURVE",
"160 665 OFFCURVE",
"136 665 CURVE SMOOTH",
"112 665 OFFCURVE",
"100 653 OFFCURVE",
"100 629 CURVE SMOOTH",
"100 284 LINE SMOOTH",
"100 260 OFFCURVE",
"112 248 OFFCURVE",
"136 248 CURVE SMOOTH"
);
},
{
closed = 1;
nodes = (
"135 701 OFFCURVE",
"151 702 OFFCURVE",
"164 718 CURVE SMOOTH",
"242 811 LINE SMOOTH",
"255 827 OFFCURVE",
"254 843 OFFCURVE",
"238 856 CURVE SMOOTH",
"222 869 OFFCURVE",
"206 868 OFFCURVE",
"193 852 CURVE SMOOTH",
"115 759 LINE SMOOTH",
"102 743 OFFCURVE",
"103 727 OFFCURVE",
"119 714 CURVE SMOOTH"
);
},
{
closed = 1;
nodes = (
"535 701 OFFCURVE",
"551 702 OFFCURVE",
"564 718 CURVE SMOOTH",
"642 811 LINE SMOOTH",
"655 827 OFFCURVE",
"654 843 OFFCURVE",
"638 856 CURVE SMOOTH",
"622 869 OFFCURVE",
"606 868 OFFCURVE",
"593 852 CURVE SMOOTH",
"515 759 LINE SMOOTH",
"502 743 OFFCURVE",
"503 727 OFFCURVE",
"519 714 CURVE SMOOTH"
);
}
);
width = 643;
}
);
leftKerningGroup = H;
leftMetricsKey = H;
rightKerningGroup = U;
},
{
color = 4;
glyphname = a;
layers = (
{
anchors = (
{
name = bottom;
position = "{303, 0}";
},
{
name = ogonek;
position = "{474, 5}";
},
{
name = top;
position = "{303, 494}";
}
);
layerId = "67BB2AE4-562A-42A4-A220-84C7D1DB401D";
paths = (
{
closed = 1;
nodes = (
"530 36 CURVE SMOOTH",
"530 304 LINE SMOOTH",
"530 434 OFFCURVE",
"470 494 OFFCURVE",
"340 494 CURVE SMOOTH",
"282 494 LINE SMOOTH",
"168 494 OFFCURVE",
"107 460 OFFCURVE",
"91 385 CURVE SMOOTH",
"86 362 OFFCURVE",
"102 348 OFFCURVE",
"126 348 CURVE SMOOTH",
"147 348 OFFCURVE",
"156 356 OFFCURVE",
"165 380 CURVE SMOOTH",
"177 411 OFFCURVE",
"208 422 OFFCURVE",
"282 422 CURVE SMOOTH",
"340 422 LINE SMOOTH",
"430 422 OFFCURVE",
"458 394 OFFCURVE",
"458 304 CURVE SMOOTH",
"458 36 LINE SMOOTH",
"458 13 OFFCURVE",
"471 0 OFFCURVE",
"494 0 CURVE SMOOTH",
"517 0 OFFCURVE",
"530 13 OFFCURVE"
);
},
{
closed = 1;
nodes = (
"296 0 LINE SMOOTH",
"412 0 OFFCURVE",
"483 60 OFFCURVE",
"497 170 CURVE SMOOTH",
"498 181 OFFCURVE",
"496 187 OFFCURVE",
"493 187 CURVE SMOOTH",
"469 187 OFFCURVE",
"460 175 OFFCURVE",
"454 153 CURVE SMOOTH",
"440 99 OFFCURVE",
"389 72 OFFCURVE",
"296 72 CURVE SMOOTH",
"240 72 LINE SMOOTH",
"171 72 OFFCURVE",
"152 91 OFFCURVE",
"152 160 CURVE SMOOTH",
"152 229 OFFCURVE",
"171 248 OFFCURVE",
"240 248 CURVE SMOOTH",
"458 248 LINE SMOOTH",
"481 248 OFFCURVE",
"494 261 OFFCURVE",
"494 284 CURVE SMOOTH",
"494 307 OFFCURVE",
"481 320 OFFCURVE",
"458 320 CURVE SMOOTH",
"240 320 LINE SMOOTH",
"131 320 OFFCURVE",
"80 269 OFFCURVE",
"80 160 CURVE SMOOTH",
"80 51 OFFCURVE",
"131 0 OFFCURVE",
"240 0 CURVE SMOOTH"
);
}
);
width = 620;
}
);
leftKerningGroup = a;
leftMetricsKey = "=n-20";
rightKerningGroup = n;
rightMetricsKey = n;
unicode = 0061;
},
{
color = 4;
glyphname = ae;
layers = (
{
anchors = (
{
name = bottom;
position = "{474, 0}";
},
{
name = top;
position = "{474, 494}";
}
);
layerId = "67BB2AE4-562A-42A4-A220-84C7D1DB401D";
paths = (
{
closed = 1;
nodes = (
"684 -16 LINE SMOOTH",
"810 -16 OFFCURVE",
"870 31 OFFCURVE",
"870 135 CURVE SMOOTH",
"870 155 OFFCURVE",
"854 171 OFFCURVE",
"834 171 CURVE SMOOTH",
"814 171 OFFCURVE",
"798 155 OFFCURVE",
"798 135 CURVE SMOOTH",
"798 76 OFFCURVE",
"773 56 OFFCURVE",
"684 56 CURVE SMOOTH",
"623 56 LINE SMOOTH",
"538 56 OFFCURVE",
"510 84 OFFCURVE",
"510 176 CURVE SMOOTH",
"510 234 LINE",
"833 234 LINE SMOOTH",
"857 234 OFFCURVE",
"870 247 OFFCURVE",
"870 270 CURVE SMOOTH",
"870 410 OFFCURVE",
"811 476 OFFCURVE",
"684 476 CURVE SMOOTH",
"624 476 LINE SMOOTH",
"553 477 OFFCURVE",
"504 452 OFFCURVE",
"474 399 CURVE",
"443 452 OFFCURVE",
"392 477 OFFCURVE",
"320 477 CURVE SMOOTH",
"282 477 LINE SMOOTH",
"150 477 OFFCURVE",
"88 432 OFFCURVE",
"88 331 CURVE SMOOTH",
"88 311 OFFCURVE",
"104 295 OFFCURVE",
"124 295 CURVE SMOOTH",
"144 295 OFFCURVE",
"160 311 OFFCURVE",
"160 331 CURVE SMOOTH",
"160 386 OFFCURVE",
"186 405 OFFCURVE",
"282 405 CURVE SMOOTH",
"320 405 LINE SMOOTH",
"403 405 OFFCURVE",
"433 381 OFFCURVE",
"438 306 CURVE",
"240 306 LINE SMOOTH",
"131 306 OFFCURVE",
"80 255 OFFCURVE",
"80 146 CURVE SMOOTH",
"80 37 OFFCURVE",
"131 -14 OFFCURVE",
"240 -14 CURVE SMOOTH",
"276 -14 LINE SMOOTH",
"363 -14 OFFCURVE",
"428 15 OFFCURVE",
"467 71 CURVE",
"497 12 OFFCURVE",
"548 -16 OFFCURVE",
"623 -16 CURVE SMOOTH"
);
},
{
closed = 1;
nodes = (
"171 58 OFFCURVE",
"152 77 OFFCURVE",
"152 146 CURVE SMOOTH",
"152 215 OFFCURVE",
"171 234 OFFCURVE",
"240 234 CURVE SMOOTH",
"438 234 LINE",
"438 172 LINE SMOOTH",
"438 95 OFFCURVE",
"388 58 OFFCURVE",
"276 58 CURVE SMOOTH",
"240 58 LINE SMOOTH"
);
},
{
closed = 1;
nodes = (
"515 381 OFFCURVE",
"544 405 OFFCURVE",
"624 404 CURVE SMOOTH",
"684 404 LINE SMOOTH",
"758 404 OFFCURVE",
"789 379 OFFCURVE",
"796 306 CURVE",
"511 306 LINE"
);
}
);
width = 950;
}
);
leftKerningGroup = a;
leftMetricsKey = a;
rightKerningGroup = e;
rightMetricsKey = e;
unicode = 00E6;
},
{
color = 4;
glyphname = b;
lastChange = "2016-07-31 01:33:47 +0000";
layers = (
{
anchors = (
{
name = bottom;
position = "{352, 0}";
},
{
name = top;
position = "{352, 494}";
}
);
layerId = "67BB2AE4-562A-42A4-A220-84C7D1DB401D";
paths = (
{
closed = 1;
nodes = (
"372 0 LINE SMOOTH",
"502 0 OFFCURVE",
"562 60 OFFCURVE",
"562 190 CURVE SMOOTH",
"562 304 LINE SMOOTH",
"562 434 OFFCURVE",
"502 494 OFFCURVE",
"372 494 CURVE SMOOTH",
"334 494 LINE SMOOTH",
"212 494 OFFCURVE",
"148 442 OFFCURVE",
"133 345 CURVE SMOOTH",
"131 322 OFFCURVE",
"127 308 OFFCURVE",
"138 308 CURVE SMOOTH",
"161 308 OFFCURVE",
"172 319 OFFCURVE",
"172 341 CURVE SMOOTH",
"172 396 OFFCURVE",
"240 422 OFFCURVE",
"334 422 CURVE SMOOTH",
"372 422 LINE SMOOTH",
"462 422 OFFCURVE",
"490 394 OFFCURVE",
"490 304 CURVE SMOOTH",
"490 190 LINE SMOOTH",
"490 100 OFFCURVE",
"462 72 OFFCURVE",
"372 72 CURVE SMOOTH",
"334 72 LINE SMOOTH",
"240 72 OFFCURVE",
"172 98 OFFCURVE",
"172 153 CURVE SMOOTH",
"172 175 OFFCURVE",
"161 186 OFFCURVE",
"137 186 CURVE SMOOTH",
"127 186 OFFCURVE",
"131 172 OFFCURVE",
"133 149 CURVE SMOOTH",
"148 52 OFFCURVE",
"212 0 OFFCURVE",
"334 0 CURVE SMOOTH"
);
},
{
closed = 1;
nodes = (
"172 36 CURVE SMOOTH",
"172 664 LINE SMOOTH",
"172 687 OFFCURVE",
"159 700 OFFCURVE",
"136 700 CURVE SMOOTH",
"113 700 OFFCURVE",
"100 687 OFFCURVE",
"100 664 CURVE SMOOTH",
"100 36 LINE SMOOTH",
"100 13 OFFCURVE",
"113 0 OFFCURVE",
"136 0 CURVE SMOOTH",
"159 0 OFFCURVE",
"172 13 OFFCURVE"
);
}
);
width = 642;
}
);
leftKerningGroup = h;
leftMetricsKey = n;
rightKerningGroup = o;
rightMetricsKey = o;
unicode = 0062;
},
{
color = 4;
glyphname = c;
lastChange = "2016-07-31 01:33:47 +0000";
layers = (
{
anchors = (
{
name = bottom;
position = "{312, 0}";
},
{
name = top;
position = "{311, 494}";
}
);
layerId = "67BB2AE4-562A-42A4-A220-84C7D1DB401D";
paths = (
{
closed = 1;
nodes = (
"352 0 LINE SMOOTH",
"450 0 OFFCURVE",
"505 33 OFFCURVE",
"519 102 CURVE SMOOTH",
"523 126 OFFCURVE",
"508 140 OFFCURVE",
"484 140 CURVE SMOOTH",
"461 140 OFFCURVE",
"453 128 OFFCURVE",
"446 107 CURVE SMOOTH",
"436 81 OFFCURVE",
"410 72 OFFCURVE",
"352 72 CURVE SMOOTH",
"270 72 LINE SMOOTH",
"180 72 OFFCURVE",
"152 100 OFFCURVE",
"152 190 CURVE SMOOTH",
"152 305 LINE",
"152 395 OFFCURVE",
"180 423 OFFCURVE",
"270 422 CURVE SMOOTH",
"352 422 LINE SMOOTH",
"410 422 OFFCURVE",
"436 413 OFFCURVE",
"446 387 CURVE SMOOTH",
"453 366 OFFCURVE",
"461 354 OFFCURVE",
"483 354 CURVE SMOOTH",
"508 354 OFFCURVE",
"523 368 OFFCURVE",
"519 392 CURVE SMOOTH",
"505 461 OFFCURVE",
"450 494 OFFCURVE",
"352 494 CURVE SMOOTH",
"270 494 LINE SMOOTH",
"140 495 OFFCURVE",
"80 435 OFFCURVE",
"80 305 CURVE SMOOTH",
"80 190 LINE SMOOTH",
"80 60 OFFCURVE",
"140 0 OFFCURVE",
"270 0 CURVE SMOOTH"
);
}
);
width = 580;
}
);
leftKerningGroup = o;
leftMetricsKey = o;
rightKerningGroup = c;
rightMetricsKey = "=o-20";
unicode = 0063;
},
{
color = 4;
glyphname = d;
lastChange = "2016-07-31 01:33:47 +0000";
layers = (
{
anchors = (
{
name = bottom;
position = "{310, 0}";
},
{
name = center;
position = "{464, 588}";
},
{
name = top;
position = "{344, 494}";
},
{
name = topright;
position = "{588, 494}";
}
);
layerId = "67BB2AE4-562A-42A4-A220-84C7D1DB401D";
paths = (
{
closed = 1;
nodes = (
"308 0 LINE SMOOTH",
"441 0 OFFCURVE",
"493 52 OFFCURVE",
"509 149 CURVE SMOOTH",
"513 172 OFFCURVE",
"529 186 OFFCURVE",
"504 186 CURVE SMOOTH",
"481 186 OFFCURVE",
"470 175 OFFCURVE",
"470 153 CURVE SMOOTH",
"470 98 OFFCURVE",
"402 72 OFFCURVE",
"308 72 CURVE SMOOTH",
"270 72 LINE SMOOTH",
"180 72 OFFCURVE",
"152 100 OFFCURVE",
"152 190 CURVE SMOOTH",
"152 304 LINE SMOOTH",
"152 394 OFFCURVE",
"180 422 OFFCURVE",
"270 422 CURVE SMOOTH",
"470 422 LINE SMOOTH",
"493 422 OFFCURVE",
"506 435 OFFCURVE",
"506 458 CURVE SMOOTH",
"506 481 OFFCURVE",
"493 494 OFFCURVE",
"470 494 CURVE SMOOTH",
"270 494 LINE SMOOTH",
"140 494 OFFCURVE",
"80 434 OFFCURVE",
"80 304 CURVE SMOOTH",
"80 190 LINE SMOOTH",
"80 60 OFFCURVE",
"140 0 OFFCURVE",
"270 0 CURVE SMOOTH"
);
},
{
closed = 1;
nodes = (
"542 36 CURVE SMOOTH",
"542 664 LINE SMOOTH",
"542 687 OFFCURVE",
"529 700 OFFCURVE",
"506 700 CURVE SMOOTH",
"483 700 OFFCURVE",
"470 687 OFFCURVE",
"470 664 CURVE SMOOTH",
"470 36 LINE SMOOTH",
"470 13 OFFCURVE",
"483 0 OFFCURVE",
"506 0 CURVE SMOOTH",
"529 0 OFFCURVE",
"542 13 OFFCURVE"
);
}
);
width = 632;
}
);
leftKerningGroup = o;
leftMetricsKey = o;
rightKerningGroup = d;
rightMetricsKey = n;
unicode = 0064;
},
{
color = 4;
glyphname = eth;
layers = (
{
layerId = "67BB2AE4-562A-42A4-A220-84C7D1DB401D";
paths = (
{
closed = 1;
nodes = (
"169 727 LINE SMOOTH",
"146 733 OFFCURVE",
"131 724 OFFCURVE",
"125 701 CURVE SMOOTH",
"119 678 OFFCURVE",
"128 663 OFFCURVE",
"151 657 CURVE SMOOTH",
"384 598 LINE SMOOTH",
"426 588 OFFCURVE",
"452 555 OFFCURVE",
"463 449 CURVE",
"434 479 OFFCURVE",
"397 494 OFFCURVE",
"352 494 CURVE SMOOTH",
"270 494 LINE SMOOTH",
"140 494 OFFCURVE",
"80 435 OFFCURVE",
"80 304 CURVE SMOOTH",
"80 189 LINE SMOOTH",
"80 60 OFFCURVE",
"140 0 OFFCURVE",
"270 0 CURVE SMOOTH",
"352 0 LINE SMOOTH",
"482 0 OFFCURVE",
"542 60 OFFCURVE",
"542 190 CURVE SMOOTH",
"542 331 LINE SMOOTH",
"538 547 OFFCURVE",
"498 645 OFFCURVE",
"402 668 CURVE SMOOTH"
);
},
{
closed = 1;
nodes = (
"470 100 OFFCURVE",
"442 72 OFFCURVE",
"352 72 CURVE SMOOTH",
"270 72 LINE SMOOTH",
"180 72 OFFCURVE",
"152 100 OFFCURVE",
"152 189 CURVE SMOOTH",
"152 304 LINE SMOOTH",
"152 395 OFFCURVE",
"180 422 OFFCURVE",
"270 422 CURVE SMOOTH",
"352 422 LINE SMOOTH",
"442 422 OFFCURVE",
"470 394 OFFCURVE",
"470 304 CURVE SMOOTH",
"470 190 LINE SMOOTH"
);
},
{
closed = 1;
nodes = (
"394 701 LINE SMOOTH",
"409 715 OFFCURVE",
"409 731 OFFCURVE",
"395 746 CURVE SMOOTH",
"381 761 OFFCURVE",
"365 762 OFFCURVE",
"350 747 CURVE SMOOTH",
"201 607 LINE SMOOTH",
"186 593 OFFCURVE",
"186 577 OFFCURVE",
"200 562 CURVE SMOOTH",
"214 547 OFFCURVE",
"230 546 OFFCURVE",
"245 561 CURVE SMOOTH"
);
}
);
width = 622;
}
);
leftKerningGroup = o;
leftMetricsKey = o;
rightKerningGroup = o;
rightMetricsKey = o;
unicode = 00F0;
},
{
color = 4;
glyphname = e;
layers = (
{
anchors = (
{
name = bottom;
position = "{314, 0}";
},
{
name = ogonek;
position = "{491, 61}";
},
{
name = top;
position = "{314, 494}";
}
);
layerId = "67BB2AE4-562A-42A4-A220-84C7D1DB401D";
paths = (
{
closed = 1;
nodes = (
"352 0 LINE SMOOTH",
"465 0 OFFCURVE",
"526 39 OFFCURVE",
"539 123 CURVE SMOOTH",
"543 147 OFFCURVE",
"529 160 OFFCURVE",
"505 160 CURVE SMOOTH",
"482 160 OFFCURVE",
"472 148 OFFCURVE",
"467 126 CURVE SMOOTH",
"457 86 OFFCURVE",
"426 72 OFFCURVE",
"352 72 CURVE SMOOTH",
"270 72 LINE SMOOTH",
"180 72 OFFCURVE",
"152 100 OFFCURVE",
"152 189 CURVE SMOOTH",
"152 304 LINE SMOOTH",
"152 395 OFFCURVE",
"180 423 OFFCURVE",
"270 422 CURVE SMOOTH",
"352 422 LINE SMOOTH",
"442 422 OFFCURVE",
"470 394 OFFCURVE",
"470 304 CURVE SMOOTH",
"470 290 LINE",
"152 290 LINE SMOOTH",
"129 290 OFFCURVE",
"116 278 OFFCURVE",
"116 254 CURVE SMOOTH",
"116 231 OFFCURVE",
"129 218 OFFCURVE",
"152 218 CURVE SMOOTH",
"506 218 LINE SMOOTH",
"529 218 OFFCURVE",
"542 231 OFFCURVE",
"542 254 CURVE SMOOTH",
"542 304 LINE",
"542 434 OFFCURVE",
"482 494 OFFCURVE",
"352 494 CURVE SMOOTH",
"270 494 LINE SMOOTH",
"140 495 OFFCURVE",
"80 435 OFFCURVE",
"80 304 CURVE SMOOTH",
"80 189 LINE SMOOTH",
"80 60 OFFCURVE",
"140 0 OFFCURVE",
"270 0 CURVE SMOOTH"
);
}
);
width = 622;
}
);
leftKerningGroup = o;
leftMetricsKey = o;
rightKerningGroup = o;
rightMetricsKey = o;
unicode = 0065;
},
{
color = 4;
glyphname = f;
lastChange = "2016-07-31 01:33:47 +0000";
layers = (
{
layerId = "67BB2AE4-562A-42A4-A220-84C7D1DB401D";
paths = (
{
closed = 1;
nodes = (
"187 36 CURVE SMOOTH",
"187 513 LINE",
"187 601 OFFCURVE",
"215 628 OFFCURVE",
"302 628 CURVE SMOOTH",
"322 628 OFFCURVE",
"334 641 OFFCURVE",
"334 664 CURVE SMOOTH",
"334 688 OFFCURVE",
"322 700 OFFCURVE",
"302 700 CURVE SMOOTH",
"174 700 OFFCURVE",
"115 641 OFFCURVE",
"115 513 CURVE SMOOTH",
"115 36 LINE SMOOTH",
"115 13 OFFCURVE",
"128 0 OFFCURVE",
"151 0 CURVE SMOOTH",
"174 0 OFFCURVE",
"187 13 OFFCURVE"
);
},
{
closed = 1;
nodes = (
"298 422 LINE SMOOTH",
"321 422 OFFCURVE",
"334 435 OFFCURVE",
"334 458 CURVE SMOOTH",
"334 481 OFFCURVE",
"321 494 OFFCURVE",
"298 494 CURVE SMOOTH",
"76 494 LINE SMOOTH",
"53 494 OFFCURVE",
"40 481 OFFCURVE",
"40 458 CURVE SMOOTH",
"40 435 OFFCURVE",
"53 422 OFFCURVE",
"76 422 CURVE SMOOTH"
);
}
);
width = 364;
}
);
leftKerningGroup = f;
rightKerningGroup = f;
unicode = 0066;
},
{
color = 4;
glyphname = g;
lastChange = "2016-07-31 01:33:47 +0000";
layers = (
{
anchors = (
{
name = bottom;
position = "{311, -200}";
},
{
name = top;
position = "{309, 494}";
}
);
layerId = "67BB2AE4-562A-42A4-A220-84C7D1DB401D";
paths = (
{
closed = 1;
nodes = (
"404 -200 LINE SMOOTH",
"498 -200 OFFCURVE",
"542 -156 OFFCURVE",
"542 -62 CURVE SMOOTH",
"542 458 LINE SMOOTH",
"542 481 OFFCURVE",
"529 494 OFFCURVE",
"506 494 CURVE SMOOTH",
"483 494 OFFCURVE",
"470 481 OFFCURVE",
"470 458 CURVE SMOOTH",
"470 -62 LINE SMOOTH",
"470 -115 OFFCURVE",
"457 -128 OFFCURVE",
"404 -128 CURVE SMOOTH",
"218 -128 LINE SMOOTH",
"179 -128 OFFCURVE",
"162 -121 OFFCURVE",
"155 -97 CURVE SMOOTH",
"148 -74 OFFCURVE",
"140 -62 OFFCURVE",
"118 -62 CURVE SMOOTH",
"93 -62 OFFCURVE",
"79 -76 OFFCURVE",
"83 -100 CURVE SMOOTH",
"94 -168 OFFCURVE",
"138 -200 OFFCURVE",
"218 -200 CURVE SMOOTH"
);
},
{
closed = 1;
nodes = (
"308 0 LINE SMOOTH",
"424 0 OFFCURVE",
"495 56 OFFCURVE",
"509 159 CURVE SMOOTH",
"510 176 OFFCURVE",
"508 186 OFFCURVE",
"505 186 CURVE SMOOTH",
"481 186 OFFCURVE",
"470 175 OFFCURVE",
"470 153 CURVE SMOOTH",
"470 97 OFFCURVE",
"402 72 OFFCURVE",
"308 72 CURVE SMOOTH",
"270 72 LINE SMOOTH",
"180 72 OFFCURVE",
"152 100 OFFCURVE",
"152 189 CURVE SMOOTH",
"152 304 LINE SMOOTH",
"152 395 OFFCURVE",
"180 423 OFFCURVE",
"270 422 CURVE SMOOTH",
"352 422 LINE SMOOTH",
"428 422 OFFCURVE",
"470 402 OFFCURVE",
"470 340 CURVE SMOOTH",
"470 316 OFFCURVE",
"482 304 OFFCURVE",
"505.008 304 CURVE SMOOTH",
"508 304 OFFCURVE",
"511 314 OFFCURVE",
"510 331 CURVE SMOOTH",
"501 442 OFFCURVE",
"450 494 OFFCURVE",
"352 494 CURVE SMOOTH",
"270 494 LINE SMOOTH",
"140 495 OFFCURVE",
"80 435 OFFCURVE",
"80 304 CURVE SMOOTH",
"80 189 LINE SMOOTH",
"80 60 OFFCURVE",
"140 0 OFFCURVE",
"270 0 CURVE SMOOTH"
);
}
);
width = 632;
}
);
leftKerningGroup = o;
leftMetricsKey = o;
rightKerningGroup = u;
rightMetricsKey = n;
unicode = 0067;
},
{
color = 4;
glyphname = h;
lastChange = "2016-07-31 01:33:47 +0000";
layers = (
{
anchors = (
{
name = bottom;
position = "{331, 0}";
},
{
name = center;
position = "{186, 580}";
},
{
name = top;
position = "{137, 700}";
}
);
layerId = "67BB2AE4-562A-42A4-A220-84C7D1DB401D";
paths = (
{
closed = 1;
nodes = (
"552 36 CURVE SMOOTH",
"552 304 LINE SMOOTH",
"552 434 OFFCURVE",
"492 494 OFFCURVE",
"362 494 CURVE SMOOTH",
"334 494 LINE SMOOTH",
"201 494 OFFCURVE",
"119 442 OFFCURVE",
"103 345 CURVE SMOOTH",
"99 322 OFFCURVE",
"113 308 OFFCURVE",
"137 308 CURVE SMOOTH",
"161 308 OFFCURVE",
"170 320 OFFCURVE",
"176 341 CURVE SMOOTH",
"189 396 OFFCURVE",
"240 422 OFFCURVE",
"334 422 CURVE SMOOTH",
"362 422 LINE SMOOTH",
"452 422 OFFCURVE",
"480 394 OFFCURVE",
"480 304 CURVE SMOOTH",
"480 36 LINE SMOOTH",
"480 13 OFFCURVE",
"493 0 OFFCURVE",
"516 0 CURVE SMOOTH",
"539 0 OFFCURVE",
"552 13 OFFCURVE"
);
},
{
closed = 1;
nodes = (
"172 36 CURVE SMOOTH",
"172 664 LINE SMOOTH",
"172 687 OFFCURVE",
"159 700 OFFCURVE",
"136 700 CURVE SMOOTH",
"113 700 OFFCURVE",
"100 687 OFFCURVE",
"100 664 CURVE SMOOTH",
"100 36 LINE SMOOTH",
"100 13 OFFCURVE",
"113 0 OFFCURVE",
"136 0 CURVE SMOOTH",
"159 0 OFFCURVE",
"172 13 OFFCURVE"
);
}
);
width = 642;
}
);
leftKerningGroup = h;
leftMetricsKey = n;
rightKerningGroup = n;
rightMetricsKey = n;
unicode = 0068;
},
{
color = 4;
glyphname = idotless;
layers = (
{
anchors = (
{
name = bottom;
position = "{135, 0}";
},
{
name = ogonek;
position = "{116, 5}";
},
{
name = top;
position = "{135, 494}";
}
);
layerId = "67BB2AE4-562A-42A4-A220-84C7D1DB401D";
paths = (
{
closed = 1;
nodes = (
"159 0 OFFCURVE",
"172 13 OFFCURVE",
"172 36 CURVE SMOOTH",
"172 458 LINE SMOOTH",
"172 481 OFFCURVE",
"159 494 OFFCURVE",
"136 494 CURVE SMOOTH",
"113 494 OFFCURVE",
"100 481 OFFCURVE",
"100 458 CURVE SMOOTH",
"100 36 LINE SMOOTH",
"100 13 OFFCURVE",
"113 0 OFFCURVE",
"136 0 CURVE SMOOTH"
);
}
);
width = 272;
}
);
leftKerningGroup = n;
leftMetricsKey = n;
rightKerningGroup = u;
rightMetricsKey = u;
unicode = 0131;
},
{
color = 4;
glyphname = jdotless;
layers = (
{
anchors = (
{
name = bottom;
position = "{26, -200}";
},
{
name = top;
position = "{136, 494}";
}
);
layerId = "67BB2AE4-562A-42A4-A220-84C7D1DB401D";
paths = (
{
closed = 1;
nodes = (
"-10 -187 OFFCURVE",
"2 -200 OFFCURVE",
"26 -200 CURVE SMOOTH",
"125 -200 OFFCURVE",
"172 -153 OFFCURVE",
"172 -54 CURVE SMOOTH",
"172 458 LINE SMOOTH",
"172 481 OFFCURVE",
"159 494 OFFCURVE",
"136 494 CURVE SMOOTH",
"113 494 OFFCURVE",
"100 481 OFFCURVE",
"100 458 CURVE SMOOTH",
"100 -54 LINE SMOOTH",
"100 -112 OFFCURVE",
"84 -128 OFFCURVE",
"26 -128 CURVE SMOOTH",
"3 -128 OFFCURVE",
"-10 -141 OFFCURVE",
"-10 -164 CURVE SMOOTH"
);
}
);
width = 272;
}
);
leftKerningGroup = jdotless;
rightKerningGroup = jdotless;
rightMetricsKey = idotless;
unicode = 0237;
},
{
color = 4;
glyphname = k;
lastChange = "2016-07-31 01:33:47 +0000";
layers = (
{
anchors = (
{
name = bottom;
position = "{249, 0}";
},
{
name = top;
position = "{136, 700}";
}
);
layerId = "67BB2AE4-562A-42A4-A220-84C7D1DB401D";
paths = (
{
closed = 1;
nodes = (
"463 429 LINE SMOOTH",
"480 444 OFFCURVE",
"482 462 OFFCURVE",
"467 479 CURVE SMOOTH",
"451 497 OFFCURVE",
"434 499 OFFCURVE",
"416 483 CURVE SMOOTH",
"119 228 LINE SMOOTH",
"101 213 OFFCURVE",
"100 195 OFFCURVE",
"116 177 CURVE SMOOTH",
"132 159 OFFCURVE",
"149 158 OFFCURVE",
"166 173 CURVE SMOOTH"
);
},
{
closed = 1;
nodes = (
"172 36 CURVE SMOOTH",
"172 664 LINE SMOOTH",
"172 687 OFFCURVE",
"159 700 OFFCURVE",
"136 700 CURVE SMOOTH",
"113 700 OFFCURVE",
"100 687 OFFCURVE",
"100 664 CURVE SMOOTH",
"100 36 LINE SMOOTH",
"100 13 OFFCURVE",
"113 0 OFFCURVE",
"136 0 CURVE SMOOTH",
"159 0 OFFCURVE",
"172 13 OFFCURVE"
);
},
{
closed = 1;
nodes = (
"464 62 CURVE SMOOTH",
"278 273 LINE SMOOTH",
"263 290 OFFCURVE",
"245 291 OFFCURVE",
"227 276 CURVE SMOOTH",
"209 261 OFFCURVE",
"208 243 OFFCURVE",
"224 225 CURVE SMOOTH",
"410 14 LINE SMOOTH",
"426 -3 OFFCURVE",
"444 -4 OFFCURVE",
"461 11 CURVE SMOOTH",
"479 27 OFFCURVE",
"480 44 OFFCURVE"
);
}
);
width = 497;
}
);
leftKerningGroup = h;
leftMetricsKey = n;
rightKerningGroup = k;
unicode = 006B;
},
{
color = 4;
glyphname = kgreenlandic;
layers = (
{
anchors = (
{
name = bottom;
position = "{259, 0}";
},
{
name = top;
position = "{259, 494}";
}
);
layerId = "67BB2AE4-562A-42A4-A220-84C7D1DB401D";
paths = (
{
closed = 1;
nodes = (
"463 429 LINE SMOOTH",
"480 444 OFFCURVE",
"482 462 OFFCURVE",
"467 479 CURVE SMOOTH",
"451 497 OFFCURVE",
"434 499 OFFCURVE",
"416 483 CURVE SMOOTH",
"119 228 LINE SMOOTH",
"101 213 OFFCURVE",
"100 195 OFFCURVE",
"116 177 CURVE SMOOTH",
"132 159 OFFCURVE",
"149 158 OFFCURVE",
"166 173 CURVE SMOOTH"
);
},
{
closed = 1;
nodes = (
"159 0 OFFCURVE",
"172 13 OFFCURVE",
"172 36 CURVE SMOOTH",
"172 458 LINE SMOOTH",
"172 481 OFFCURVE",
"159 494 OFFCURVE",
"136 494 CURVE SMOOTH",
"113 494 OFFCURVE",
"100 481 OFFCURVE",
"100 458 CURVE SMOOTH",
"100 36 LINE SMOOTH",
"100 13 OFFCURVE",
"113 0 OFFCURVE",
"136 0 CURVE SMOOTH"
);
},
{
closed = 1;
nodes = (
"479 27 OFFCURVE",
"480 44 OFFCURVE",
"464 62 CURVE SMOOTH",
"278 273 LINE SMOOTH",
"263 290 OFFCURVE",
"245 291 OFFCURVE",
"227 276 CURVE SMOOTH",
"209 261 OFFCURVE",
"208 243 OFFCURVE",
"224 225 CURVE SMOOTH",
"410 14 LINE SMOOTH",
"426 -3 OFFCURVE",
"444 -4 OFFCURVE",
"461 11 CURVE SMOOTH"
);
}
);
width = 497;
}
);
leftKerningGroup = n;
leftMetricsKey = n;
rightKerningGroup = k;
rightMetricsKey = k;
unicode = 0138;
},
{
color = 4;
glyphname = l;
lastChange = "2016-07-31 01:33:47 +0000";
layers = (
{
anchors = (
{
name = bottom;
position = "{206, 0}";
},
{
name = center;
position = "{154, 357}";
},
{
name = top;
position = "{136, 700}";
},
{
name = topright;
position = "{216, 494}";
}
);
layerId = "67BB2AE4-562A-42A4-A220-84C7D1DB401D";
paths = (
{
closed = 1;
nodes = (
"283 36 CURVE SMOOTH",
"283 59 OFFCURVE",
"270 72 OFFCURVE",
"246 72 CURVE SMOOTH",
"188 72 OFFCURVE",
"172 88 OFFCURVE",
"172 146 CURVE SMOOTH",
"172 664 LINE SMOOTH",
"172 687 OFFCURVE",
"159 700 OFFCURVE",
"136 700 CURVE SMOOTH",
"113 700 OFFCURVE",
"100 687 OFFCURVE",
"100 664 CURVE SMOOTH",
"100 146 LINE SMOOTH",
"100 47 OFFCURVE",
"147 0 OFFCURVE",
"246 0 CURVE SMOOTH",
"270 0 OFFCURVE",
"283 13 OFFCURVE"
);
}
);
width = 323;
}
);
leftKerningGroup = h;
leftMetricsKey = n;
rightKerningGroup = l;
unicode = 006C;
},
{
color = 4;
glyphname = lslash;
layers = (
{
anchors = (
{
name = _center;
position = "{146, 357}";
}
);
components = (
{
name = l;
}
);
layerId = "67BB2AE4-562A-42A4-A220-84C7D1DB401D";
paths = (
{
closed = 1;
nodes = (
"33 237 OFFCURVE",
"38 238 OFFCURVE",
"43 242 CURVE SMOOTH",
"281 420 LINE SMOOTH",
"288 425 OFFCURVE",
"292 432 OFFCURVE",
"292 441 CURVE SMOOTH",
"292 455 OFFCURVE",
"280 467 OFFCURVE",
"266 467 CURVE SMOOTH",
"260 467 OFFCURVE",
"255 466 OFFCURVE",
"250 462 CURVE SMOOTH",
"12 284 LINE SMOOTH",
"5 279 OFFCURVE",
"1 272 OFFCURVE",
"1 263 CURVE SMOOTH",
"1 249 OFFCURVE",
"13 237 OFFCURVE",
"27 237 CURVE SMOOTH"
);
}
);
width = 332;
}
);
leftKerningGroup = hbar;
rightKerningGroup = l;
unicode = 0142;
},
{
color = 4;
glyphname = m;
layers = (
{
anchors = (
{
name = bottom;
position = "{456, 0}";
},
{
name = top;
position = "{456, 494}";
}
);
layerId = "67BB2AE4-562A-42A4-A220-84C7D1DB401D";
paths = (
{
closed = 1;
nodes = (
"172 36 CURVE SMOOTH",
"172 308 LINE SMOOTH",
"172 389 OFFCURVE",
"204 422 OFFCURVE",
"284 422 CURVE SMOOTH",
"325 422 LINE SMOOTH",
"393 422 OFFCURVE",
"420 389 OFFCURVE",
"420 308 CURVE SMOOTH",
"420 36 LINE SMOOTH",
"420 12 OFFCURVE",
"432 0 OFFCURVE",
"456 0 CURVE SMOOTH",
"480 0 OFFCURVE",
"492 12 OFFCURVE",
"492 36 CURVE SMOOTH",
"492 308 LINE SMOOTH",
"492 389 OFFCURVE",
"524 422 OFFCURVE",
"604 422 CURVE SMOOTH",
"645 422 LINE SMOOTH",
"713 422 OFFCURVE",
"740 389 OFFCURVE",
"740 308 CURVE SMOOTH",
"740 36 LINE SMOOTH",
"740 12 OFFCURVE",
"752 0 OFFCURVE",
"776 0 CURVE SMOOTH",
"800 0 OFFCURVE",
"812 12 OFFCURVE",
"812 36 CURVE SMOOTH",
"812 308 LINE SMOOTH",
"812 441 OFFCURVE",
"764 494 OFFCURVE",
"645 494 CURVE SMOOTH",
"604 494 LINE SMOOTH",
"536 494 OFFCURVE",
"499 470 OFFCURVE",
"466 410 CURVE",
"476 407 LINE",
"452 469 OFFCURVE",
"409 494 OFFCURVE",
"325 494 CURVE SMOOTH",
"304 494 LINE SMOOTH",
"244 494 OFFCURVE",
"205 475 OFFCURVE",
"172 429 CURVE",
"172 458 LINE SMOOTH",
"172 482 OFFCURVE",
"159 494 OFFCURVE",
"136 494 CURVE SMOOTH",
"112 494 OFFCURVE",
"100 482 OFFCURVE",
"100 458 CURVE SMOOTH",
"100 36 LINE SMOOTH",
"100 12 OFFCURVE",
"112 0 OFFCURVE",
"136 0 CURVE SMOOTH",
"160 0 OFFCURVE",
"172 12 OFFCURVE"
);
}
);
width = 902;
}
);
leftKerningGroup = n;
leftMetricsKey = n;
rightKerningGroup = n;
rightMetricsKey = n;
unicode = 006D;
},
{
color = 4;
glyphname = n;
lastChange = "2016-07-31 01:33:47 +0000";
layers = (
{
anchors = (
{
name = bottom;
position = "{347, 0}";
},
{
name = top;
position = "{347, 494}";
}
);
layerId = "67BB2AE4-562A-42A4-A220-84C7D1DB401D";
paths = (
{
closed = 1;
nodes = (
"552 36 CURVE SMOOTH",
"552 304 LINE SMOOTH",
"552 434 OFFCURVE",
"492 494 OFFCURVE",
"362 494 CURVE SMOOTH",
"334 494 LINE SMOOTH",
"218 494 OFFCURVE",
"147 438 OFFCURVE",
"133 335 CURVE SMOOTH",
"132 318 OFFCURVE",
"134 308 OFFCURVE",
"138 308 CURVE SMOOTH",
"161 308 OFFCURVE",
"172 319 OFFCURVE",
"172 341 CURVE SMOOTH",
"172 396 OFFCURVE",
"240 422 OFFCURVE",
"334 422 CURVE SMOOTH",
"362 422 LINE SMOOTH",
"452 422 OFFCURVE",
"480 394 OFFCURVE",
"480 304 CURVE SMOOTH",
"480 36 LINE SMOOTH",
"480 13 OFFCURVE",
"493 0 OFFCURVE",
"516 0 CURVE SMOOTH",
"539 0 OFFCURVE",
"552 13 OFFCURVE"
);
},
{
closed = 1;
nodes = (
"172 36 CURVE SMOOTH",
"172 458 LINE SMOOTH",
"172 481 OFFCURVE",
"159 494 OFFCURVE",
"136 494 CURVE SMOOTH",
"113 494 OFFCURVE",
"100 481 OFFCURVE",
"100 458 CURVE SMOOTH",
"100 36 LINE SMOOTH",
"100 13 OFFCURVE",
"113 0 OFFCURVE",
"136 0 CURVE SMOOTH",
"159 0 OFFCURVE",
"172 13 OFFCURVE"
);
}
);
width = 642;
}
);
leftKerningGroup = n;
rightKerningGroup = n;
unicode = 006E;
},
{
color = 4;
glyphname = eng;
layers = (
{
components = (
{
name = n;
}
);
layerId = "67BB2AE4-562A-42A4-A220-84C7D1DB401D";
paths = (
{
closed = 1;
nodes = (
"414 -200 LINE SMOOTH",
"508 -200 OFFCURVE",
"552 -156 OFFCURVE",
"552 -62 CURVE SMOOTH",
"552 228 LINE SMOOTH",
"552 251 OFFCURVE",
"539 264 OFFCURVE",
"516 264 CURVE SMOOTH",
"493 264 OFFCURVE",
"480 251 OFFCURVE",
"480 228 CURVE SMOOTH",
"480 -62 LINE SMOOTH",
"480 -115 OFFCURVE",
"467 -128 OFFCURVE",
"414 -128 CURVE SMOOTH",
"318 -128 LINE SMOOTH",
"279 -128 OFFCURVE",
"262 -121 OFFCURVE",
"255 -97 CURVE SMOOTH",
"248 -74 OFFCURVE",
"240 -62 OFFCURVE",
"218 -62 CURVE SMOOTH",
"193 -62 OFFCURVE",
"179 -76 OFFCURVE",
"183 -100 CURVE SMOOTH",
"194 -168 OFFCURVE",
"238 -200 OFFCURVE",
"318 -200 CURVE SMOOTH"
);
}
);
width = 642;
}
);
leftKerningGroup = n;
rightKerningGroup = j;
unicode = 014B;
},
{
color = 4;
glyphname = o;
layers = (
{
anchors = (
{
name = bottom;
position = "{311, 0}";
},
{
name = center;
position = "{311, 247}";
},
{
name = ogonek;
position = "{469, 36}";
},
{
name = top;
position = "{311, 494}";
},
{
name = topright;
position = "{473, 446}";
}
);
layerId = "67BB2AE4-562A-42A4-A220-84C7D1DB401D";
paths = (
{
closed = 1;
nodes = (
"352 0 LINE SMOOTH",
"482 0 OFFCURVE",
"542 60 OFFCURVE",
"542 190 CURVE SMOOTH",
"542 304 LINE SMOOTH",
"542 434 OFFCURVE",
"482 494 OFFCURVE",
"352 494 CURVE SMOOTH",
"270 494 LINE SMOOTH",
"140 494 OFFCURVE",
"80 435 OFFCURVE",
"80 304 CURVE SMOOTH",
"80 189 LINE SMOOTH",
"80 60 OFFCURVE",
"140 0 OFFCURVE",
"270 0 CURVE SMOOTH"
);
},
{
closed = 1;
nodes = (
"152 189 CURVE SMOOTH",
"152 304 LINE SMOOTH",
"152 395 OFFCURVE",
"180 422 OFFCURVE",
"270 422 CURVE SMOOTH",
"352 422 LINE SMOOTH",
"442 422 OFFCURVE",
"470 394 OFFCURVE",
"470 304 CURVE SMOOTH",
"470 190 LINE SMOOTH",
"470 100 OFFCURVE",
"442 72 OFFCURVE",
"352 72 CURVE SMOOTH",
"270 72 LINE SMOOTH",
"180 72 OFFCURVE",
"152 100 OFFCURVE"
);
}
);
width = 622;
}
);
leftKerningGroup = o;
rightKerningGroup = o;
unicode = 006F;
},
{
color = 4;
glyphname = oslash;
layers = (
{
anchors = (
{
name = top;
position = "{311, 494}";
}
);
components = (
{
name = o;
}
);
layerId = "67BB2AE4-562A-42A4-A220-84C7D1DB401D";
paths = (
{
closed = 1;
nodes = (
"136 -73 OFFCURVE",
"151 -69 OFFCURVE",
"162 -51 CURVE SMOOTH",
"210 27 LINE",
"219 44 LINE",
"453 419 LINE",
"465 433 LINE",
"500 490 LINE SMOOTH",
"511 508 OFFCURVE",
"508 523 OFFCURVE",
"490 534 CURVE SMOOTH",
"472 545 OFFCURVE",
"457 541 OFFCURVE",
"446 524 CURVE SMOOTH",
"408 462 LINE",
"403 450 LINE",
"162 63 LINE",
"150 51 LINE",
"107 -18 LINE SMOOTH",
"96 -36 OFFCURVE",
"100 -51 OFFCURVE",
"118 -62 CURVE SMOOTH"
);
}
);
width = 622;
}
);
leftKerningGroup = o;
rightKerningGroup = o;
unicode = 00F8;
},
{
color = 4;
glyphname = oe;
layers = (
{
anchors = (
{
name = bottom;
position = "{486, 0}";
},
{
name = top;
position = "{486, 494}";
}
);
layerId = "67BB2AE4-562A-42A4-A220-84C7D1DB401D";
paths = (
{
closed = 1;
nodes = (
"322 -14 LINE SMOOTH",
"394 -14 OFFCURVE",
"445 5 OFFCURVE",
"476 64 CURVE",
"506 5 OFFCURVE",
"555 -14 OFFCURVE",
"625 -14 CURVE SMOOTH",
"686 -14 LINE SMOOTH",
"812 -14 OFFCURVE",
"872 33 OFFCURVE",
"872 137 CURVE SMOOTH",
"872 157 OFFCURVE",
"856 173 OFFCURVE",
"836 173 CURVE SMOOTH",
"816 173 OFFCURVE",
"800 157 OFFCURVE",
"800 137 CURVE SMOOTH",
"800 78 OFFCURVE",
"775 58 OFFCURVE",
"686 58 CURVE SMOOTH",
"625 58 LINE SMOOTH",
"540 58 OFFCURVE",
"512 86 OFFCURVE",
"512 178 CURVE SMOOTH",
"512 226 LINE",
"835 226 LINE SMOOTH",
"859 226 OFFCURVE",
"872 239 OFFCURVE",
"872 262 CURVE SMOOTH",
"872 409 OFFCURVE",
"814 477 OFFCURVE",
"686 477 CURVE SMOOTH",
"626 477 LINE SMOOTH",
"555 478 OFFCURVE",
"505 459 OFFCURVE",
"475 400 CURVE",
"445 459 OFFCURVE",
"394 477 OFFCURVE",
"322 477 CURVE SMOOTH",
"270 477 LINE SMOOTH",
"140 478 OFFCURVE",
"80 418 OFFCURVE",
"80 287 CURVE SMOOTH",
"80 175 LINE SMOOTH",
"80 46 OFFCURVE",
"140 -14 OFFCURVE",
"270 -14 CURVE SMOOTH"
);
},
{
closed = 1;
nodes = (
"180 58 OFFCURVE",
"152 86 OFFCURVE",
"152 175 CURVE SMOOTH",
"152 287 LINE SMOOTH",
"152 378 OFFCURVE",
"180 406 OFFCURVE",
"270 405 CURVE SMOOTH",
"322 405 LINE SMOOTH",
"412 405 OFFCURVE",
"440 377 OFFCURVE",
"440 287 CURVE SMOOTH",
"440 176 LINE SMOOTH",
"440 86 OFFCURVE",
"412 58 OFFCURVE",
"322 58 CURVE SMOOTH",
"270 58 LINE SMOOTH"
);
},
{
closed = 1;
nodes = (
"514 381 OFFCURVE",
"543 406 OFFCURVE",
"626 405 CURVE SMOOTH",
"686 405 LINE SMOOTH",
"761 405 OFFCURVE",
"792 379 OFFCURVE",
"799 298 CURVE",
"512 298 LINE"
);
}
);
width = 952;
}
);
leftKerningGroup = o;
leftMetricsKey = o;
rightKerningGroup = e;
rightMetricsKey = e;
unicode = 0153;
},
{
color = 4;
glyphname = p;
layers = (
{
anchors = (
{
name = bottom;
position = "{334, 0}";
},
{
name = bottomleft;
position = "{136, -200}";
},
{
name = center;
position = "{345, 236}";
},
{
name = top;
position = "{353, 494}";
}
);
layerId = "67BB2AE4-562A-42A4-A220-84C7D1DB401D";
paths = (
{
closed = 1;
nodes = (
"372 0 LINE SMOOTH",
"502 0 OFFCURVE",
"562 60 OFFCURVE",
"562 190 CURVE SMOOTH",
"562 304 LINE SMOOTH",
"562 434 OFFCURVE",
"502 494 OFFCURVE",
"372 494 CURVE SMOOTH",
"334 494 LINE SMOOTH",
"218 494 OFFCURVE",
"147 442 OFFCURVE",
"133 345 CURVE SMOOTH",
"132 322 OFFCURVE",
"134 308 OFFCURVE",
"137 308 CURVE SMOOTH",
"161 308 OFFCURVE",
"172 319 OFFCURVE",
"172 341 CURVE SMOOTH",
"172 396 OFFCURVE",
"240 422 OFFCURVE",
"334 422 CURVE SMOOTH",
"372 422 LINE SMOOTH",
"462 422 OFFCURVE",
"490 394 OFFCURVE",
"490 304 CURVE SMOOTH",
"490 190 LINE SMOOTH",
"490 100 OFFCURVE",
"462 72 OFFCURVE",
"372 72 CURVE SMOOTH",
"172 72 LINE SMOOTH",
"149 72 OFFCURVE",
"136 59 OFFCURVE",
"136 36 CURVE SMOOTH",
"136 13 OFFCURVE",
"149 0 OFFCURVE",
"172 0 CURVE SMOOTH"
);
},
{
closed = 1;
nodes = (
"172 -164 CURVE SMOOTH",
"172 458 LINE SMOOTH",
"172 481 OFFCURVE",
"159 494 OFFCURVE",
"136 494 CURVE SMOOTH",
"113 494 OFFCURVE",
"100 481 OFFCURVE",
"100 458 CURVE SMOOTH",
"100 -164 LINE SMOOTH",
"100 -187 OFFCURVE",
"113 -200 OFFCURVE",
"136 -200 CURVE SMOOTH",
"159 -200 OFFCURVE",
"172 -187 OFFCURVE"
);
}
);
width = 642;
}
);
leftKerningGroup = n;
leftMetricsKey = n;
rightKerningGroup = o;
rightMetricsKey = o;
unicode = 0070;
},
{
color = 4;
glyphname = thorn;
layers = (
{
layerId = "67BB2AE4-562A-42A4-A220-84C7D1DB401D";
paths = (
{
closed = 1;
nodes = (
"162 -200 OFFCURVE",
"172 -190 OFFCURVE",
"172 -164 CURVE SMOOTH",
"172 1 LINE",
"372 1 LINE SMOOTH",
"502 1 OFFCURVE",
"562 61 OFFCURVE",
"562 191 CURVE SMOOTH",
"562 302 LINE SMOOTH",
"562 432 OFFCURVE",
"502 492 OFFCURVE",
"372 492 CURVE SMOOTH",
"334 492 LINE SMOOTH",
"266 492 OFFCURVE",
"211 468 OFFCURVE",
"172 422 CURVE",
"172 638 LINE SMOOTH",
"172 664 OFFCURVE",
"162 674 OFFCURVE",
"136 674 CURVE SMOOTH",
"110 674 OFFCURVE",
"100 664 OFFCURVE",
"100 638 CURVE SMOOTH",
"100 -164 LINE SMOOTH",
"100 -190 OFFCURVE",
"110 -200 OFFCURVE",
"136 -200 CURVE SMOOTH"
);
},
{
closed = 1;
nodes = (
"172 306 LINE SMOOTH",
"172 383 OFFCURVE",
"222 420 OFFCURVE",
"334 420 CURVE SMOOTH",
"372 420 LINE SMOOTH",
"462 420 OFFCURVE",
"490 392 OFFCURVE",
"490 302 CURVE SMOOTH",
"490 191 LINE SMOOTH",
"490 101 OFFCURVE",
"462 73 OFFCURVE",
"372 73 CURVE SMOOTH",
"172 73 LINE"
);
}
);
width = 642;
}
);
leftKerningGroup = h;
leftMetricsKey = h;
rightKerningGroup = o;
rightMetricsKey = o;
unicode = 00FE;
},
{
color = 4;
glyphname = q;
layers = (
{
anchors = (
{
name = bottom;
position = "{321, 0}";
},
{
name = top;
position = "{321, 494}";
}
);
layerId = "67BB2AE4-562A-42A4-A220-84C7D1DB401D";
paths = (
{
closed = 1;
nodes = (
"80 304 CURVE SMOOTH",
"80 190 LINE SMOOTH",
"80 60 OFFCURVE",
"140 0 OFFCURVE",
"270 0 CURVE SMOOTH",
"470 0 LINE SMOOTH",
"493 0 OFFCURVE",
"506 13 OFFCURVE",
"506 36 CURVE SMOOTH",
"506 59 OFFCURVE",
"493 72 OFFCURVE",
"470 72 CURVE SMOOTH",
"270 72 LINE SMOOTH",
"180 72 OFFCURVE",
"152 100 OFFCURVE",
"152 190 CURVE SMOOTH",
"152 304 LINE SMOOTH",
"152 394 OFFCURVE",
"180 422 OFFCURVE",
"270 422 CURVE SMOOTH",
"308 422 LINE SMOOTH",
"402 422 OFFCURVE",
"470 396 OFFCURVE",
"470 341 CURVE SMOOTH",
"470 319 OFFCURVE",
"481 308 OFFCURVE",
"504 308 CURVE SMOOTH",
"529 308 OFFCURVE",
"499 311 OFFCURVE",
"499 335 CURVE SMOOTH",
"499 432 OFFCURVE",
"441 494 OFFCURVE",
"308 494 CURVE SMOOTH",
"270 494 LINE SMOOTH",
"140 494 OFFCURVE",
"80 434 OFFCURVE"
);
},
{
closed = 1;
nodes = (
"470 458 CURVE SMOOTH",
"470 -164 LINE SMOOTH",
"470 -187 OFFCURVE",
"483 -200 OFFCURVE",
"506 -200 CURVE SMOOTH",
"529 -200 OFFCURVE",
"542 -187 OFFCURVE",
"542 -164 CURVE SMOOTH",
"542 458 LINE SMOOTH",
"542 481 OFFCURVE",
"529 494 OFFCURVE",
"506 494 CURVE SMOOTH",
"483 494 OFFCURVE",
"470 481 OFFCURVE"
);
}
);
width = 632;
}
);
leftKerningGroup = o;
leftMetricsKey = o;
rightKerningGroup = q;
rightMetricsKey = n;
unicode = 0071;
},
{
color = 4;
glyphname = r;
lastChange = "2016-07-31 01:33:47 +0000";
layers = (
{
anchors = (
{
name = bottom;
position = "{136, 0}";
},
{
name = top;
position = "{241, 494}";
}
);
layerId = "67BB2AE4-562A-42A4-A220-84C7D1DB401D";
paths = (
{
closed = 1;
nodes = (
"172 283 CURVE SMOOTH",
"172 369 OFFCURVE",
"236 422 OFFCURVE",
"357 422 CURVE SMOOTH",
"380 422 OFFCURVE",
"393 435 OFFCURVE",
"393 458 CURVE SMOOTH",
"393 481 OFFCURVE",
"380 494 OFFCURVE",
"357 494 CURVE SMOOTH",
"225 494 OFFCURVE",
"143 415 OFFCURVE",
"130 275 CURVE SMOOTH",
"130 258 OFFCURVE",
"132 248 OFFCURVE",
"135 248 CURVE SMOOTH",
"158 248 OFFCURVE",
"172 260 OFFCURVE"
);
},
{
closed = 1;
nodes = (
"172 36 CURVE SMOOTH",
"172 458 LINE SMOOTH",
"172 481 OFFCURVE",
"159 494 OFFCURVE",
"136 494 CURVE SMOOTH",
"113 494 OFFCURVE",
"100 481 OFFCURVE",
"100 458 CURVE SMOOTH",
"100 36 LINE SMOOTH",
"100 13 OFFCURVE",
"113 0 OFFCURVE",
"136 0 CURVE SMOOTH",
"159 0 OFFCURVE",
"172 13 OFFCURVE"
);
}
);
width = 408;
}
);
leftKerningGroup = n;
leftMetricsKey = n;
rightKerningGroup = r;
unicode = 0072;
},
{
color = 4;
glyphname = s;
layers = (
{
anchors = (
{
name = bottom;
position = "{302, 0}";
},
{
name = top;
position = "{302, 494}";
}
);
layerId = "67BB2AE4-562A-42A4-A220-84C7D1DB401D";
paths = (
{
closed = 1;
nodes = (
"377 0 LINE SMOOTH",
"474 0 OFFCURVE",
"521 47 OFFCURVE",
"521 144 CURVE SMOOTH",
"521 241 OFFCURVE",
"474 288 OFFCURVE",
"377 288 CURVE SMOOTH",
"216 288 LINE SMOOTH",
"163 288 OFFCURVE",
"149 303 OFFCURVE",
"149 355 CURVE SMOOTH",
"149 409 OFFCURVE",
"162 422 OFFCURVE",
"216 422 CURVE SMOOTH",
"372 422 LINE SMOOTH",
"409 422 OFFCURVE",
"426 415 OFFCURVE",
"433 391 CURVE SMOOTH",
"439 369 OFFCURVE",
"448 357 OFFCURVE",
"471 357 CURVE SMOOTH",
"495 357 OFFCURVE",
"510 371 OFFCURVE",
"506 395 CURVE SMOOTH",
"494 461 OFFCURVE",
"450 494 OFFCURVE",
"372 494 CURVE SMOOTH",
"216 494 LINE SMOOTH",
"122 494 OFFCURVE",
"77 449 OFFCURVE",
"77 355 CURVE SMOOTH",
"77 262 OFFCURVE",
"123 216 OFFCURVE",
"216 216 CURVE SMOOTH",
"377 216 LINE SMOOTH",
"433 216 OFFCURVE",
"449 201 OFFCURVE",
"449 144 CURVE SMOOTH",
"449 87 OFFCURVE",
"433 72 OFFCURVE",
"377 72 CURVE SMOOTH",
"213 72 LINE SMOOTH",
"170 72 OFFCURVE",
"151 81 OFFCURVE",
"144 109 CURVE SMOOTH",
"138 132 OFFCURVE",
"129 144 OFFCURVE",
"106 144 CURVE SMOOTH",
"82 144 OFFCURVE",
"67 130 OFFCURVE",
"71 106 CURVE SMOOTH",
"83 35 OFFCURVE",
"129 0 OFFCURVE",
"213 0 CURVE SMOOTH"
);
}
);
width = 591;
}
);
leftKerningGroup = s;
rightKerningGroup = s;
unicode = 0073;
},
{
color = 4;
glyphname = germandbls;
layers = (
{
layerId = "67BB2AE4-562A-42A4-A220-84C7D1DB401D";
paths = (
{
closed = 1;
nodes = (
"160 0 OFFCURVE",
"172 12 OFFCURVE",
"172 36 CURVE SMOOTH",
"172 521 LINE SMOOTH",
"172 603 OFFCURVE",
"197 628 OFFCURVE",
"279 628 CURVE SMOOTH",
"360 628 OFFCURVE",
"385 603 OFFCURVE",
"385 522 CURVE SMOOTH",
"385 454 OFFCURVE",
"368 425 OFFCURVE",
"314 418 CURVE SMOOTH",
"290 415 OFFCURVE",
"279 403 OFFCURVE",
"279 381 CURVE SMOOTH",
"279 356 OFFCURVE",
"291 344 OFFCURVE",
"315 344 CURVE SMOOTH",
"329 344 LINE SMOOTH",
"418 344 OFFCURVE",
"445 317 OFFCURVE",
"445 228 CURVE SMOOTH",
"445 188 LINE SMOOTH",
"445 99 OFFCURVE",
"418 72 OFFCURVE",
"329 72 CURVE SMOOTH",
"268 72 LINE SMOOTH",
"244 72 OFFCURVE",
"232 60 OFFCURVE",
"232 36 CURVE SMOOTH",
"232 12 OFFCURVE",
"244 0 OFFCURVE",
"268 0 CURVE SMOOTH",
"329 0 LINE SMOOTH",
"458 0 OFFCURVE",
"517 59 OFFCURVE",
"517 188 CURVE SMOOTH",
"517 228 LINE SMOOTH",
"517 319 OFFCURVE",
"481 373 OFFCURVE",
"385 395 CURVE",
"440 424 OFFCURVE",
"457 470 OFFCURVE",
"457 522 CURVE SMOOTH",
"457 643 OFFCURVE",
"400 700 OFFCURVE",
"279 700 CURVE SMOOTH",
"157 700 OFFCURVE",
"100 643 OFFCURVE",
"100 521 CURVE SMOOTH",
"100 36 LINE SMOOTH",
"100 12 OFFCURVE",
"112 0 OFFCURVE",
"136 0 CURVE SMOOTH"
);
}
);
width = 567;
}
);
leftKerningGroup = h;
leftMetricsKey = n;
rightKerningGroup = germandbls;
unicode = 00DF;
},
{
color = 4;
glyphname = t;
lastChange = "2016-07-31 01:33:47 +0000";
layers = (
{
anchors = (
{
name = bottom;
position = "{189, 0}";
},
{
name = center;
position = "{187, 311}";
},
{
name = top;
position = "{155, 616}";
},
{
name = topright;
position = "{231, 494}";
}
);
layerId = "67BB2AE4-562A-42A4-A220-84C7D1DB401D";
paths = (
{
closed = 1;
nodes = (
"342 36 CURVE SMOOTH",
"342 61 OFFCURVE",
"329 72 OFFCURVE",
"306 72 CURVE SMOOTH",
"218 72 OFFCURVE",
"191 98 OFFCURVE",
"191 186 CURVE",
"191 580 LINE SMOOTH",
"191 604 OFFCURVE",
"178 616 OFFCURVE",
"155 616 CURVE SMOOTH",
"132 616 OFFCURVE",
"119 604 OFFCURVE",
"119 580 CURVE SMOOTH",
"119 186 LINE SMOOTH",
"119 58 OFFCURVE",
"178 0 OFFCURVE",
"306 0 CURVE SMOOTH",
"329 0 OFFCURVE",
"342 13 OFFCURVE"
);
},
{
closed = 1;
nodes = (
"310 422 LINE SMOOTH",
"333 422 OFFCURVE",
"346 435 OFFCURVE",
"346 458 CURVE SMOOTH",
"346 481 OFFCURVE",
"333 494 OFFCURVE",
"310 494 CURVE SMOOTH",
"66 494 LINE SMOOTH",
"43 494 OFFCURVE",
"30 481 OFFCURVE",
"30 458 CURVE SMOOTH",
"30 435 OFFCURVE",
"43 422 OFFCURVE",
"66 422 CURVE SMOOTH"
);
}
);
width = 396;
}
);
leftKerningGroup = t;
rightKerningGroup = t;
unicode = 0074;
},
{
color = 4;
glyphname = tbar;
layers = (
{
components = (
{
name = t;
}
);
layerId = "67BB2AE4-562A-42A4-A220-84C7D1DB401D";
paths = (
{
closed = 1;
nodes = (
"315 280 LINE SMOOTH",
"335 280 OFFCURVE",
"346 291 OFFCURVE",
"346 311 CURVE SMOOTH",
"346 331 OFFCURVE",
"335 342 OFFCURVE",
"315 342 CURVE SMOOTH",
"61 342 LINE SMOOTH",
"41 342 OFFCURVE",
"30 331 OFFCURVE",
"30 311 CURVE SMOOTH",
"30 291 OFFCURVE",
"41 280 OFFCURVE",
"61 280 CURVE SMOOTH"
);
}
);
width = 386;
}
);
leftKerningGroup = t;
rightKerningGroup = t;
unicode = 0167;
},
{
color = 4;
glyphname = v;
layers = (
{
anchors = (
{
name = bottom;
position = "{258, 0}";
},
{
name = top;
position = "{258, 494}";
}
);
layerId = "67BB2AE4-562A-42A4-A220-84C7D1DB401D";
paths = (
{
closed = 1;
nodes = (
"292 27 CURVE SMOOTH",
"481 442 LINE SMOOTH",
"491 463 OFFCURVE",
"485 480 OFFCURVE",
"464 490 CURVE SMOOTH",
"443 499 OFFCURVE",
"425 492 OFFCURVE",
"416 472 CURVE SMOOTH",
"233 73 LINE",
"269 73 LINE",
"100 471 LINE SMOOTH",
"91 492 OFFCURVE",
"74 499 OFFCURVE",
"53 490 CURVE SMOOTH",
"31 481 OFFCURVE",
"25 464 OFFCURVE",
"34 443 CURVE SMOOTH",
"210 28 LINE SMOOTH",
"218 9 OFFCURVE",
"230 0 OFFCURVE",
"250 0 CURVE SMOOTH",
"270 0 OFFCURVE",
"283 8 OFFCURVE"
);
}
);
width = 516;
}
);
leftKerningGroup = v;
rightKerningGroup = v;
unicode = 0076;
},
{
color = 4;
glyphname = w;
layers = (
{
anchors = (
{
name = bottom;
position = "{362, 0}";
},
{
name = top;
position = "{362, 494}";
}
);
layerId = "67BB2AE4-562A-42A4-A220-84C7D1DB401D";
paths = (
{
closed = 1;
nodes = (
"504 0 CURVE SMOOTH",
"525 0 OFFCURVE",
"538 9 OFFCURVE",
"545 29 CURVE SMOOTH",
"698 445 LINE SMOOTH",
"706 467 OFFCURVE",
"698 483 OFFCURVE",
"676 491 CURVE SMOOTH",
"654 499 OFFCURVE",
"638 492 OFFCURVE",
"630 469 CURVE SMOOTH",
"504 110 LINE",
"513 113 LINE",
"406 464 LINE SMOOTH",
"400 484 OFFCURVE",
"387 494 OFFCURVE",
"367 494 CURVE SMOOTH",
"346 494 OFFCURVE",
"332 485 OFFCURVE",
"326 465 CURVE SMOOTH",
"212 112 LINE",
"220 113 LINE",
"100 468 LINE SMOOTH",
"93 491 OFFCURVE",
"77 499 OFFCURVE",
"55 491 CURVE SMOOTH",
"33 484 OFFCURVE",
"25 468 OFFCURVE",
"32 446 CURVE SMOOTH",
"172 29 LINE SMOOTH",
"179 9 OFFCURVE",
"191 0 OFFCURVE",
"211 0 CURVE SMOOTH",
"229 0 OFFCURVE",
"243 9 OFFCURVE",
"250 29 CURVE",
"380 422 LINE",
"356 381 LINE",
"463 30 LINE SMOOTH",
"469 10 OFFCURVE",
"482 0 OFFCURVE"
);
}
);
width = 731;
}
);
leftKerningGroup = v;
leftMetricsKey = v;
rightKerningGroup = v;
rightMetricsKey = v;
unicode = 0077;
},
{
color = 4;
glyphname = x;
lastChange = "2016-07-31 01:33:47 +0000";
layers = (
{
anchors = (
{
name = bottom;
position = "{260, 0}";
},
{
name = top;
position = "{264, 494}";
}
);
layerId = "67BB2AE4-562A-42A4-A220-84C7D1DB401D";
paths = (
{
closed = 1;
nodes = (
"460 60 CURVE SMOOTH",
"138 478 LINE SMOOTH",
"123 497 OFFCURVE",
"106 499 OFFCURVE",
"87 485 CURVE SMOOTH",
"68 470 OFFCURVE",
"66 453 OFFCURVE",
"80 434 CURVE SMOOTH",
"403 16 LINE SMOOTH",
"417 -3 OFFCURVE",
"435 -5 OFFCURVE",
"454 9 CURVE SMOOTH",
"472 24 OFFCURVE",
"474 41 OFFCURVE"
);
},
{
closed = 1;
nodes = (
"118 17 CURVE SMOOTH",
"270 223 LINE SMOOTH",
"284 242 OFFCURVE",
"282 259 OFFCURVE",
"263 273 CURVE SMOOTH",
"244 287 OFFCURVE",
"227 284 OFFCURVE",
"213 266 CURVE SMOOTH",
"60 60 LINE SMOOTH",
"46 41 OFFCURVE",
"49 23 OFFCURVE",
"68 9 CURVE SMOOTH",
"86 -5 OFFCURVE",
"104 -2 OFFCURVE"
);
},
{
closed = 1;
nodes = (
"304 252 CURVE SMOOTH",
"446 435 LINE SMOOTH",
"460 453 OFFCURVE",
"458 471 OFFCURVE",
"439 485 CURVE SMOOTH",
"421 499 OFFCURVE",
"403 497 OFFCURVE",
"389 479 CURVE SMOOTH",
"247 296 LINE SMOOTH",
"232 277 OFFCURVE",
"235 260 OFFCURVE",
"253 245 CURVE SMOOTH",
"272 231 OFFCURVE",
"289 233 OFFCURVE"
);
}
);
width = 518;
}
);
leftKerningGroup = x;
rightKerningGroup = x;
unicode = 0078;
},
{
color = 4;
glyphname = y;
layers = (
{
anchors = (
{
name = bottom;
position = "{635, 0}";
},
{
name = top;
position = "{321, 494}";
}
);
layerId = "67BB2AE4-562A-42A4-A220-84C7D1DB401D";
paths = (
{
closed = 1;
nodes = (
"414 -200 LINE SMOOTH",
"507 -200 OFFCURVE",
"552 -155 OFFCURVE",
"552 -61 CURVE SMOOTH",
"552 458 LINE SMOOTH",
"552 482 OFFCURVE",
"540 494 OFFCURVE",
"516 494 CURVE SMOOTH",
"492 494 OFFCURVE",
"480 482 OFFCURVE",
"480 458 CURVE SMOOTH",
"480 186 LINE SMOOTH",
"480 109 OFFCURVE",
"430 72 OFFCURVE",
"318 72 CURVE SMOOTH",
"277 72 LINE SMOOTH",
"189 72 OFFCURVE",
"162 98 OFFCURVE",
"162 186 CURVE SMOOTH",
"162 458 LINE SMOOTH",
"162 482 OFFCURVE",
"150 494 OFFCURVE",
"126 494 CURVE SMOOTH",
"102 494 OFFCURVE",
"90 482 OFFCURVE",
"90 458 CURVE SMOOTH",
"90 186 LINE SMOOTH",
"90 58 OFFCURVE",
"149 0 OFFCURVE",
"277 0 CURVE SMOOTH",
"318 0 LINE SMOOTH",
"386 0 OFFCURVE",
"441 14 OFFCURVE",
"480 70 CURVE",
"480 -61 LINE SMOOTH",
"480 -115 OFFCURVE",
"467 -128 OFFCURVE",
"414 -128 CURVE SMOOTH",
"228 -128 LINE SMOOTH",
"175 -128 OFFCURVE",
"162 -115 OFFCURVE",
"162 -61 CURVE SMOOTH",
"162 -37 OFFCURVE",
"150 -25 OFFCURVE",
"126 -25 CURVE SMOOTH",
"102 -25 OFFCURVE",
"90 -37 OFFCURVE",
"90 -61 CURVE SMOOTH",
"90 -155 OFFCURVE",
"135 -200 OFFCURVE",
"228 -200 CURVE SMOOTH"
);
}
);
width = 652;
}
);
leftKerningGroup = u;
leftMetricsKey = u;
rightKerningGroup = u;
rightMetricsKey = u;
unicode = 0079;
},
{
color = 4;
glyphname = z;
lastChange = "2016-07-31 01:33:47 +0000";
layers = (
{
anchors = (
{
name = bottom;
position = "{268, 0}";
},
{
name = top;
position = "{277, 494}";
}
);
layerId = "67BB2AE4-562A-42A4-A220-84C7D1DB401D";
paths = (
{
closed = 1;
nodes = (
"363 0 LINE SMOOTH",
"439 0 OFFCURVE",
"485 35 OFFCURVE",
"498 100 CURVE SMOOTH",
"502 124 OFFCURVE",
"487 138 OFFCURVE",
"463 138 CURVE SMOOTH",
"440 138 OFFCURVE",
"432 126 OFFCURVE",
"425 104 CURVE SMOOTH",
"417 80 OFFCURVE",
"399 72 OFFCURVE",
"363 72 CURVE SMOOTH",
"142 73 LINE",
"156 59 LINE",
"446 421 LINE SMOOTH",
"457 435 OFFCURVE",
"462 446 OFFCURVE",
"462 458 CURVE SMOOTH",
"462 482 OFFCURVE",
"449 494 OFFCURVE",
"426 494 CURVE SMOOTH",
"181 494 LINE SMOOTH",
"101 494 OFFCURVE",
"57 462 OFFCURVE",
"46 394 CURVE SMOOTH",
"42 370 OFFCURVE",
"56 356 OFFCURVE",
"81 356 CURVE SMOOTH",
"103 356 OFFCURVE",
"112 368 OFFCURVE",
"118 391 CURVE SMOOTH",
"125 415 OFFCURVE",
"142 422 OFFCURVE",
"181 422 CURVE SMOOTH",
"384 422 LINE",
"375 439 LINE",
"80 72 LINE SMOOTH",
"69 58 OFFCURVE",
"65 48 OFFCURVE",
"65 36 CURVE SMOOTH",
"65 13 OFFCURVE",
"78 0 OFFCURVE",
"101 0 CURVE SMOOTH"
);
}
);
width = 534;
}
);
leftKerningGroup = z;
rightKerningGroup = z;
unicode = 007A;
},
{
color = 4;
glyphname = a.ss01;
layers = (
{
layerId = "67BB2AE4-562A-42A4-A220-84C7D1DB401D";
paths = (
{
closed = 1;
nodes = (
"308 0 LINE SMOOTH",
"424 0 OFFCURVE",
"495 52 OFFCURVE",
"509 154 CURVE",
"470 153 LINE",
"470 97 OFFCURVE",
"402 72 OFFCURVE",
"308 72 CURVE SMOOTH",
"267 72 LINE SMOOTH",
"179 72 OFFCURVE",
"152 98 OFFCURVE",
"152 186 CURVE SMOOTH",
"152 304 LINE SMOOTH",
"152 398 OFFCURVE",
"176 423 OFFCURVE",
"266 422 CURVE SMOOTH",
"356 422 LINE SMOOTH",
"433 422 OFFCURVE",
"470 404 OFFCURVE",
"470 339 CURVE",
"510 340 LINE",
"502 448 OFFCURVE",
"455 494 OFFCURVE",
"356 494 CURVE SMOOTH",
"266 494 LINE SMOOTH",
"136 495 OFFCURVE",
"80 438 OFFCURVE",
"80 304 CURVE SMOOTH",
"80 186 LINE SMOOTH",
"80 58 OFFCURVE",
"139 0 OFFCURVE",
"267 0 CURVE SMOOTH"
);
},
{
closed = 1;
nodes = (
"583 -1 OFFCURVE",
"597 13 OFFCURVE",
"597 38 CURVE SMOOTH",
"597 61 OFFCURVE",
"585 68 OFFCURVE",
"563 76 CURVE SMOOTH",
"547 82 OFFCURVE",
"542 97 OFFCURVE",
"542 127 CURVE SMOOTH",
"542 458 LINE SMOOTH",
"542 481 OFFCURVE",
"529 494 OFFCURVE",
"506 494 CURVE SMOOTH",
"483 494 OFFCURVE",
"470 481 OFFCURVE",
"470 458 CURVE SMOOTH",
"470 127 LINE SMOOTH",
"470 56 OFFCURVE",
"500 15 OFFCURVE",
"559 3 CURVE SMOOTH"
);
}
);
width = 637;
}
);
leftKerningGroup = o;
leftMetricsKey = o;
rightKerningGroup = l;
rightMetricsKey = l;
},
{
color = 4;
glyphname = f_f;
layers = (
{
components = (
{
name = f;
transform = "{1, 0, 0, 1, 312, 0}";
}
);
layerId = "67BB2AE4-562A-42A4-A220-84C7D1DB401D";
paths = (
{
closed = 1;
nodes = (
"174 0 OFFCURVE",
"187 13 OFFCURVE",
"187 36 CURVE SMOOTH",
"187 513 LINE SMOOTH",
"187 601 OFFCURVE",
"215 628 OFFCURVE",
"302 628 CURVE SMOOTH",
"322 628 OFFCURVE",
"334 641 OFFCURVE",
"334 664 CURVE SMOOTH",
"334 688 OFFCURVE",
"322 700 OFFCURVE",
"302 700 CURVE SMOOTH",
"174 700 OFFCURVE",
"115 641 OFFCURVE",
"115 513 CURVE SMOOTH",
"115 36 LINE SMOOTH",
"115 13 OFFCURVE",
"128 0 OFFCURVE",
"151 0 CURVE SMOOTH"
);
},
{
closed = 1;
nodes = (
"446 422 LINE SMOOTH",
"469 422 OFFCURVE",
"482 435 OFFCURVE",
"482 458 CURVE SMOOTH",
"482 481 OFFCURVE",
"469 494 OFFCURVE",
"446 494 CURVE SMOOTH",
"76 494 LINE SMOOTH",
"53 494 OFFCURVE",
"40 481 OFFCURVE",
"40 458 CURVE SMOOTH",
"40 435 OFFCURVE",
"53 422 OFFCURVE",
"76 422 CURVE SMOOTH"
);
}
);
width = 676;
}
);
leftKerningGroup = f;
leftMetricsKey = f;
rightKerningGroup = f;
rightMetricsKey = f;
},
{
color = 4;
glyphname = f_f_i;
layers = (
{
components = (
{
name = fi;
transform = "{1, 0, 0, 1, 311, 0}";
}
);
layerId = "67BB2AE4-562A-42A4-A220-84C7D1DB401D";
paths = (
{
closed = 1;
nodes = (
"174 0 OFFCURVE",
"187 13 OFFCURVE",
"187 36 CURVE SMOOTH",
"187 513 LINE SMOOTH",
"187 601 OFFCURVE",
"215 628 OFFCURVE",
"302 628 CURVE SMOOTH",
"322 628 OFFCURVE",
"334 641 OFFCURVE",
"334 664 CURVE SMOOTH",
"334 688 OFFCURVE",
"322 700 OFFCURVE",
"302 700 CURVE SMOOTH",
"174 700 OFFCURVE",
"115 641 OFFCURVE",
"115 513 CURVE SMOOTH",
"115 36 LINE SMOOTH",
"115 13 OFFCURVE",
"128 0 OFFCURVE",
"151 0 CURVE SMOOTH"
);
},
{
closed = 1;
nodes = (
"445 422 LINE SMOOTH",
"468 422 OFFCURVE",
"481 435 OFFCURVE",
"481 458 CURVE SMOOTH",
"481 481 OFFCURVE",
"468 494 OFFCURVE",
"445 494 CURVE SMOOTH",
"76 494 LINE SMOOTH",
"53 494 OFFCURVE",
"40 481 OFFCURVE",
"40 458 CURVE SMOOTH",
"40 435 OFFCURVE",
"53 422 OFFCURVE",
"76 422 CURVE SMOOTH"
);
}
);
width = 909;
}
);
leftKerningGroup = f;
leftMetricsKey = f;
rightKerningGroup = dotless;
rightMetricsKey = i;
},
{
color = 4;
glyphname = f_f_l;
layers = (
{
components = (
{
name = fl;
transform = "{1, 0, 0, 1, 302, 0}";
}
);
layerId = "67BB2AE4-562A-42A4-A220-84C7D1DB401D";
paths = (
{
closed = 1;
nodes = (
"174 0 OFFCURVE",
"187 13 OFFCURVE",
"187 36 CURVE SMOOTH",
"187 513 LINE SMOOTH",
"187 601 OFFCURVE",
"215 628 OFFCURVE",
"302 628 CURVE SMOOTH",
"322 628 OFFCURVE",
"334 641 OFFCURVE",
"334 664 CURVE SMOOTH",
"334 688 OFFCURVE",
"322 700 OFFCURVE",
"302 700 CURVE SMOOTH",
"174 700 OFFCURVE",
"115 641 OFFCURVE",
"115 513 CURVE SMOOTH",
"115 36 LINE SMOOTH",
"115 13 OFFCURVE",
"128 0 OFFCURVE",
"151 0 CURVE SMOOTH"
);
},
{
closed = 1;
nodes = (
"415 422 LINE SMOOTH",
"438 422 OFFCURVE",
"451 435 OFFCURVE",
"451 458 CURVE SMOOTH",
"451 481 OFFCURVE",
"438 494 OFFCURVE",
"415 494 CURVE SMOOTH",
"76 494 LINE SMOOTH",
"53 494 OFFCURVE",
"40 481 OFFCURVE",
"40 458 CURVE SMOOTH",
"40 435 OFFCURVE",
"53 422 OFFCURVE",
"76 422 CURVE SMOOTH"
);
}
);
width = 951;
}
);
leftKerningGroup = f;
leftMetricsKey = f;
rightKerningGroup = l;
rightMetricsKey = l;
},
{
color = 4;
glyphname = fi;
layers = (
{
components = (
{
alignment = -1;
name = idotless;
transform = "{1, 0, 0, 1, 327, 0}";
},
{
alignment = -1;
name = dotaccentcomb;
transform = "{1, 0, 0, 1, 357, 9}";
}
);
layerId = "67BB2AE4-562A-42A4-A220-84C7D1DB401D";
paths = (
{
closed = 1;
nodes = (
"174 0 OFFCURVE",
"187 13 OFFCURVE",
"187 36 CURVE SMOOTH",
"187 422 LINE",
"464 422 LINE SMOOTH",
"487 422 OFFCURVE",
"500 435 OFFCURVE",
"500 458 CURVE SMOOTH",
"500 481 OFFCURVE",
"487 494 OFFCURVE",
"464 494 CURVE SMOOTH",
"187 494 LINE",
"187 513 LINE SMOOTH",
"187 601 OFFCURVE",
"215 628 OFFCURVE",
"302 628 CURVE",
"434 591 LINE",
"455 700 LINE",
"302 700 LINE SMOOTH",
"174 700 OFFCURVE",
"115 641 OFFCURVE",
"115 513 CURVE SMOOTH",
"115 494 LINE",
"76 494 LINE SMOOTH",
"53 494 OFFCURVE",
"40 481 OFFCURVE",
"40 458 CURVE SMOOTH",
"40 435 OFFCURVE",
"53 422 OFFCURVE",
"76 422 CURVE SMOOTH",
"115 422 LINE",
"115 36 LINE SMOOTH",
"115 13 OFFCURVE",
"128 0 OFFCURVE",
"151 0 CURVE SMOOTH"
);
}
);
width = 598;
}
);
leftKerningGroup = f;
leftMetricsKey = f;
rightMetricsKey = i;
unicode = FB01;
},
{
color = 4;
glyphname = fl;
layers = (
{
layerId = "67BB2AE4-562A-42A4-A220-84C7D1DB401D";
paths = (
{
closed = 1;
nodes = (
"596 0 OFFCURVE",
"609 13 OFFCURVE",
"609 36 CURVE SMOOTH",
"609 62 OFFCURVE",
"598 72 OFFCURVE",
"573 72 CURVE SMOOTH",
"514 72 OFFCURVE",
"499 87 OFFCURVE",
"499 146 CURVE SMOOTH",
"499 664 LINE SMOOTH",
"499 687 OFFCURVE",
"486 700 OFFCURVE",
"463 700 CURVE SMOOTH",
"302 700 LINE SMOOTH",
"174 700 OFFCURVE",
"115 641 OFFCURVE",
"115 513 CURVE SMOOTH",
"115 36 LINE SMOOTH",
"115 13 OFFCURVE",
"128 0 OFFCURVE",
"151 0 CURVE SMOOTH",
"174 0 OFFCURVE",
"187 13 OFFCURVE",
"187 36 CURVE SMOOTH",
"187 513 LINE SMOOTH",
"187 601 OFFCURVE",
"214 628 OFFCURVE",
"302 628 CURVE SMOOTH",
"427 628 LINE",
"427 146 LINE SMOOTH",
"427 47 OFFCURVE",
"474 0 OFFCURVE",
"573 0 CURVE SMOOTH"
);
},
{
closed = 1;
nodes = (
"297 422 LINE SMOOTH",
"320 422 OFFCURVE",
"333 435 OFFCURVE",
"333 458 CURVE SMOOTH",
"333 481 OFFCURVE",
"320 494 OFFCURVE",
"297 494 CURVE SMOOTH",
"76 494 LINE SMOOTH",
"53 494 OFFCURVE",
"40 481 OFFCURVE",
"40 458 CURVE SMOOTH",
"40 435 OFFCURVE",
"53 422 OFFCURVE",
"76 422 CURVE SMOOTH"
);
}
);
width = 649;
}
);
leftKerningGroup = f;
leftMetricsKey = f;
rightKerningGroup = l;
rightMetricsKey = l;
unicode = FB02;
},
{
color = 4;
glyphname = I_J.loclNLD;
layers = (
{
layerId = "67BB2AE4-562A-42A4-A220-84C7D1DB401D";
paths = (
{
closed = 1;
nodes = (
"160 248 OFFCURVE",
"172 260 OFFCURVE",
"172 284 CURVE SMOOTH",
"172 629 LINE SMOOTH",
"172 653 OFFCURVE",
"160 665 OFFCURVE",
"136 665 CURVE SMOOTH",
"112 665 OFFCURVE",
"100 653 OFFCURVE",
"100 629 CURVE SMOOTH",
"100 284 LINE SMOOTH",
"100 260 OFFCURVE",
"112 248 OFFCURVE",
"136 248 CURVE SMOOTH"
);
},
{
closed = 1;
nodes = (
"365 0 LINE SMOOTH",
"502 0 OFFCURVE",
"563 60 OFFCURVE",
"563 198 CURVE SMOOTH",
"563 629 LINE SMOOTH",
"563 652 OFFCURVE",
"550 665 OFFCURVE",
"527 665 CURVE SMOOTH",
"503 665 OFFCURVE",
"491 652 OFFCURVE",
"491 629 CURVE SMOOTH",
"491 198 LINE SMOOTH",
"491 100 OFFCURVE",
"462 72 OFFCURVE",
"365 72 CURVE SMOOTH",
"298 72 LINE SMOOTH",
"214 72 OFFCURVE",
"181 93 OFFCURVE",
"173 162 CURVE SMOOTH",
"171 186 OFFCURVE",
"159 198 OFFCURVE",
"136 198 CURVE SMOOTH",
"113 198 OFFCURVE",
"99 185 OFFCURVE",
"101 161 CURVE SMOOTH",
"112 49 OFFCURVE",
"173 0 OFFCURVE",
"298 0 CURVE SMOOTH"
);
}
);
width = 653;
}
);
leftKerningGroup = H;
leftMetricsKey = H;
rightKerningGroup = U;
rightMetricsKey = J;
},
{
color = 4;
glyphname = ordfeminine;
layers = (
{
layerId = "67BB2AE4-562A-42A4-A220-84C7D1DB401D";
paths = (
{
closed = 1;
nodes = (
"386 304 OFFCURVE",
"397 315 OFFCURVE",
"397 336 CURVE SMOOTH",
"397 525 LINE SMOOTH",
"397 617 OFFCURVE",
"353 661 OFFCURVE",
"261 661 CURVE SMOOTH",
"205 661 LINE SMOOTH",
"127 661 OFFCURVE",
"83 638 OFFCURVE",
"70 588 CURVE SMOOTH",
"65 566 OFFCURVE",
"78 554 OFFCURVE",
"100 554 CURVE SMOOTH",
"117 554 OFFCURVE",
"120 557 OFFCURVE",
"136 580 CURVE SMOOTH",
"145 592 OFFCURVE",
"164 597 OFFCURVE",
"205 597 CURVE SMOOTH",
"261 597 LINE SMOOTH",
"317 597 OFFCURVE",
"333 581 OFFCURVE",
"333 525 CURVE SMOOTH",
"333 336 LINE SMOOTH",
"333 315 OFFCURVE",
"344 304 OFFCURVE",
"365 304 CURVE SMOOTH"
);
},
{
closed = 1;
nodes = (
"231 304 LINE SMOOTH",
"300 304 OFFCURVE",
"343 339 OFFCURVE",
"352 404 CURVE",
"333 409 LINE",
"333 379 OFFCURVE",
"290 368 OFFCURVE",
"231 368 CURVE SMOOTH",
"176 368 LINE SMOOTH",
"134 368 OFFCURVE",
"124 378 OFFCURVE",
"124 420 CURVE SMOOTH",
"124 462 OFFCURVE",
"134 472 OFFCURVE",
"176 472 CURVE SMOOTH",
"333 472 LINE SMOOTH",
"354 472 OFFCURVE",
"365 483 OFFCURVE",
"365 504 CURVE SMOOTH",
"365 525 OFFCURVE",
"354 536 OFFCURVE",
"333 536 CURVE SMOOTH",
"176 536 LINE SMOOTH",
"99 536 OFFCURVE",
"60 498 OFFCURVE",
"60 420 CURVE SMOOTH",
"60 343 OFFCURVE",
"98 304 OFFCURVE",
"176 304 CURVE SMOOTH"
);
}
);
width = 457;
}
);
leftKerningGroup = ordfeminine;
rightKerningGroup = ordfemnne;
unicode = 00AA;
},
{
color = 4;
glyphname = ordmasculine;
layers = (
{
layerId = "67BB2AE4-562A-42A4-A220-84C7D1DB401D";
paths = (
{
closed = 1;
nodes = (
"246 304 LINE SMOOTH",
"340 304 OFFCURVE",
"386 350 OFFCURVE",
"386 445 CURVE SMOOTH",
"386 508 LINE SMOOTH",
"386 602 OFFCURVE",
"340 648 OFFCURVE",
"246 648 CURVE SMOOTH",
"180 648 LINE SMOOTH",
"86 648 OFFCURVE",
"40 603 OFFCURVE",
"40 508 CURVE SMOOTH",
"40 444 LINE SMOOTH",
"40 350 OFFCURVE",
"86 304 OFFCURVE",
"180 304 CURVE SMOOTH"
);
},
{
closed = 1;
nodes = (
"126 376 OFFCURVE",
"112 390 OFFCURVE",
"112 444 CURVE SMOOTH",
"112 508 LINE SMOOTH",
"112 563 OFFCURVE",
"126 576 OFFCURVE",
"180 576 CURVE SMOOTH",
"246 576 LINE SMOOTH",
"300 576 OFFCURVE",
"314 562 OFFCURVE",
"314 508 CURVE SMOOTH",
"314 445 LINE SMOOTH",
"314 390 OFFCURVE",
"300 376 OFFCURVE",
"246 376 CURVE SMOOTH",
"180 376 LINE SMOOTH"
);
}
);
width = 426;
}
);
leftKerningGroup = ordfeminine;
rightKerningGroup = ordfemnne;
unicode = 00BA;
},
{
glyphname = "a-kayahli";
lastChange = "2016-07-31 01:35:24 +0000";
layers = (
{
layerId = "67BB2AE4-562A-42A4-A220-84C7D1DB401D";
paths = (
{
closed = 1;
nodes = (
"427 -15 LINE SMOOTH",
"512 -15 OFFCURVE",
"537 24 OFFCURVE",
"537 124 CURVE SMOOTH",
"537 195 LINE",
"399 195 LINE SMOOTH",
"368 195 OFFCURVE",
"353 183 OFFCURVE",
"353 159 CURVE SMOOTH",
"353 135 OFFCURVE",
"368 123 OFFCURVE",
"399 123 CURVE SMOOTH",
"465 123 LINE",
"465 106 LINE SMOOTH",
"465 67 OFFCURVE",
"456 57 OFFCURVE",
"420 57 CURVE SMOOTH",
"180 57 LINE SMOOTH",
"145 57 OFFCURVE",
"135 71 OFFCURVE",
"135 111 CURVE SMOOTH",
"135 172 OFFCURVE",
"168 202 OFFCURVE",
"233 202 CURVE SMOOTH",
"264 202 OFFCURVE",
"279 214 OFFCURVE",
"279 237 CURVE SMOOTH",
"279 262 OFFCURVE",
"262 274 OFFCURVE",
"228 274 CURVE SMOOTH",
"161 274 OFFCURVE",
"134 294 OFFCURVE",
"134 343 CURVE SMOOTH",
"134 392 OFFCURVE",
"144 404 OFFCURVE",
"180 404 CURVE SMOOTH",
"420 404 LINE SMOOTH",
"456 404 OFFCURVE",
"465 393 OFFCURVE",
"465 354 CURVE SMOOTH",
"465 337 LINE",
"399 337 LINE SMOOTH",
"368 337 OFFCURVE",
"353 325 OFFCURVE",
"353 301 CURVE SMOOTH",
"353 277 OFFCURVE",
"368 265 OFFCURVE",
"399 265 CURVE SMOOTH",
"537 265 LINE",
"537 337 LINE SMOOTH",
"537 437 OFFCURVE",
"512 476 OFFCURVE",
"427 476 CURVE SMOOTH",
"173 476 LINE SMOOTH",
"88 476 OFFCURVE",
"63 436 OFFCURVE",
"63 339 CURVE SMOOTH",
"63 290 OFFCURVE",
"80 256 OFFCURVE",
"113 235 CURVE",
"80 211 OFFCURVE",
"63 174 OFFCURVE",
"63 124 CURVE SMOOTH",
"63 74 OFFCURVE",
"71 38 OFFCURVE",
"86 17 CURVE SMOOTH",
"101 -4 OFFCURVE",
"130 -15 OFFCURVE",
"173 -15 CURVE SMOOTH"
);
}
);
width = 600;
}
);
leftKerningGroup = "a-kayahli";
rightKerningGroup = "a-kayahl";
unicode = A922;
},
{
glyphname = "ba-kayahli";
lastChange = "2016-07-31 01:35:24 +0000";
layers = (
{
layerId = "67BB2AE4-562A-42A4-A220-84C7D1DB401D";
paths = (
{
closed = 1;
nodes = (
"482 -27 OFFCURVE",
"509 -16 OFFCURVE",
"524 5 CURVE SMOOTH",
"539 26 OFFCURVE",
"547 62 OFFCURVE",
"547 112 CURVE SMOOTH",
"547 337 LINE SMOOTH",
"547 437 OFFCURVE",
"522 476 OFFCURVE",
"437 476 CURVE SMOOTH",
"323 476 LINE",
"145 241 LINE",
"145 438 LINE SMOOTH",
"145 468 OFFCURVE",
"133 483 OFFCURVE",
"109 483 CURVE SMOOTH",
"85 483 OFFCURVE",
"73 468 OFFCURVE",
"73 438 CURVE SMOOTH",
"73 23 LINE SMOOTH",
"73 -7 OFFCURVE",
"85 -22 OFFCURVE",
"109 -22 CURVE SMOOTH",
"133 -22 OFFCURVE",
"145 -7 OFFCURVE",
"145 23 CURVE SMOOTH",
"145 126 LINE",
"353 404 LINE",
"430 404 LINE SMOOTH",
"466 404 OFFCURVE",
"475 393 OFFCURVE",
"475 354 CURVE SMOOTH",
"475 189 LINE",
"437 189 LINE",
"345 197 OFFCURVE",
"298 68 OFFCURVE",
"360 5 CURVE",
"379 -17 OFFCURVE",
"407 -27 OFFCURVE",
"445 -27 CURVE SMOOTH"
);
},
{
closed = 1;
nodes = (
"428 44 OFFCURVE",
"419 48 OFFCURVE",
"414 56 CURVE",
"392 82 OFFCURVE",
"409 117 OFFCURVE",
"437 117 CURVE SMOOTH",
"475 117 LINE",
"475 94 LINE",
"474 61 OFFCURVE",
"463 45 OFFCURVE",
"440 45 CURVE"
);
}
);
width = 612;
}
);
leftKerningGroup = "ba-kayahli";
rightKerningGroup = "ba-kayahl";
unicode = A919;
},
{
glyphname = "ca-kayahli";
lastChange = "2016-07-31 01:35:24 +0000";
layers = (
{
layerId = "67BB2AE4-562A-42A4-A220-84C7D1DB401D";
paths = (
{
closed = 1;
nodes = (
"193 -15 LINE SMOOTH",
"224 -15 OFFCURVE",
"239 -3 OFFCURVE",
"239 21 CURVE SMOOTH",
"239 45 OFFCURVE",
"224 57 OFFCURVE",
"193 57 CURVE SMOOTH",
"148 57 LINE",
"148 360 LINE",
"480 -15 LINE",
"550 -15 LINE",
"550 554 LINE SMOOTH",
"550 653 OFFCURVE",
"524 693 OFFCURVE",
"440 693 CURVE SMOOTH",
"186 693 LINE SMOOTH",
"102 693 OFFCURVE",
"76 653 OFFCURVE",
"76 554 CURVE SMOOTH",
"76 504 LINE",
"215 504 LINE SMOOTH",
"246 504 OFFCURVE",
"261 517 OFFCURVE",
"261 543 CURVE SMOOTH",
"261 565 OFFCURVE",
"246 576 OFFCURVE",
"215 576 CURVE SMOOTH",
"148 576 LINE",
"149 611 OFFCURVE",
"160 621 OFFCURVE",
"193 621 CURVE SMOOTH",
"433 621 LINE SMOOTH",
"469 621 OFFCURVE",
"478 610 OFFCURVE",
"478 571 CURVE SMOOTH",
"478 97 LINE",
"143 476 LINE",
"76 476 LINE",
"76 -15 LINE"
);
}
);
width = 626;
}
);
leftKerningGroup = "ca-kayahli";
rightKerningGroup = "ca-kayahl";
unicode = A921;
},
{
glyphname = "da-kayahli";
lastChange = "2016-07-31 01:35:24 +0000";
layers = (
{
layerId = "67BB2AE4-562A-42A4-A220-84C7D1DB401D";
paths = (
{
closed = 1;
nodes = (
"429 -15 LINE SMOOTH",
"502 -15 OFFCURVE",
"538 21 OFFCURVE",
"538 93 CURVE SMOOTH",
"538 162 OFFCURVE",
"491 197 OFFCURVE",
"398 197 CURVE SMOOTH",
"341 197 OFFCURVE",
"280 150 OFFCURVE",
"214 57 CURVE",
"181 57 LINE SMOOTH",
"145 57 OFFCURVE",
"136 67 OFFCURVE",
"136 106 CURVE SMOOTH",
"136 185 LINE SMOOTH",
"136 224 OFFCURVE",
"145 233 OFFCURVE",
"181 233 CURVE SMOOTH",
"538 233 LINE",
"538 337 LINE SMOOTH",
"538 437 OFFCURVE",
"513 476 OFFCURVE",
"428 476 CURVE SMOOTH",
"174 476 LINE SMOOTH",
"98 476 OFFCURVE",
"64 441 OFFCURVE",
"64 354 CURVE SMOOTH",
"64 324 OFFCURVE",
"76 309 OFFCURVE",
"100 309 CURVE SMOOTH",
"124 309 OFFCURVE",
"136 324 OFFCURVE",
"136 354 CURVE SMOOTH",
"136 393 OFFCURVE",
"145 404 OFFCURVE",
"181 404 CURVE SMOOTH",
"421 404 LINE SMOOTH",
"457 404 OFFCURVE",
"466 393 OFFCURVE",
"466 354 CURVE SMOOTH",
"466 305 LINE",
"174 305 LINE SMOOTH",
"89 305 OFFCURVE",
"64 268 OFFCURVE",
"64 168 CURVE SMOOTH",
"64 124 LINE SMOOTH",
"64 24 OFFCURVE",
"89 -15 OFFCURVE",
"174 -15 CURVE SMOOTH"
);
},
{
closed = 1;
nodes = (
"346 102 OFFCURVE",
"376 125 OFFCURVE",
"398 125 CURVE SMOOTH",
"443 125 OFFCURVE",
"466 115 OFFCURVE",
"466 95 CURVE SMOOTH",
"466 68 OFFCURVE",
"457 57 OFFCURVE",
"421 57 CURVE SMOOTH",
"309 57 LINE"
);
}
);
width = 601;
}
);
leftKerningGroup = "da-kayahli";
rightKerningGroup = "da-kayahl";
unicode = A918;
},
{
glyphname = "ga-kayahli";
lastChange = "2016-07-31 01:35:24 +0000";
layers = (
{
layerId = "67BB2AE4-562A-42A4-A220-84C7D1DB401D";
paths = (
{
closed = 1;
nodes = (
"191 -15 LINE SMOOTH",
"222 -15 OFFCURVE",
"237 -3 OFFCURVE",
"237 21 CURVE SMOOTH",
"237 45 OFFCURVE",
"222 57 OFFCURVE",
"191 57 CURVE SMOOTH",
"146 57 LINE",
"146 154 LINE",
"476 154 LINE",
"476 57 LINE",
"431 57 LINE SMOOTH",
"400 57 OFFCURVE",
"385 45 OFFCURVE",
"385 21 CURVE SMOOTH",
"385 -3 OFFCURVE",
"400 -15 OFFCURVE",
"431 -15 CURVE SMOOTH",
"548 -15 LINE",
"548 337 LINE SMOOTH",
"548 437 OFFCURVE",
"523 476 OFFCURVE",
"438 476 CURVE SMOOTH",
"316 476 LINE",
"146 271 LINE",
"146 438 LINE SMOOTH",
"146 468 OFFCURVE",
"134 483 OFFCURVE",
"110 483 CURVE SMOOTH",
"86 483 OFFCURVE",
"74 468 OFFCURVE",
"74 438 CURVE SMOOTH",
"74 -15 LINE"
);
},
{
closed = 1;
nodes = (
"344 404 LINE",
"431 404 LINE SMOOTH",
"467 404 OFFCURVE",
"476 393 OFFCURVE",
"476 354 CURVE SMOOTH",
"476 226 LINE",
"200 226 LINE"
);
}
);
width = 622;
}
);
leftKerningGroup = "ga-kayahli";
rightKerningGroup = "ga-kayahl";
unicode = A90C;
},
{
glyphname = "ha-kayahli";
lastChange = "2016-07-31 01:35:24 +0000";
layers = (
{
layerId = "67BB2AE4-562A-42A4-A220-84C7D1DB401D";
paths = (
{
closed = 1;
nodes = (
"509 -205 OFFCURVE",
"547 -181 OFFCURVE",
"547 -66 CURVE SMOOTH",
"547 436 LINE SMOOTH",
"547 467 OFFCURVE",
"535 483 OFFCURVE",
"511 483 CURVE SMOOTH",
"487 483 OFFCURVE",
"475 467 OFFCURVE",
"475 436 CURVE SMOOTH",
"475 335 LINE",
"267 57 LINE",
"190 57 LINE SMOOTH",
"154 57 OFFCURVE",
"145 67 OFFCURVE",
"145 106 CURVE SMOOTH",
"145 152 LINE",
"221 203 OFFCURVE",
"286 271 OFFCURVE",
"286 336 CURVE SMOOTH",
"286 476 LINE",
"73 476 LINE",
"73 124 LINE SMOOTH",
"73 24 OFFCURVE",
"98 -15 OFFCURVE",
"183 -15 CURVE SMOOTH",
"298 -15 LINE",
"475 218 LINE",
"475 -83 LINE SMOOTH",
"475 -122 OFFCURVE",
"466 -133 OFFCURVE",
"430 -133 CURVE SMOOTH",
"399 -133 OFFCURVE",
"384 -145 OFFCURVE",
"384 -169 CURVE SMOOTH",
"384 -193 OFFCURVE",
"399 -205 OFFCURVE",
"430 -205 CURVE SMOOTH"
);
},
{
closed = 1;
nodes = (
"145 404 LINE",
"214 404 LINE",
"214 336 LINE SMOOTH",
"214 312 OFFCURVE",
"181 265 OFFCURVE",
"145 238 CURVE"
);
}
);
width = 622;
}
);
leftKerningGroup = "ha-kayahli";
rightKerningGroup = "ha-kayahl";
unicode = A91F;
},
{
glyphname = "hta-kayahli";
lastChange = "2016-07-31 01:35:24 +0000";
layers = (
{
layerId = "67BB2AE4-562A-42A4-A220-84C7D1DB401D";
paths = (
{
closed = 1;
nodes = (
"430 -15 LINE SMOOTH",
"514 -15 OFFCURVE",
"540 25 OFFCURVE",
"540 124 CURVE SMOOTH",
"540 662 LINE SMOOTH",
"540 701 OFFCURVE",
"499 711 OFFCURVE",
"470 685 CURVE",
"405 620 LINE",
"372 582 OFFCURVE",
"408 519 OFFCURVE",
"468 579 CURVE",
"468 476 LINE",
"438 476 LINE SMOOTH",
"409 476 OFFCURVE",
"394 463 OFFCURVE",
"394 438 CURVE SMOOTH",
"394 415 OFFCURVE",
"409 404 OFFCURVE",
"438 404 CURVE SMOOTH",
"468 404 LINE",
"468 106 LINE SMOOTH",
"468 67 OFFCURVE",
"459 57 OFFCURVE",
"423 57 CURVE SMOOTH",
"183 57 LINE SMOOTH",
"147 57 OFFCURVE",
"138 67 OFFCURVE",
"138 106 CURVE SMOOTH",
"138 354 LINE SMOOTH",
"138 393 OFFCURVE",
"147 404 OFFCURVE",
"183 404 CURVE SMOOTH",
"271 404 LINE SMOOTH",
"302 404 OFFCURVE",
"317 415 OFFCURVE",
"317 438 CURVE SMOOTH",
"317 463 OFFCURVE",
"302 476 OFFCURVE",
"271 476 CURVE SMOOTH",
"176 476 LINE SMOOTH",
"91 476 OFFCURVE",
"66 437 OFFCURVE",
"66 338 CURVE SMOOTH",
"66 124 LINE SMOOTH",
"66 25 OFFCURVE",
"92 -15 OFFCURVE",
"176 -15 CURVE SMOOTH"
);
}
);
width = 613;
}
);
leftKerningGroup = "hta-kayahli";
rightKerningGroup = "hta-kayahl";
unicode = A913;
},
{
glyphname = "i-kayahli";
lastChange = "2016-07-31 01:35:24 +0000";
layers = (
{
layerId = "67BB2AE4-562A-42A4-A220-84C7D1DB401D";
paths = (
{
closed = 1;
nodes = (
"426 -15 LINE SMOOTH",
"511 -15 OFFCURVE",
"536 24 OFFCURVE",
"536 124 CURVE SMOOTH",
"536 337 LINE SMOOTH",
"536 437 OFFCURVE",
"511 476 OFFCURVE",
"426 476 CURVE SMOOTH",
"172 476 LINE SMOOTH",
"87 476 OFFCURVE",
"62 437 OFFCURVE",
"62 337 CURVE SMOOTH",
"62 265 LINE",
"201 265 LINE SMOOTH",
"232 265 OFFCURVE",
"247 278 OFFCURVE",
"247 303 CURVE SMOOTH",
"247 326 OFFCURVE",
"232 337 OFFCURVE",
"201 337 CURVE SMOOTH",
"134 337 LINE",
"134 354 LINE SMOOTH",
"134 393 OFFCURVE",
"143 404 OFFCURVE",
"179 404 CURVE SMOOTH",
"419 404 LINE SMOOTH",
"455 404 OFFCURVE",
"464 393 OFFCURVE",
"464 354 CURVE",
"464 353 LINE",
"62 152 LINE",
"62 124 LINE SMOOTH",
"62 24 OFFCURVE",
"87 -15 OFFCURVE",
"172 -15 CURVE SMOOTH"
);
},
{
closed = 1;
nodes = (
"143 57 OFFCURVE",
"134 67 OFFCURVE",
"134 106 CURVE SMOOTH",
"134 110 LINE",
"464 275 LINE",
"464 106 LINE SMOOTH",
"464 67 OFFCURVE",
"455 57 OFFCURVE",
"419 57 CURVE SMOOTH",
"179 57 LINE SMOOTH"
);
}
);
width = 602;
}
);
leftKerningGroup = "i-kayahli";
rightKerningGroup = "-kayahl";
unicode = A924;
},
{
glyphname = "ka-kayahli";
lastChange = "2016-07-31 01:35:24 +0000";
layers = (
{
layerId = "67BB2AE4-562A-42A4-A220-84C7D1DB401D";
paths = (
{
closed = 1;
nodes = (
"256 -15 LINE",
"256 276 LINE",
"342 404 LINE",
"417 404 LINE SMOOTH",
"453 404 OFFCURVE",
"462 393 OFFCURVE",
"462 354 CURVE SMOOTH",
"462 57 LINE",
"424 57 LINE SMOOTH",
"394 57 OFFCURVE",
"379 45 OFFCURVE",
"379 21 CURVE SMOOTH",
"379 -3 OFFCURVE",
"394 -15 OFFCURVE",
"424 -15 CURVE SMOOTH",
"534 -15 LINE",
"534 337 LINE SMOOTH",
"534 437 OFFCURVE",
"509 476 OFFCURVE",
"424 476 CURVE SMOOTH",
"307 476 LINE",
"254 397 LINE",
"246 454 OFFCURVE",
"215 482 OFFCURVE",
"161 482 CURVE SMOOTH",
"80 482 OFFCURVE",
"60 445 OFFCURVE",
"60 361 CURVE SMOOTH",
"60 331 OFFCURVE",
"72 316 OFFCURVE",
"96 316 CURVE SMOOTH",
"120 316 OFFCURVE",
"132 331 OFFCURVE",
"132 361 CURVE SMOOTH",
"132 401 OFFCURVE",
"137 410 OFFCURVE",
"161 410 CURVE SMOOTH",
"176 410 OFFCURVE",
"184 396 OFFCURVE",
"184 367 CURVE SMOOTH",
"184 295 LINE",
"123 205 LINE SMOOTH",
"104 178 OFFCURVE",
"91 159 OFFCURVE",
"84 148 CURVE SMOOTH",
"68 121 OFFCURVE",
"60 90 OFFCURVE",
"60 53 CURVE SMOOTH",
"60 -15 LINE"
);
},
{
closed = 1;
nodes = (
"132 82 OFFCURVE",
"136 99 OFFCURVE",
"143 110 CURVE SMOOTH",
"184 171 LINE",
"184 57 LINE",
"132 57 LINE"
);
}
);
width = 608;
}
);
leftKerningGroup = "ka-kayahli";
rightKerningGroup = "ka-kayahl";
unicode = A90A;
},
{
glyphname = "kha-kayahli";
lastChange = "2016-07-31 01:35:24 +0000";
layers = (
{
layerId = "67BB2AE4-562A-42A4-A220-84C7D1DB401D";
paths = (
{
closed = 1;
nodes = (
"428 -15 LINE SMOOTH",
"513 -15 OFFCURVE",
"538 24 OFFCURVE",
"538 124 CURVE SMOOTH",
"538 337 LINE SMOOTH",
"538 437 OFFCURVE",
"513 476 OFFCURVE",
"428 476 CURVE SMOOTH",
"174 476 LINE SMOOTH",
"89 476 OFFCURVE",
"64 437 OFFCURVE",
"64 337 CURVE SMOOTH",
"64 235 LINE",
"466 235 LINE",
"466 106 LINE SMOOTH",
"466 67 OFFCURVE",
"457 57 OFFCURVE",
"421 57 CURVE SMOOTH",
"181 57 LINE SMOOTH",
"145 57 OFFCURVE",
"136 67 OFFCURVE",
"136 106 CURVE SMOOTH",
"136 123 LINE",
"203 123 LINE SMOOTH",
"234 123 OFFCURVE",
"249 135 OFFCURVE",
"249 159 CURVE SMOOTH",
"249 183 OFFCURVE",
"234 195 OFFCURVE",
"203 195 CURVE SMOOTH",
"64 195 LINE",
"64 124 LINE SMOOTH",
"64 24 OFFCURVE",
"89 -15 OFFCURVE",
"174 -15 CURVE SMOOTH"
);
},
{
closed = 1;
nodes = (
"136 354 LINE SMOOTH",
"136 393 OFFCURVE",
"145 404 OFFCURVE",
"181 404 CURVE SMOOTH",
"421 404 LINE SMOOTH",
"457 404 OFFCURVE",
"466 393 OFFCURVE",
"466 354 CURVE SMOOTH",
"466 307 LINE",
"136 307 LINE"
);
}
);
width = 604;
}
);
leftKerningGroup = "kha-kayahli";
rightKerningGroup = "kha-kayahl";
unicode = A90B;
},
{
glyphname = "la-kayahli";
lastChange = "2016-07-31 01:35:24 +0000";
layers = (
{
layerId = "67BB2AE4-562A-42A4-A220-84C7D1DB401D";
paths = (
{
closed = 1;
nodes = (
"430 -205 LINE SMOOTH",
"515 -205 OFFCURVE",
"540 -166 OFFCURVE",
"540 -66 CURVE SMOOTH",
"540 335 LINE SMOOTH",
"540 450 OFFCURVE",
"506 476 OFFCURVE",
"423 476 CURVE SMOOTH",
"392 476 OFFCURVE",
"377 463 OFFCURVE",
"377 438 CURVE SMOOTH",
"377 415 OFFCURVE",
"392 404 OFFCURVE",
"423 404 CURVE SMOOTH",
"459 404 OFFCURVE",
"468 393 OFFCURVE",
"468 354 CURVE SMOOTH",
"468 106 LINE SMOOTH",
"468 67 OFFCURVE",
"459 57 OFFCURVE",
"423 57 CURVE SMOOTH",
"405 57 LINE SMOOTH",
"369 57 OFFCURVE",
"340 81 OFFCURVE",
"340 106 CURVE SMOOTH",
"340 337 LINE SMOOTH",
"340 434 OFFCURVE",
"283 476 OFFCURVE",
"203 476 CURVE SMOOTH",
"176 476 LINE SMOOTH",
"91 476 OFFCURVE",
"66 437 OFFCURVE",
"66 337 CURVE SMOOTH",
"66 124 LINE SMOOTH",
"66 11 OFFCURVE",
"100 -15 OFFCURVE",
"183 -15 CURVE SMOOTH",
"214 -15 OFFCURVE",
"229 -3 OFFCURVE",
"229 21 CURVE SMOOTH",
"229 45 OFFCURVE",
"214 57 OFFCURVE",
"183 57 CURVE SMOOTH",
"147 57 OFFCURVE",
"138 67 OFFCURVE",
"138 106 CURVE SMOOTH",
"138 354 LINE SMOOTH",
"138 393 OFFCURVE",
"147 404 OFFCURVE",
"183 404 CURVE SMOOTH",
"203 404 LINE SMOOTH",
"239 404 OFFCURVE",
"268 379 OFFCURVE",
"268 354 CURVE SMOOTH",
"268 124 LINE SMOOTH",
"268 28 OFFCURVE",
"325 -15 OFFCURVE",
"405 -15 CURVE SMOOTH",
"430 -15 LINE SMOOTH",
"441 -15 OFFCURVE",
"453 -13 OFFCURVE",
"468 -9 CURVE",
"468 -83 LINE SMOOTH",
"468 -122 OFFCURVE",
"459 -133 OFFCURVE",
"423 -133 CURVE SMOOTH",
"183 -133 LINE SMOOTH",
"151 -133 OFFCURVE",
"139 -127 OFFCURVE",
"138 -106 CURVE",
"205 -106 LINE SMOOTH",
"236 -106 OFFCURVE",
"251 -94 OFFCURVE",
"251 -70 CURVE SMOOTH",
"251 -46 OFFCURVE",
"236 -34 OFFCURVE",
"205 -34 CURVE SMOOTH",
"66 -34 LINE",
"66 -79 LINE SMOOTH",
"66 -175 OFFCURVE",
"89 -205 OFFCURVE",
"176 -205 CURVE SMOOTH"
);
}
);
width = 614;
}
);
leftKerningGroup = "la-kayahli";
rightKerningGroup = "la-kayahl";
unicode = A91C;
},
{
glyphname = "ma-kayahli";
lastChange = "2016-07-31 01:35:24 +0000";
layers = (
{
layerId = "67BB2AE4-562A-42A4-A220-84C7D1DB401D";
paths = (
{
closed = 1;
nodes = (
"430 -15 LINE SMOOTH",
"514 -15 OFFCURVE",
"540 25 OFFCURVE",
"540 124 CURVE SMOOTH",
"540 337 LINE SMOOTH",
"540 436 OFFCURVE",
"514 476 OFFCURVE",
"430 476 CURVE SMOOTH",
"402 476 LINE SMOOTH",
"371 476 OFFCURVE",
"356 464 OFFCURVE",
"356 440 CURVE SMOOTH",
"356 416 OFFCURVE",
"371 404 OFFCURVE",
"402 404 CURVE SMOOTH",
"423 404 LINE SMOOTH",
"459 404 OFFCURVE",
"468 392 OFFCURVE",
"468 352 CURVE SMOOTH",
"468 108 LINE SMOOTH",
"468 93 OFFCURVE",
"466 81 OFFCURVE",
"462 72 CURVE",
"303 252 LINE",
"144 72 LINE",
"140 80 OFFCURVE",
"138 92 OFFCURVE",
"138 108 CURVE SMOOTH",
"138 352 LINE SMOOTH",
"138 392 OFFCURVE",
"147 404 OFFCURVE",
"183 404 CURVE SMOOTH",
"205 404 LINE SMOOTH",
"236 404 OFFCURVE",
"251 416 OFFCURVE",
"251 440 CURVE SMOOTH",
"251 464 OFFCURVE",
"236 476 OFFCURVE",
"205 476 CURVE SMOOTH",
"176 476 LINE SMOOTH",
"92 476 OFFCURVE",
"66 436 OFFCURVE",
"66 337 CURVE SMOOTH",
"66 124 LINE SMOOTH",
"66 25 OFFCURVE",
"92 -15 OFFCURVE",
"176 -15 CURVE SMOOTH"
);
},
{
closed = 1;
nodes = (
"303 152 LINE",
"388 57 LINE",
"218 57 LINE"
);
}
);
width = 606;
}
);
leftKerningGroup = "ma-kayahli";
rightKerningGroup = "ma-kayahl";
unicode = A917;
},
{
glyphname = "na-kayahli";
lastChange = "2016-07-31 01:35:24 +0000";
layers = (
{
layerId = "67BB2AE4-562A-42A4-A220-84C7D1DB401D";
paths = (
{
closed = 1;
nodes = (
"213 -205 OFFCURVE",
"228 -193 OFFCURVE",
"228 -169 CURVE SMOOTH",
"228 -145 OFFCURVE",
"213 -133 OFFCURVE",
"182 -133 CURVE SMOOTH",
"145 -133 OFFCURVE",
"137 -124 OFFCURVE",
"137 -87 CURVE SMOOTH",
"137 -12 LINE",
"148 -14 OFFCURVE",
"161 -15 OFFCURVE",
"175 -15 CURVE SMOOTH",
"429 -15 LINE SMOOTH",
"514 -15 OFFCURVE",
"539 24 OFFCURVE",
"539 124 CURVE SMOOTH",
"539 150 LINE",
"137 351 LINE",
"137 354 LINE SMOOTH",
"137 393 OFFCURVE",
"146 404 OFFCURVE",
"182 404 CURVE SMOOTH",
"422 404 LINE SMOOTH",
"455 404 OFFCURVE",
"466 393 OFFCURVE",
"467 358 CURVE",
"413 358 LINE SMOOTH",
"382 358 OFFCURVE",
"367 346 OFFCURVE",
"367 322 CURVE SMOOTH",
"367 298 OFFCURVE",
"382 286 OFFCURVE",
"413 286 CURVE SMOOTH",
"539 286 LINE",
"539 337 LINE SMOOTH",
"539 437 OFFCURVE",
"514 476 OFFCURVE",
"429 476 CURVE SMOOTH",
"175 476 LINE SMOOTH",
"90 476 OFFCURVE",
"65 437 OFFCURVE",
"65 337 CURVE SMOOTH",
"65 308 LINE",
"467 108 LINE",
"467 106 LINE",
"467 67 OFFCURVE",
"458 57 OFFCURVE",
"422 57 CURVE SMOOTH",
"182 57 LINE SMOOTH",
"147 57 OFFCURVE",
"138 67 OFFCURVE",
"137 103 CURVE",
"192 103 LINE SMOOTH",
"222 103 OFFCURVE",
"237 115 OFFCURVE",
"237 139 CURVE SMOOTH",
"237 163 OFFCURVE",
"222 175 OFFCURVE",
"192 175 CURVE SMOOTH",
"65 175 LINE",
"65 -66 LINE SMOOTH",
"65 -173 OFFCURVE",
"105 -205 OFFCURVE",
"182 -205 CURVE SMOOTH"
);
}
);
width = 600;
}
);
leftKerningGroup = "na-kayahli";
rightKerningGroup = "na-kayahl";
unicode = A914;
},
{
glyphname = "nga-kayahli";
lastChange = "2016-07-31 01:35:24 +0000";
layers = (
{
layerId = "67BB2AE4-562A-42A4-A220-84C7D1DB401D";
paths = (
{
closed = 1;
nodes = (
"430 -15 LINE SMOOTH",
"515 -15 OFFCURVE",
"540 24 OFFCURVE",
"540 124 CURVE SMOOTH",
"540 190 LINE",
"402 190 LINE SMOOTH",
"371 190 OFFCURVE",
"356 178 OFFCURVE",
"356 154 CURVE SMOOTH",
"356 130 OFFCURVE",
"371 118 OFFCURVE",
"402 118 CURVE SMOOTH",
"468 118 LINE",
"468 106 LINE SMOOTH",
"468 67 OFFCURVE",
"459 57 OFFCURVE",
"423 57 CURVE SMOOTH",
"183 57 LINE SMOOTH",
"147 57 OFFCURVE",
"138 67 OFFCURVE",
"138 106 CURVE SMOOTH",
"138 354 LINE SMOOTH",
"138 393 OFFCURVE",
"147 404 OFFCURVE",
"183 404 CURVE SMOOTH",
"423 404 LINE SMOOTH",
"459 404 OFFCURVE",
"468 393 OFFCURVE",
"468 354 CURVE SMOOTH",
"468 343 LINE",
"402 343 LINE SMOOTH",
"371 343 OFFCURVE",
"356 331 OFFCURVE",
"356 307 CURVE SMOOTH",
"356 283 OFFCURVE",
"371 271 OFFCURVE",
"402 271 CURVE SMOOTH",
"540 271 LINE",
"540 337 LINE SMOOTH",
"540 437 OFFCURVE",
"515 476 OFFCURVE",
"430 476 CURVE SMOOTH",
"176 476 LINE SMOOTH",
"91 476 OFFCURVE",
"66 437 OFFCURVE",
"66 337 CURVE SMOOTH",
"66 124 LINE SMOOTH",
"66 24 OFFCURVE",
"91 -15 OFFCURVE",
"176 -15 CURVE SMOOTH"
);
}
);
width = 603;
}
);
leftKerningGroup = "nga-kayahli";
rightKerningGroup = "nga-kayahl";
unicode = A90D;
},
{
glyphname = "nya-kayahli";
lastChange = "2016-07-31 01:35:24 +0000";
layers = (
{
layerId = "67BB2AE4-562A-42A4-A220-84C7D1DB401D";
paths = (
{
closed = 1;
nodes = (
"437 -205 LINE SMOOTH",
"516 -205 OFFCURVE",
"538 -176 OFFCURVE",
"538 -87 CURVE SMOOTH",
"538 -33 LINE",
"410 -33 LINE SMOOTH",
"382 -33 OFFCURVE",
"368 -45 OFFCURVE",
"368 -70 CURVE SMOOTH",
"368 -89 OFFCURVE",
"379 -105 OFFCURVE",
"410 -105 CURVE SMOOTH",
"466 -105 LINE",
"466 -132 OFFCURVE",
"463 -133 OFFCURVE",
"430 -133 CURVE SMOOTH",
"172 -133 LINE SMOOTH",
"141 -133 OFFCURVE",
"136 -126 OFFCURVE",
"136 -93 CURVE SMOOTH",
"136 -12 LINE",
"147 -14 OFFCURVE",
"159 -15 OFFCURVE",
"174 -15 CURVE SMOOTH",
"428 -15 LINE SMOOTH",
"513 -15 OFFCURVE",
"538 24 OFFCURVE",
"538 124 CURVE SMOOTH",
"538 337 LINE SMOOTH",
"538 437 OFFCURVE",
"513 476 OFFCURVE",
"428 476 CURVE SMOOTH",
"174 476 LINE SMOOTH",
"89 476 OFFCURVE",
"64 437 OFFCURVE",
"64 337 CURVE SMOOTH",
"64 270 LINE",
"202 270 LINE SMOOTH",
"235 270 OFFCURVE",
"248 287 OFFCURVE",
"248 306 CURVE SMOOTH",
"248 330 OFFCURVE",
"233 342 OFFCURVE",
"202 342 CURVE SMOOTH",
"136 342 LINE",
"136 354 LINE SMOOTH",
"136 393 OFFCURVE",
"145 404 OFFCURVE",
"181 404 CURVE SMOOTH",
"421 404 LINE SMOOTH",
"457 404 OFFCURVE",
"466 393 OFFCURVE",
"466 354 CURVE SMOOTH",
"466 106 LINE SMOOTH",
"466 67 OFFCURVE",
"457 57 OFFCURVE",
"421 57 CURVE SMOOTH",
"181 57 LINE SMOOTH",
"145 57 OFFCURVE",
"136 67 OFFCURVE",
"136 106 CURVE SMOOTH",
"136 117 LINE",
"202 117 LINE SMOOTH",
"233 117 OFFCURVE",
"248 129 OFFCURVE",
"248 153 CURVE SMOOTH",
"248 177 OFFCURVE",
"233 189 OFFCURVE",
"202 189 CURVE SMOOTH",
"64 189 LINE",
"64 -77 LINE SMOOTH",
"64 -169 OFFCURVE",
"88 -205 OFFCURVE",
"165 -205 CURVE SMOOTH"
);
}
);
width = 604;
}
);
leftKerningGroup = "nya-kayahli";
rightKerningGroup = "nya-kayahl";
unicode = A911;
},
{
glyphname = "oe-kayahli";
lastChange = "2016-07-31 01:35:24 +0000";
layers = (
{
layerId = "67BB2AE4-562A-42A4-A220-84C7D1DB401D";
paths = (
{
closed = 1;
nodes = (
"298 -15 LINE",
"475 218 LINE",
"475 106 LINE SMOOTH",
"475 67 OFFCURVE",
"466 57 OFFCURVE",
"430 57 CURVE SMOOTH",
"399 57 OFFCURVE",
"384 45 OFFCURVE",
"384 21 CURVE SMOOTH",
"384 -3 OFFCURVE",
"399 -15 OFFCURVE",
"430 -15 CURVE SMOOTH",
"514 -15 OFFCURVE",
"547 8 OFFCURVE",
"547 124 CURVE SMOOTH",
"547 476 LINE",
"409 476 LINE SMOOTH",
"378 476 OFFCURVE",
"363 464 OFFCURVE",
"363 440 CURVE SMOOTH",
"363 416 OFFCURVE",
"378 404 OFFCURVE",
"409 404 CURVE SMOOTH",
"475 404 LINE",
"475 336 LINE",
"266 57 LINE",
"190 57 LINE SMOOTH",
"154 57 OFFCURVE",
"145 67 OFFCURVE",
"145 106 CURVE SMOOTH",
"145 404 LINE",
"212 404 LINE SMOOTH",
"243 404 OFFCURVE",
"258 416 OFFCURVE",
"258 440 CURVE SMOOTH",
"258 464 OFFCURVE",
"243 476 OFFCURVE",
"212 476 CURVE SMOOTH",
"73 476 LINE",
"73 124 LINE SMOOTH",
"73 24 OFFCURVE",
"98 -15 OFFCURVE",
"183 -15 CURVE SMOOTH"
);
}
);
width = 620;
}
);
leftKerningGroup = "oe-kayahli";
rightKerningGroup = "oe-kayahl";
unicode = A923;
},
{
glyphname = "oo-kayahli";
lastChange = "2016-07-31 01:35:24 +0000";
layers = (
{
layerId = "67BB2AE4-562A-42A4-A220-84C7D1DB401D";
paths = (
{
closed = 1;
nodes = (
"430 -15 LINE SMOOTH",
"514 -15 OFFCURVE",
"540 25 OFFCURVE",
"540 124 CURVE SMOOTH",
"540 337 LINE SMOOTH",
"540 436 OFFCURVE",
"514 476 OFFCURVE",
"430 476 CURVE SMOOTH",
"176 476 LINE SMOOTH",
"92 476 OFFCURVE",
"66 436 OFFCURVE",
"66 337 CURVE SMOOTH",
"66 124 LINE SMOOTH",
"66 25 OFFCURVE",
"92 -15 OFFCURVE",
"176 -15 CURVE SMOOTH"
);
},
{
closed = 1;
nodes = (
"147 57 OFFCURVE",
"138 68 OFFCURVE",
"138 108 CURVE SMOOTH",
"138 305 LINE",
"235 193 OFFCURVE",
"371 193 OFFCURVE",
"468 305 CURVE",
"468 108 LINE SMOOTH",
"468 68 OFFCURVE",
"459 57 OFFCURVE",
"423 57 CURVE SMOOTH",
"183 57 LINE SMOOTH"
);
},
{
closed = 1;
nodes = (
"162 402 OFFCURVE",
"171 404 OFFCURVE",
"183 404 CURVE SMOOTH",
"423 404 LINE SMOOTH",
"435 404 OFFCURVE",
"444 402 OFFCURVE",
"451 399 CURVE",
"393 260 OFFCURVE",
"213 260 OFFCURVE",
"155 399 CURVE"
);
}
);
width = 606;
}
);
leftKerningGroup = "oo-kayahli";
rightKerningGroup = "oo-kayahl";
unicode = A925;
},
{
glyphname = "pa-kayahli";
lastChange = "2016-07-31 01:35:24 +0000";
layers = (
{
layerId = "67BB2AE4-562A-42A4-A220-84C7D1DB401D";
paths = (
{
closed = 1;
nodes = (
"430 -15 LINE SMOOTH",
"515 -15 OFFCURVE",
"540 24 OFFCURVE",
"540 124 CURVE SMOOTH",
"540 195 LINE",
"402 195 LINE SMOOTH",
"371 195 OFFCURVE",
"356 183 OFFCURVE",
"356 159 CURVE SMOOTH",
"356 135 OFFCURVE",
"371 123 OFFCURVE",
"402 123 CURVE SMOOTH",
"468 123 LINE",
"468 106 LINE SMOOTH",
"468 67 OFFCURVE",
"459 57 OFFCURVE",
"423 57 CURVE SMOOTH",
"183 57 LINE SMOOTH",
"146 57 OFFCURVE",
"138 68 OFFCURVE",
"138 108 CURVE",
"540 308 LINE",
"540 337 LINE SMOOTH",
"540 437 OFFCURVE",
"515 476 OFFCURVE",
"430 476 CURVE SMOOTH",
"176 476 LINE SMOOTH",
"91 476 OFFCURVE",
"66 437 OFFCURVE",
"66 337 CURVE SMOOTH",
"66 124 LINE SMOOTH",
"66 24 OFFCURVE",
"91 -15 OFFCURVE",
"176 -15 CURVE SMOOTH"
);
},
{
closed = 1;
nodes = (
"138 354 LINE SMOOTH",
"138 393 OFFCURVE",
"147 404 OFFCURVE",
"183 404 CURVE SMOOTH",
"423 404 LINE SMOOTH",
"462 404 OFFCURVE",
"468 391 OFFCURVE",
"468 351 CURVE",
"138 186 LINE"
);
}
);
width = 603;
}
);
leftKerningGroup = "pa-kayahli";
rightKerningGroup = "pa-kayahl";
unicode = A915;
},
{
glyphname = "pha-kayahli";
lastChange = "2016-07-31 01:35:24 +0000";
layers = (
{
layerId = "67BB2AE4-562A-42A4-A220-84C7D1DB401D";
paths = (
{
closed = 1;
nodes = (
"219 -15 OFFCURVE",
"236 -3 OFFCURVE",
"236 21 CURVE SMOOTH",
"236 45 OFFCURVE",
"221 57 OFFCURVE",
"190 57 CURVE SMOOTH",
"154 57 OFFCURVE",
"145 67 OFFCURVE",
"145 106 CURVE SMOOTH",
"145 404 LINE",
"430 404 LINE SMOOTH",
"466 404 OFFCURVE",
"475 393 OFFCURVE",
"475 354 CURVE SMOOTH",
"475 -15 LINE",
"544 -15 LINE SMOOTH",
"575 -15 OFFCURVE",
"590 -3 OFFCURVE",
"590 22 CURVE SMOOTH",
"590 44 OFFCURVE",
"576 56 OFFCURVE",
"547 57 CURVE",
"547 337 LINE SMOOTH",
"547 437 OFFCURVE",
"522 476 OFFCURVE",
"437 476 CURVE SMOOTH",
"145 476 LINE",
"145 571 LINE SMOOTH",
"145 610 OFFCURVE",
"154 621 OFFCURVE",
"190 621 CURVE SMOOTH",
"419 621 LINE SMOOTH",
"446 621 OFFCURVE",
"452 612 OFFCURVE",
"455 589 CURVE",
"398 589 LINE SMOOTH",
"369 589 OFFCURVE",
"357 570 OFFCURVE",
"357 553 CURVE SMOOTH",
"357 529 OFFCURVE",
"371 517 OFFCURVE",
"398 517 CURVE SMOOTH",
"527 517 LINE",
"527 558 LINE SMOOTH",
"527 650 OFFCURVE",
"503 693 OFFCURVE",
"426 693 CURVE SMOOTH",
"183 693 LINE SMOOTH",
"98 693 OFFCURVE",
"73 654 OFFCURVE",
"73 554 CURVE SMOOTH",
"73 124 LINE SMOOTH",
"73 9 OFFCURVE",
"115 -15 OFFCURVE",
"184 -15 CURVE SMOOTH"
);
}
);
width = 633;
}
);
leftKerningGroup = "pha-kayahli";
rightKerningGroup = "pha-kayahl";
unicode = A916;
},
{
glyphname = "ra-kayahli";
lastChange = "2016-07-31 01:35:24 +0000";
layers = (
{
layerId = "67BB2AE4-562A-42A4-A220-84C7D1DB401D";
paths = (
{
closed = 1;
nodes = (
"468 -205 OFFCURVE",
"489 -201 OFFCURVE",
"513 -182 CURVE SMOOTH",
"536 -165 OFFCURVE",
"548 -126 OFFCURVE",
"548 -66 CURVE SMOOTH",
"548 337 LINE SMOOTH",
"548 437 OFFCURVE",
"523 476 OFFCURVE",
"438 476 CURVE SMOOTH",
"297 476 LINE SMOOTH",
"236 476 OFFCURVE",
"186 459 OFFCURVE",
"146 426 CURVE",
"146 438 LINE SMOOTH",
"146 468 OFFCURVE",
"134 483 OFFCURVE",
"110 483 CURVE SMOOTH",
"86 483 OFFCURVE",
"74 468 OFFCURVE",
"74 438 CURVE SMOOTH",
"74 -15 LINE",
"191 -15 LINE SMOOTH",
"222 -15 OFFCURVE",
"237 -3 OFFCURVE",
"237 21 CURVE SMOOTH",
"237 45 OFFCURVE",
"222 57 OFFCURVE",
"191 57 CURVE SMOOTH",
"146 57 LINE",
"146 232 LINE SMOOTH",
"146 344 OFFCURVE",
"197 404 OFFCURVE",
"297 404 CURVE SMOOTH",
"431 404 LINE SMOOTH",
"467 404 OFFCURVE",
"476 393 OFFCURVE",
"476 354 CURVE SMOOTH",
"476 -83 LINE SMOOTH",
"476 -122 OFFCURVE",
"467 -133 OFFCURVE",
"431 -133 CURVE SMOOTH",
"400 -133 OFFCURVE",
"385 -145 OFFCURVE",
"385 -169 CURVE SMOOTH",
"385 -193 OFFCURVE",
"400 -205 OFFCURVE",
"431 -205 CURVE SMOOTH"
);
}
);
width = 622;
}
);
leftKerningGroup = "ra-kayahli";
rightKerningGroup = "ra-kayahl";
unicode = A91A;
},
{
glyphname = "sa-kayahli";
lastChange = "2016-07-31 01:35:24 +0000";
layers = (
{
layerId = "67BB2AE4-562A-42A4-A220-84C7D1DB401D";
paths = (
{
closed = 1;
nodes = (
"167 -15 LINE SMOOTH",
"197 -15 OFFCURVE",
"212 -3 OFFCURVE",
"212 21 CURVE SMOOTH",
"212 45 OFFCURVE",
"197 57 OFFCURVE",
"167 57 CURVE SMOOTH",
"149 57 LINE",
"255 184 LINE",
"284 163 OFFCURVE",
"340 159 OFFCURVE",
"378 197 CURVE SMOOTH",
"416 235 OFFCURVE",
"416 298 OFFCURVE",
"378 336 CURVE SMOOTH",
"316 397 OFFCURVE",
"236 350 OFFCURVE",
"217 303 CURVE",
"174 303 LINE SMOOTH",
"138 303 OFFCURVE",
"129 314 OFFCURVE",
"129 354 CURVE SMOOTH",
"129 393 OFFCURVE",
"138 404 OFFCURVE",
"174 404 CURVE SMOOTH",
"413 404 LINE SMOOTH",
"449 404 OFFCURVE",
"458 393 OFFCURVE",
"458 354 CURVE SMOOTH",
"458 57 LINE",
"420 57 LINE SMOOTH",
"391 57 OFFCURVE",
"376 45 OFFCURVE",
"376 21 CURVE SMOOTH",
"376 -3 OFFCURVE",
"391 -15 OFFCURVE",
"420 -15 CURVE SMOOTH",
"530 -15 LINE",
"530 337 LINE SMOOTH",
"530 437 OFFCURVE",
"505 476 OFFCURVE",
"420 476 CURVE SMOOTH",
"167 476 LINE SMOOTH",
"84 476 OFFCURVE",
"57 432 OFFCURVE",
"57 353 CURVE SMOOTH",
"57 274 OFFCURVE",
"86 231 OFFCURVE",
"167 231 CURVE SMOOTH",
"207 231 LINE",
"57 52 LINE",
"57 -15 LINE"
);
},
{
closed = 1;
nodes = (
"269 236 OFFCURVE",
"270 296 OFFCURVE",
"308 296 CURVE SMOOTH",
"346 296 OFFCURVE",
"347 236 OFFCURVE",
"307 236 CURVE SMOOTH"
);
}
);
width = 604;
}
);
leftKerningGroup = "sa-kayahli";
rightKerningGroup = "sa-kayahl";
unicode = A90E;
},
{
glyphname = "sha-kayahli";
lastChange = "2016-07-31 01:35:24 +0000";
layers = (
{
layerId = "67BB2AE4-562A-42A4-A220-84C7D1DB401D";
paths = (
{
closed = 1;
nodes = (
"154 -15 LINE",
"154 173 LINE SMOOTH",
"154 212 OFFCURVE",
"163 223 OFFCURVE",
"199 223 CURVE SMOOTH",
"484 223 LINE",
"484 106 LINE SMOOTH",
"484 67 OFFCURVE",
"475 57 OFFCURVE",
"439 57 CURVE SMOOTH",
"408 57 OFFCURVE",
"393 45 OFFCURVE",
"393 21 CURVE SMOOTH",
"393 -3 OFFCURVE",
"408 -15 OFFCURVE",
"439 -15 CURVE SMOOTH",
"515 -15 OFFCURVE",
"556 9 OFFCURVE",
"556 124 CURVE SMOOTH",
"556 337 LINE SMOOTH",
"556 437 OFFCURVE",
"531 476 OFFCURVE",
"446 476 CURVE SMOOTH",
"192 476 LINE SMOOTH",
"116 476 OFFCURVE",
"82 441 OFFCURVE",
"82 354 CURVE SMOOTH",
"82 324 OFFCURVE",
"94 309 OFFCURVE",
"118 309 CURVE SMOOTH",
"142 309 OFFCURVE",
"154 324 OFFCURVE",
"154 354 CURVE SMOOTH",
"154 393 OFFCURVE",
"163 404 OFFCURVE",
"199 404 CURVE SMOOTH",
"439 404 LINE SMOOTH",
"475 404 OFFCURVE",
"484 393 OFFCURVE",
"484 354 CURVE SMOOTH",
"484 295 LINE",
"192 295 LINE SMOOTH",
"107 295 OFFCURVE",
"82 256 OFFCURVE",
"82 156 CURVE SMOOTH",
"82 57 LINE",
"53 56 OFFCURVE",
"39 45 OFFCURVE",
"39 22 CURVE SMOOTH",
"39 -3 OFFCURVE",
"55 -15 OFFCURVE",
"86 -15 CURVE SMOOTH"
);
}
);
width = 622;
}
);
leftKerningGroup = "sha-kayahli";
rightKerningGroup = "sha-kayahl";
unicode = A90F;
},
{
glyphname = "ta-kayahli";
lastChange = "2016-07-31 01:35:24 +0000";
layers = (
{
layerId = "67BB2AE4-562A-42A4-A220-84C7D1DB401D";
paths = (
{
closed = 1;
nodes = (
"482 -28 OFFCURVE",
"509 -17 OFFCURVE",
"524 4 CURVE SMOOTH",
"555 47 OFFCURVE",
"553 147 OFFCURVE",
"528 196 CURVE SMOOTH",
"515 221 OFFCURVE",
"500 240 OFFCURVE",
"482 253 CURVE SMOOTH",
"446 280 OFFCURVE",
"381 306 OFFCURVE",
"310 306 CURVE SMOOTH",
"261 306 OFFCURVE",
"206 283 OFFCURVE",
"145 236 CURVE",
"145 402 LINE",
"493 310 LINE",
"513 306 OFFCURVE",
"547 307 OFFCURVE",
"547 340 CURVE SMOOTH",
"547 359 OFFCURVE",
"532 373 OFFCURVE",
"512 377 CURVE",
"129 482 LINE",
"121 483 OFFCURVE",
"114 484 OFFCURVE",
"109 484 CURVE SMOOTH",
"85 484 OFFCURVE",
"73 471 OFFCURVE",
"73 445 CURVE SMOOTH",
"73 24 LINE SMOOTH",
"73 -7 OFFCURVE",
"85 -22 OFFCURVE",
"109 -22 CURVE SMOOTH",
"133 -22 OFFCURVE",
"145 -7 OFFCURVE",
"145 24 CURVE SMOOTH",
"145 146 LINE",
"193 191 OFFCURVE",
"260 235 OFFCURVE",
"313 235 CURVE SMOOTH",
"366 235 OFFCURVE",
"423 212 OFFCURVE",
"451 184 CURVE",
"437 184 LINE",
"346 192 OFFCURVE",
"290 69 OFFCURVE",
"358 4 CURVE",
"377 -17 OFFCURVE",
"406 -28 OFFCURVE",
"444 -28 CURVE SMOOTH"
);
},
{
closed = 1;
nodes = (
"428 44 OFFCURVE",
"419 48 OFFCURVE",
"412 55 CURVE",
"385 79 OFFCURVE",
"406 112 OFFCURVE",
"437 112 CURVE SMOOTH",
"474 112 LINE",
"475 93 LINE",
"474 60 OFFCURVE",
"463 44 OFFCURVE",
"440 44 CURVE SMOOTH"
);
}
);
width = 602;
}
);
leftKerningGroup = "ta-kayahli";
rightKerningGroup = "ta-kayahl";
unicode = A912;
},
{
glyphname = "tha-kayahli";
lastChange = "2016-07-31 01:35:24 +0000";
layers = (
{
layerId = "67BB2AE4-562A-42A4-A220-84C7D1DB401D";
paths = (
{
closed = 1;
nodes = (
"439 -205 LINE SMOOTH",
"516 -205 OFFCURVE",
"540 -169 OFFCURVE",
"540 -77 CURVE SMOOTH",
"540 189 LINE",
"402 189 LINE SMOOTH",
"371 189 OFFCURVE",
"356 177 OFFCURVE",
"356 153 CURVE SMOOTH",
"356 129 OFFCURVE",
"371 117 OFFCURVE",
"402 117 CURVE SMOOTH",
"468 117 LINE",
"468 106 LINE SMOOTH",
"468 67 OFFCURVE",
"459 57 OFFCURVE",
"423 57 CURVE SMOOTH",
"183 57 LINE SMOOTH",
"147 57 OFFCURVE",
"138 67 OFFCURVE",
"138 106 CURVE SMOOTH",
"138 354 LINE SMOOTH",
"138 393 OFFCURVE",
"147 404 OFFCURVE",
"183 404 CURVE SMOOTH",
"423 404 LINE SMOOTH",
"459 404 OFFCURVE",
"468 393 OFFCURVE",
"468 354 CURVE SMOOTH",
"468 342 LINE",
"402 342 LINE SMOOTH",
"371 342 OFFCURVE",
"356 330 OFFCURVE",
"356 306 CURVE SMOOTH",
"356 287 OFFCURVE",
"369 270 OFFCURVE",
"402 270 CURVE SMOOTH",
"540 270 LINE",
"540 337 LINE SMOOTH",
"540 437 OFFCURVE",
"515 476 OFFCURVE",
"430 476 CURVE SMOOTH",
"176 476 LINE SMOOTH",
"91 476 OFFCURVE",
"66 437 OFFCURVE",
"66 337 CURVE SMOOTH",
"66 124 LINE SMOOTH",
"66 24 OFFCURVE",
"91 -15 OFFCURVE",
"176 -15 CURVE SMOOTH",
"430 -15 LINE SMOOTH",
"445 -15 OFFCURVE",
"457 -14 OFFCURVE",
"468 -12 CURVE",
"468 -93 LINE SMOOTH",
"468 -126 OFFCURVE",
"463 -133 OFFCURVE",
"432 -133 CURVE SMOOTH",
"174 -133 LINE SMOOTH",
"141 -133 OFFCURVE",
"138 -132 OFFCURVE",
"138 -105 CURVE",
"194 -105 LINE SMOOTH",
"225 -105 OFFCURVE",
"236 -89 OFFCURVE",
"236 -70 CURVE SMOOTH",
"236 -45 OFFCURVE",
"222 -33 OFFCURVE",
"194 -33 CURVE SMOOTH",
"66 -33 LINE",
"66 -87 LINE SMOOTH",
"66 -176 OFFCURVE",
"88 -205 OFFCURVE",
"167 -205 CURVE SMOOTH"
);
}
);
width = 604;
}
);
leftKerningGroup = "tha-kayahli";
rightKerningGroup = "tha-kayahl";
unicode = A91E;
},
{
glyphname = "va-kayahli";
lastChange = "2016-07-31 01:35:24 +0000";
layers = (
{
layerId = "67BB2AE4-562A-42A4-A220-84C7D1DB401D";
paths = (
{
closed = 1;
nodes = (
"430 -15 LINE SMOOTH",
"514 -15 OFFCURVE",
"540 25 OFFCURVE",
"540 124 CURVE SMOOTH",
"540 476 LINE",
"476 476 LINE",
"302 368 LINE",
"130 476 LINE",
"66 476 LINE",
"66 313 LINE SMOOTH",
"66 284 OFFCURVE",
"78 269 OFFCURVE",
"102 269 CURVE SMOOTH",
"126 269 OFFCURVE",
"138 284 OFFCURVE",
"138 313 CURVE SMOOTH",
"138 388 LINE",
"302 281 LINE",
"468 389 LINE",
"468 106 LINE SMOOTH",
"468 67 OFFCURVE",
"459 57 OFFCURVE",
"423 57 CURVE SMOOTH",
"183 57 LINE SMOOTH",
"147 57 OFFCURVE",
"138 67 OFFCURVE",
"138 106 CURVE SMOOTH",
"138 133 LINE",
"205 133 LINE SMOOTH",
"236 133 OFFCURVE",
"251 145 OFFCURVE",
"251 169 CURVE SMOOTH",
"251 193 OFFCURVE",
"236 205 OFFCURVE",
"205 205 CURVE SMOOTH",
"66 205 LINE",
"66 124 LINE SMOOTH",
"66 25 OFFCURVE",
"92 -15 OFFCURVE",
"176 -15 CURVE SMOOTH"
);
}
);
width = 613;
}
);
leftKerningGroup = "va-kayahli";
rightKerningGroup = "va-kayahl";
unicode = A920;
},
{
glyphname = "wa-kayahli";
lastChange = "2016-07-31 01:35:24 +0000";
layers = (
{
layerId = "67BB2AE4-562A-42A4-A220-84C7D1DB401D";
paths = (
{
closed = 1;
nodes = (
"437 -15 LINE SMOOTH",
"521 -15 OFFCURVE",
"547 25 OFFCURVE",
"547 124 CURVE SMOOTH",
"547 338 LINE SMOOTH",
"547 437 OFFCURVE",
"522 476 OFFCURVE",
"437 476 CURVE SMOOTH",
"342 476 LINE SMOOTH",
"311 476 OFFCURVE",
"296 463 OFFCURVE",
"296 438 CURVE SMOOTH",
"296 415 OFFCURVE",
"311 404 OFFCURVE",
"342 404 CURVE SMOOTH",
"430 404 LINE SMOOTH",
"466 404 OFFCURVE",
"475 393 OFFCURVE",
"475 354 CURVE SMOOTH",
"475 106 LINE SMOOTH",
"475 67 OFFCURVE",
"466 57 OFFCURVE",
"430 57 CURVE SMOOTH",
"190 57 LINE SMOOTH",
"154 57 OFFCURVE",
"145 67 OFFCURVE",
"145 106 CURVE SMOOTH",
"145 404 LINE",
"175 404 LINE SMOOTH",
"205 404 OFFCURVE",
"220 415 OFFCURVE",
"220 438 CURVE SMOOTH",
"220 463 OFFCURVE",
"205 476 OFFCURVE",
"175 476 CURVE SMOOTH",
"145 476 LINE",
"145 580 LINE",
"154 572 LINE SMOOTH",
"201 527 OFFCURVE",
"245 579 OFFCURVE",
"209 620 CURVE",
"144 685 LINE",
"113 711 OFFCURVE",
"73 702 OFFCURVE",
"73 662 CURVE SMOOTH",
"73 124 LINE SMOOTH",
"73 25 OFFCURVE",
"99 -15 OFFCURVE",
"183 -15 CURVE SMOOTH"
);
}
);
width = 613;
}
);
leftKerningGroup = "wa-kayahli";
rightKerningGroup = "wa-kayahl";
unicode = A91D;
},
{
glyphname = "ya-kayahli";
lastChange = "2016-07-31 01:35:24 +0000";
layers = (
{
layerId = "67BB2AE4-562A-42A4-A220-84C7D1DB401D";
paths = (
{
closed = 1;
nodes = (
"210 -15 LINE SMOOTH",
"290 -15 OFFCURVE",
"347 27 OFFCURVE",
"347 124 CURVE SMOOTH",
"347 354 LINE SMOOTH",
"347 379 OFFCURVE",
"376 404 OFFCURVE",
"412 404 CURVE SMOOTH",
"430 404 LINE SMOOTH",
"466 404 OFFCURVE",
"475 393 OFFCURVE",
"475 354 CURVE SMOOTH",
"475 57 LINE",
"430 57 LINE SMOOTH",
"399 57 OFFCURVE",
"384 45 OFFCURVE",
"384 21 CURVE SMOOTH",
"384 -3 OFFCURVE",
"399 -15 OFFCURVE",
"430 -15 CURVE SMOOTH",
"547 -15 LINE",
"547 337 LINE SMOOTH",
"547 437 OFFCURVE",
"522 476 OFFCURVE",
"437 476 CURVE SMOOTH",
"412 476 LINE SMOOTH",
"332 476 OFFCURVE",
"275 433 OFFCURVE",
"275 337 CURVE SMOOTH",
"275 106 LINE SMOOTH",
"275 81 OFFCURVE",
"246 57 OFFCURVE",
"210 57 CURVE SMOOTH",
"190 57 LINE SMOOTH",
"154 57 OFFCURVE",
"145 67 OFFCURVE",
"145 106 CURVE SMOOTH",
"145 404 LINE",
"190 404 LINE SMOOTH",
"221 404 OFFCURVE",
"236 416 OFFCURVE",
"236 440 CURVE SMOOTH",
"236 464 OFFCURVE",
"221 476 OFFCURVE",
"190 476 CURVE SMOOTH",
"73 476 LINE",
"73 124 LINE SMOOTH",
"73 24 OFFCURVE",
"98 -15 OFFCURVE",
"183 -15 CURVE SMOOTH"
);
}
);
width = 621;
}
);
leftKerningGroup = "ya-kayahli";
rightKerningGroup = "ya-kayahl";
unicode = A91B;
},
{
glyphname = "za-kayahli";
lastChange = "2016-07-31 01:35:24 +0000";
layers = (
{
layerId = "67BB2AE4-562A-42A4-A220-84C7D1DB401D";
paths = (
{
closed = 1;
nodes = (
"223 -205 OFFCURVE",
"238 -193 OFFCURVE",
"238 -169 CURVE SMOOTH",
"238 -145 OFFCURVE",
"223 -133 OFFCURVE",
"192 -133 CURVE SMOOTH",
"156 -133 OFFCURVE",
"147 -122 OFFCURVE",
"147 -83 CURVE SMOOTH",
"147 236 LINE SMOOTH",
"147 349 OFFCURVE",
"201 418 OFFCURVE",
"306 418 CURVE SMOOTH",
"410 418 OFFCURVE",
"477 355 OFFCURVE",
"477 292 CURVE SMOOTH",
"477 228 OFFCURVE",
"398 184 OFFCURVE",
"339 184 CURVE SMOOTH",
"309 184 OFFCURVE",
"294 173 OFFCURVE",
"294 152 CURVE SMOOTH",
"294 139 OFFCURVE",
"300 128 OFFCURVE",
"311 120 CURVE SMOOTH",
"398 57 LINE",
"266 57 LINE SMOOTH",
"235 57 OFFCURVE",
"220 45 OFFCURVE",
"220 21 CURVE SMOOTH",
"220 -3 OFFCURVE",
"235 -15 OFFCURVE",
"266 -15 CURVE SMOOTH",
"504 -15 LINE SMOOTH",
"531 -15 OFFCURVE",
"545 -3 OFFCURVE",
"545 20 CURVE SMOOTH",
"545 35 OFFCURVE",
"540 45 OFFCURVE",
"530 52 CURVE SMOOTH",
"423 126 LINE",
"507 155 OFFCURVE",
"549 209 OFFCURVE",
"549 290 CURVE",
"556 486 OFFCURVE",
"267 547 OFFCURVE",
"147 433 CURVE",
"147 438 LINE SMOOTH",
"147 468 OFFCURVE",
"135 483 OFFCURVE",
"111 483 CURVE SMOOTH",
"87 483 OFFCURVE",
"75 468 OFFCURVE",
"75 438 CURVE SMOOTH",
"75 -66 LINE SMOOTH",
"75 -179 OFFCURVE",
"109 -205 OFFCURVE",
"192 -205 CURVE SMOOTH"
);
}
);
width = 602;
}
);
leftKerningGroup = "za-kayahli";
rightKerningGroup = "za-kayahl";
unicode = A910;
},
{
color = 4;
glyphname = zero;
lastChange = "2016-07-31 01:33:47 +0000";
layers = (
{
components = (
{
name = periodcentered;
transform = "{1, 0, 0, 1, 203, 37}";
}
);
layerId = "67BB2AE4-562A-42A4-A220-84C7D1DB401D";
paths = (
{
closed = 1;
nodes = (
"358 0 LINE SMOOTH",
"508 0 OFFCURVE",
"576 68 OFFCURVE",
"576 218 CURVE SMOOTH",
"576 447 LINE SMOOTH",
"576 597 OFFCURVE",
"508 665 OFFCURVE",
"358 665 CURVE SMOOTH",
"298 665 LINE SMOOTH",
"149 666 OFFCURVE",
"80 599 OFFCURVE",
"80 448 CURVE SMOOTH",
"80 218 LINE SMOOTH",
"80 68 OFFCURVE",
"148 0 OFFCURVE",
"298 0 CURVE SMOOTH"
);
},
{
closed = 1;
nodes = (
"188 72 OFFCURVE",
"152 108 OFFCURVE",
"152 218 CURVE SMOOTH",
"152 448 LINE SMOOTH",
"152 558 OFFCURVE",
"188 594 OFFCURVE",
"298 593 CURVE SMOOTH",
"358 593 LINE SMOOTH",
"468 593 OFFCURVE",
"504 557 OFFCURVE",
"504 447 CURVE SMOOTH",
"504 218 LINE SMOOTH",
"504 108 OFFCURVE",
"468 72 OFFCURVE",
"358 72 CURVE SMOOTH",
"298 72 LINE SMOOTH"
);
}
);
width = 656;
}
);
leftKerningGroup = zero;
rightKerningGroup = zero;
unicode = 0030;
},
{
color = 4;
glyphname = one;
lastChange = "2016-07-31 01:33:47 +0000";
layers = (
{
layerId = "67BB2AE4-562A-42A4-A220-84C7D1DB401D";
paths = (
{
closed = 1;
nodes = (
"263 0 OFFCURVE",
"276 13 OFFCURVE",
"276 36 CURVE SMOOTH",
"276 629 LINE SMOOTH",
"276 652 OFFCURVE",
"265 665 OFFCURVE",
"245 665 CURVE SMOOTH",
"226 665 OFFCURVE",
"214 660 OFFCURVE",
"200 647 CURVE SMOOTH",
"73 521 LINE SMOOTH",
"56 505 OFFCURVE",
"56 487 OFFCURVE",
"71 472 CURVE SMOOTH",
"86 457 OFFCURVE",
"103 460 OFFCURVE",
"118 474 CURVE SMOOTH",
"228 579 LINE",
"204 567 LINE",
"204 36 LINE SMOOTH",
"204 13 OFFCURVE",
"216 0 OFFCURVE",
"240 0 CURVE SMOOTH"
);
}
);
width = 376;
}
);
leftKerningGroup = one;
rightKerningGroup = one;
unicode = 0031;
},
{
color = 4;
glyphname = two;
lastChange = "2016-07-31 01:33:47 +0000";
layers = (
{
layerId = "67BB2AE4-562A-42A4-A220-84C7D1DB401D";
paths = (
{
closed = 1;
nodes = (
"498 0 OFFCURVE",
"510 13 OFFCURVE",
"510 36 CURVE SMOOTH",
"510 59 OFFCURVE",
"498 72 OFFCURVE",
"474 72 CURVE SMOOTH",
"133 72 LINE",
"146 170 OFFCURVE",
"217 208 OFFCURVE",
"315 264 CURVE SMOOTH",
"421 324 OFFCURVE",
"513 372 OFFCURVE",
"513 486 CURVE SMOOTH",
"513 608 OFFCURVE",
"456 665 OFFCURVE",
"334 665 CURVE SMOOTH",
"227 665 LINE SMOOTH",
"119 665 OFFCURVE",
"62 620 OFFCURVE",
"50 524 CURVE SMOOTH",
"48 500 OFFCURVE",
"61 487 OFFCURVE",
"85 487 CURVE SMOOTH",
"108 487 OFFCURVE",
"119 499 OFFCURVE",
"122 522 CURVE SMOOTH",
"130 575 OFFCURVE",
"159 593 OFFCURVE",
"227 593 CURVE SMOOTH",
"334 593 LINE SMOOTH",
"416 593 OFFCURVE",
"441 568 OFFCURVE",
"441 486 CURVE SMOOTH",
"441 416 OFFCURVE",
"386 387 OFFCURVE",
"280 326 CURVE SMOOTH",
"171 265 OFFCURVE",
"58 205 OFFCURVE",
"58 36 CURVE SMOOTH",
"58 12 OFFCURVE",
"72 0 OFFCURVE",
"95 0 CURVE SMOOTH",
"474 0 LINE SMOOTH"
);
}
);
width = 572;
}
);
leftKerningGroup = two;
rightKerningGroup = two;
unicode = 0032;
},
{
color = 4;
glyphname = three;
lastChange = "2016-07-31 01:33:47 +0000";
layers = (
{
layerId = "67BB2AE4-562A-42A4-A220-84C7D1DB401D";
paths = (
{
closed = 1;
nodes = (
"361 0 LINE SMOOTH",
"491 0 OFFCURVE",
"550 59 OFFCURVE",
"550 188 CURVE SMOOTH",
"550 270 OFFCURVE",
"526 324 OFFCURVE",
"475 352 CURVE",
"515 378 OFFCURVE",
"534 423 OFFCURVE",
"534 486 CURVE SMOOTH",
"534 608 OFFCURVE",
"477 665 OFFCURVE",
"355 665 CURVE SMOOTH",
"258 665 LINE SMOOTH",
"150 665 OFFCURVE",
"93 620 OFFCURVE",
"81 524 CURVE SMOOTH",
"79 500 OFFCURVE",
"93 487 OFFCURVE",
"116 487 CURVE SMOOTH",
"139 487 OFFCURVE",
"150 499 OFFCURVE",
"154 522 CURVE SMOOTH",
"161 575 OFFCURVE",
"190 593 OFFCURVE",
"258 593 CURVE SMOOTH",
"355 593 LINE SMOOTH",
"437 593 OFFCURVE",
"462 568 OFFCURVE",
"462 486 CURVE SMOOTH",
"462 416 OFFCURVE",
"444 376 OFFCURVE",
"390 376 CURVE SMOOTH",
"278 376 LINE SMOOTH",
"255 376 OFFCURVE",
"242 363 OFFCURVE",
"242 340 CURVE SMOOTH",
"242 317 OFFCURVE",
"255 304 OFFCURVE",
"278 304 CURVE SMOOTH",
"361 304 LINE SMOOTH",
"451 304 OFFCURVE",
"478 276 OFFCURVE",
"478 188 CURVE SMOOTH",
"478 100 OFFCURVE",
"451 72 OFFCURVE",
"361 72 CURVE SMOOTH",
"247 72 LINE SMOOTH",
"171 72 OFFCURVE",
"140 92 OFFCURVE",
"132 152 CURVE SMOOTH",
"129 176 OFFCURVE",
"118 188 OFFCURVE",
"95 188 CURVE SMOOTH",
"72 188 OFFCURVE",
"58 175 OFFCURVE",
"60 151 CURVE SMOOTH",
"71 48 OFFCURVE",
"131 0 OFFCURVE",
"247 0 CURVE SMOOTH"
);
}
);
width = 630;
}
);
leftKerningGroup = three;
rightKerningGroup = three;
unicode = 0033;
},
{
color = 4;
glyphname = four;
lastChange = "2016-07-31 01:33:47 +0000";
layers = (
{
layerId = "67BB2AE4-562A-42A4-A220-84C7D1DB401D";
paths = (
{
closed = 1;
nodes = (
"449 0 OFFCURVE",
"462 12 OFFCURVE",
"462 36 CURVE SMOOTH",
"464 629 LINE SMOOTH",
"464 652 OFFCURVE",
"451 665 OFFCURVE",
"426 665 CURVE SMOOTH",
"405 665 OFFCURVE",
"391 662 OFFCURVE",
"377 643 CURVE SMOOTH",
"55 215 LINE SMOOTH",
"44 201 OFFCURVE",
"40 190 OFFCURVE",
"40 177 CURVE SMOOTH",
"40 154 OFFCURVE",
"53 141 OFFCURVE",
"76 141 CURVE SMOOTH",
"517 141 LINE SMOOTH",
"540 141 OFFCURVE",
"553 154 OFFCURVE",
"553 177 CURVE SMOOTH",
"553 198 OFFCURVE",
"540 213 OFFCURVE",
"517 213 CURVE",
"111 212 LINE",
"119 194 LINE",
"418 593 LINE",
"392 577 LINE",
"390 36 LINE SMOOTH",
"390 13 OFFCURVE",
"403 0 OFFCURVE",
"426 0 CURVE SMOOTH"
);
}
);
width = 593;
}
);
leftKerningGroup = four;
rightKerningGroup = four;
unicode = 0034;
},
{
color = 4;
glyphname = five;
lastChange = "2016-07-31 01:33:47 +0000";
layers = (
{
layerId = "67BB2AE4-562A-42A4-A220-84C7D1DB401D";
paths = (
{
closed = 1;
nodes = (
"371 0 LINE SMOOTH",
"500 0 OFFCURVE",
"560 60 OFFCURVE",
"560 189 CURVE SMOOTH",
"560 258 LINE SMOOTH",
"560 387 OFFCURVE",
"500 447 OFFCURVE",
"371 447 CURVE SMOOTH",
"297 447 LINE SMOOTH",
"244 447 OFFCURVE",
"201 440 OFFCURVE",
"167 426 CURVE",
"167 593 LINE",
"522 593 LINE SMOOTH",
"546 593 OFFCURVE",
"558 606 OFFCURVE",
"558 629 CURVE SMOOTH",
"558 652 OFFCURVE",
"546 665 OFFCURVE",
"522 665 CURVE SMOOTH",
"131 665 LINE SMOOTH",
"108 665 OFFCURVE",
"95 652 OFFCURVE",
"95 629 CURVE SMOOTH",
"95 382 LINE SMOOTH",
"95 361 OFFCURVE",
"105 348 OFFCURVE",
"126 342 CURVE SMOOTH",
"134 340 LINE SMOOTH",
"153 334 OFFCURVE",
"165 340 OFFCURVE",
"182 352 CURVE SMOOTH",
"205 367 OFFCURVE",
"242 375 OFFCURVE",
"297 375 CURVE SMOOTH",
"371 375 LINE SMOOTH",
"460 375 OFFCURVE",
"488 347 OFFCURVE",
"488 258 CURVE SMOOTH",
"488 189 LINE SMOOTH",
"488 100 OFFCURVE",
"461 72 OFFCURVE",
"371 72 CURVE SMOOTH",
"267 72 LINE SMOOTH",
"191 72 OFFCURVE",
"160 92 OFFCURVE",
"152 152 CURVE SMOOTH",
"149 176 OFFCURVE",
"138 188 OFFCURVE",
"115 188 CURVE SMOOTH",
"92 188 OFFCURVE",
"78 175 OFFCURVE",
"80 151 CURVE SMOOTH",
"91 48 OFFCURVE",
"151 0 OFFCURVE",
"267 0 CURVE SMOOTH"
);
}
);
width = 640;
}
);
leftKerningGroup = five;
rightKerningGroup = fve;
unicode = 0035;
},
{
color = 4;
glyphname = six;
lastChange = "2016-07-31 01:33:47 +0000";
layers = (
{
layerId = "67BB2AE4-562A-42A4-A220-84C7D1DB401D";
paths = (
{
closed = 1;
nodes = (
"373 0 LINE SMOOTH",
"502 0 OFFCURVE",
"562 60 OFFCURVE",
"562 189 CURVE SMOOTH",
"562 256 LINE SMOOTH",
"562 385 OFFCURVE",
"502 445 OFFCURVE",
"373 445 CURVE SMOOTH",
"269 445 LINE SMOOTH",
"215 445 OFFCURVE",
"176 427 OFFCURVE",
"152 392 CURVE",
"152 486 LINE SMOOTH",
"152 568 OFFCURVE",
"177 593 OFFCURVE",
"259 593 CURVE SMOOTH",
"383 593 LINE SMOOTH",
"452 593 OFFCURVE",
"480 575 OFFCURVE",
"488 522 CURVE SMOOTH",
"491 499 OFFCURVE",
"502 487 OFFCURVE",
"525 487 CURVE SMOOTH",
"549 487 OFFCURVE",
"563 500 OFFCURVE",
"560 524 CURVE SMOOTH",
"549 620 OFFCURVE",
"491 665 OFFCURVE",
"383 665 CURVE SMOOTH",
"259 665 LINE SMOOTH",
"137 665 OFFCURVE",
"80 608 OFFCURVE",
"80 486 CURVE SMOOTH",
"80 188 LINE SMOOTH",
"80 59 OFFCURVE",
"140 0 OFFCURVE",
"269 0 CURVE SMOOTH"
);
},
{
closed = 1;
nodes = (
"179 72 OFFCURVE",
"152 100 OFFCURVE",
"152 188 CURVE SMOOTH",
"152 257 LINE SMOOTH",
"152 345 OFFCURVE",
"179 373 OFFCURVE",
"269 373 CURVE SMOOTH",
"373 373 LINE SMOOTH",
"462 373 OFFCURVE",
"490 345 OFFCURVE",
"490 256 CURVE SMOOTH",
"490 189 LINE SMOOTH",
"490 100 OFFCURVE",
"462 72 OFFCURVE",
"373 72 CURVE SMOOTH",
"269 72 LINE SMOOTH"
);
}
);
width = 642;
}
);
leftKerningGroup = six;
rightKerningGroup = sx;
unicode = 0036;
},
{
color = 4;
glyphname = seven;
lastChange = "2016-07-31 01:33:47 +0000";
layers = (
{
layerId = "67BB2AE4-562A-42A4-A220-84C7D1DB401D";
paths = (
{
closed = 1;
nodes = (
"208 0 OFFCURVE",
"221 13 OFFCURVE",
"221 37 CURVE SMOOTH",
"224 214 OFFCURVE",
"249 271 OFFCURVE",
"340 334 CURVE SMOOTH",
"432 402 OFFCURVE",
"470 489 OFFCURVE",
"470 629 CURVE SMOOTH",
"470 652 OFFCURVE",
"457 665 OFFCURVE",
"434 665 CURVE SMOOTH",
"76 665 LINE SMOOTH",
"53 665 OFFCURVE",
"40 652 OFFCURVE",
"40 629 CURVE SMOOTH",
"40 606 OFFCURVE",
"53 593 OFFCURVE",
"76 593 CURVE SMOOTH",
"397 593 LINE",
"392 497 OFFCURVE",
"363 441 OFFCURVE",
"298 392 CURVE SMOOTH",
"186 314 OFFCURVE",
"153 236 OFFCURVE",
"149 37 CURVE SMOOTH",
"149 13 OFFCURVE",
"162 0 OFFCURVE",
"185 0 CURVE SMOOTH"
);
}
);
width = 510;
}
);
leftKerningGroup = seven;
rightKerningGroup = seven;
unicode = 0037;
},
{
color = 4;
glyphname = eight;
lastChange = "2016-07-31 01:33:47 +0000";
layers = (
{
layerId = "67BB2AE4-562A-42A4-A220-84C7D1DB401D";
paths = (
{
closed = 1;
nodes = (
"534 376 OFFCURVE",
"556 423 OFFCURVE",
"556 488 CURVE SMOOTH",
"556 608 OFFCURVE",
"499 665 OFFCURVE",
"377 665 CURVE SMOOTH",
"280 665 LINE SMOOTH",
"158 665 OFFCURVE",
"101 608 OFFCURVE",
"101 488 CURVE SMOOTH",
"101 424 OFFCURVE",
"123 378 OFFCURVE",
"167 347 CURVE",
"108 318 OFFCURVE",
"80 265 OFFCURVE",
"80 188 CURVE SMOOTH",
"80 59 OFFCURVE",
"140 0 OFFCURVE",
"269 0 CURVE SMOOTH",
"383 0 LINE SMOOTH",
"512 0 OFFCURVE",
"572 59 OFFCURVE",
"572 188 CURVE SMOOTH",
"572 264 OFFCURVE",
"545 316 OFFCURVE",
"488 345 CURVE"
);
},
{
closed = 1;
nodes = (
"377 593 LINE SMOOTH",
"459 593 OFFCURVE",
"484 568 OFFCURVE",
"484 488 CURVE SMOOTH",
"484 415 OFFCURVE",
"466 376 OFFCURVE",
"383 376 CURVE",
"269 376 LINE",
"200 376 OFFCURVE",
"173 403 OFFCURVE",
"173 488 CURVE SMOOTH",
"173 568 OFFCURVE",
"198 593 OFFCURVE",
"280 593 CURVE SMOOTH"
);
},
{
closed = 1;
nodes = (
"269 72 LINE SMOOTH",
"179 72 OFFCURVE",
"152 100 OFFCURVE",
"152 188 CURVE SMOOTH",
"152 276 OFFCURVE",
"179 304 OFFCURVE",
"269 304 CURVE",
"383 304 LINE",
"473 304 OFFCURVE",
"500 276 OFFCURVE",
"500 188 CURVE SMOOTH",
"500 100 OFFCURVE",
"473 72 OFFCURVE",
"383 72 CURVE SMOOTH"
);
}
);
width = 652;
}
);
leftKerningGroup = eight;
rightKerningGroup = eght;
unicode = 0038;
},
{
color = 4;
glyphname = onesuperior;
lastChange = "2016-07-31 01:33:47 +0000";
layers = (
{
layerId = "67BB2AE4-562A-42A4-A220-84C7D1DB401D";
paths = (
{
closed = 1;
nodes = (
"210 304 OFFCURVE",
"222 317 OFFCURVE",
"222 340 CURVE SMOOTH",
"222 639 LINE SMOOTH",
"222 656 OFFCURVE",
"213 665 OFFCURVE",
"195 665 CURVE SMOOTH",
"176 665 OFFCURVE",
"166 662 OFFCURVE",
"150 647 CURVE SMOOTH",
"73 571 LINE SMOOTH",
"56 555 OFFCURVE",
"56 537 OFFCURVE",
"72 520 CURVE SMOOTH",
"88 504 OFFCURVE",
"106 503 OFFCURVE",
"123 520 CURVE SMOOTH",
"167 563 LINE",
"150 557 LINE",
"150 340 LINE SMOOTH",
"150 317 OFFCURVE",
"163.007 304 OFFCURVE",
"186 304 CURVE SMOOTH"
);
}
);
width = 282;
}
);
leftKerningGroup = onesuperior;
leftMetricsKey = one;
rightKerningGroup = onesuperor;
rightMetricsKey = "=one-40";
unicode = 00B9;
},
{
color = 4;
glyphname = twosuperior;
lastChange = "2016-07-31 01:33:47 +0000";
layers = (
{
layerId = "67BB2AE4-562A-42A4-A220-84C7D1DB401D";
paths = (
{
closed = 1;
nodes = (
"299 304 OFFCURVE",
"311 316 OFFCURVE",
"311 338 CURVE SMOOTH",
"311 360 OFFCURVE",
"299 372 OFFCURVE",
"277 372 CURVE SMOOTH",
"132 372 LINE",
"142 400 OFFCURVE",
"166 414 OFFCURVE",
"205 438 CURVE SMOOTH",
"253 468 OFFCURVE",
"304 494 OFFCURVE",
"304 561 CURVE",
"304 627 OFFCURVE",
"270 661 OFFCURVE",
"204 661 CURVE SMOOTH",
"154 661 LINE SMOOTH",
"96 661 OFFCURVE",
"62 637 OFFCURVE",
"51 591 CURVE SMOOTH",
"46 568 OFFCURVE",
"60 555 OFFCURVE",
"83 555 CURVE SMOOTH",
"100 555 OFFCURVE",
"105 561 OFFCURVE",
"121 584 CURVE SMOOTH",
"126 591 OFFCURVE",
"136 593 OFFCURVE",
"154 593 CURVE SMOOTH",
"204 593 LINE SMOOTH",
"232 593 OFFCURVE",
"236 589 OFFCURVE",
"236 561 CURVE SMOOTH",
"236 535 OFFCURVE",
"219 527 OFFCURVE",
"169 496 CURVE SMOOTH",
"119 465 OFFCURVE",
"59 432 OFFCURVE",
"59 338 CURVE SMOOTH",
"59 315 OFFCURVE",
"72 304 OFFCURVE",
"94 304 CURVE SMOOTH",
"277 304 LINE SMOOTH"
);
}
);
width = 370;
}
);
leftKerningGroup = twosuperior;
leftMetricsKey = two;
rightKerningGroup = twosuperor;
rightMetricsKey = two;
unicode = 00B2;
},
{
color = 4;
glyphname = threesuperior;
layers = (
{
layerId = "67BB2AE4-562A-42A4-A220-84C7D1DB401D";
paths = (
{
closed = 1;
nodes = (
"221 306 LINE SMOOTH",
"293 306 OFFCURVE",
"330 342 OFFCURVE",
"330 414 CURVE SMOOTH",
"330 487 OFFCURVE",
"294 523 OFFCURVE",
"221 523 CURVE SMOOTH",
"196 523 LINE SMOOTH",
"174 523 OFFCURVE",
"162 511 OFFCURVE",
"162 489 CURVE SMOOTH",
"162 467 OFFCURVE",
"174 455 OFFCURVE",
"196 455 CURVE SMOOTH",
"221 455 LINE SMOOTH",
"256 455 OFFCURVE",
"262 449 OFFCURVE",
"262 414 CURVE SMOOTH",
"262 381 OFFCURVE",
"256 374 OFFCURVE",
"221 374 CURVE SMOOTH",
"166 374 LINE SMOOTH",
"146 374 OFFCURVE",
"135 376 OFFCURVE",
"130 384 CURVE SMOOTH",
"115 408 OFFCURVE",
"113 414 OFFCURVE",
"93 414 CURVE SMOOTH",
"70 414 OFFCURVE",
"56 401 OFFCURVE",
"61 378 CURVE SMOOTH",
"71 330 OFFCURVE",
"107 306 OFFCURVE",
"166 306 CURVE SMOOTH"
);
},
{
closed = 1;
nodes = (
"288 488 OFFCURVE",
"323 519 OFFCURVE",
"323 568 CURVE SMOOTH",
"323 627 OFFCURVE",
"288 663 OFFCURVE",
"219 663 CURVE SMOOTH",
"168 663 LINE SMOOTH",
"112 663 OFFCURVE",
"77 640 OFFCURVE",
"67 594 CURVE SMOOTH",
"62 572 OFFCURVE",
"74 558 OFFCURVE",
"101 558 CURVE SMOOTH",
"121 558 OFFCURVE",
"124 570 OFFCURVE",
"137 587 CURVE",
"142 593 OFFCURVE",
"151 595 OFFCURVE",
"168 595 CURVE SMOOTH",
"219 595 LINE SMOOTH",
"249 595 OFFCURVE",
"255 590 OFFCURVE",
"255 558 CURVE SMOOTH",
"255 538 OFFCURVE",
"246 523 OFFCURVE",
"218 523 CURVE",
"218 488 LINE"
);
}
);
width = 370;
}
);
leftKerningGroup = threesuperior;
leftMetricsKey = three;
rightKerningGroup = threesuperor;
rightMetricsKey = "=three-40";
unicode = 00B3;
},
{
color = 4;
glyphname = foursuperior;
layers = (
{
layerId = "67BB2AE4-562A-42A4-A220-84C7D1DB401D";
paths = (
{
closed = 1;
nodes = (
"277 304 OFFCURVE",
"289 316 OFFCURVE",
"289 338 CURVE SMOOTH",
"291 631 LINE SMOOTH",
"291 653 OFFCURVE",
"281 665 OFFCURVE",
"261 665 CURVE SMOOTH",
"243 665 OFFCURVE",
"231 658 OFFCURVE",
"220 644 CURVE SMOOTH",
"54 440 LINE SMOOTH",
"44 427 OFFCURVE",
"40 417 OFFCURVE",
"40 405 CURVE SMOOTH",
"40 383 OFFCURVE",
"52 371 OFFCURVE",
"74 371 CURVE SMOOTH",
"322 371 LINE SMOOTH",
"344 371 OFFCURVE",
"356 383 OFFCURVE",
"356 405 CURVE SMOOTH",
"356 429 OFFCURVE",
"344 440 OFFCURVE",
"322 440 CURVE",
"94 440 LINE",
"100 404 LINE",
"249 584 LINE",
"223 593 LINE",
"221 338 LINE SMOOTH",
"221 316 OFFCURVE",
"233 304 OFFCURVE",
"255 304 CURVE SMOOTH"
);
}
);
width = 396;
}
);
leftKerningGroup = foursuperior;
leftMetricsKey = four;
rightKerningGroup = foursuperor;
rightMetricsKey = four;
unicode = 2074;
},
{
color = 4;
glyphname = fraction;
layers = (
{
layerId = "67BB2AE4-562A-42A4-A220-84C7D1DB401D";
paths = (
{
closed = 1;
nodes = (
"-122 -14 OFFCURVE",
"-112 -8 OFFCURVE",
"-105 1 CURVE SMOOTH",
"356 611 LINE SMOOTH",
"360 617 OFFCURVE",
"363 625 OFFCURVE",
"363 633 CURVE SMOOTH",
"363 653 OFFCURVE",
"347 669 OFFCURVE",
"327 669 CURVE SMOOTH",
"315 669 OFFCURVE",
"305 663 OFFCURVE",
"298 654 CURVE SMOOTH",
"-163 44 LINE SMOOTH",
"-167 38 OFFCURVE",
"-170 30 OFFCURVE",
"-170 22 CURVE SMOOTH",
"-170 2 OFFCURVE",
"-154 -14 OFFCURVE",
"-134 -14 CURVE SMOOTH"
);
}
);
width = 263;
}
);
leftKerningGroup = fraction;
rightKerningGroup = fracton;
unicode = 2044;
},
{
glyphname = "eight-kayahli";
lastChange = "2016-07-31 01:35:30 +0000";
layers = (
{
layerId = "67BB2AE4-562A-42A4-A220-84C7D1DB401D";
paths = (
{
closed = 1;
nodes = (
"434 -15 LINE SMOOTH",
"519 -15 OFFCURVE",
"544 24 OFFCURVE",
"544 124 CURVE SMOOTH",
"544 154 OFFCURVE",
"532 169 OFFCURVE",
"508 169 CURVE SMOOTH",
"484 169 OFFCURVE",
"472 154 OFFCURVE",
"472 124 CURVE SMOOTH",
"472 106 LINE SMOOTH",
"472 67 OFFCURVE",
"463 57 OFFCURVE",
"427 57 CURVE SMOOTH",
"187 57 LINE SMOOTH",
"151 57 OFFCURVE",
"142 67 OFFCURVE",
"142 106 CURVE SMOOTH",
"142 438 LINE SMOOTH",
"142 468 OFFCURVE",
"130 483 OFFCURVE",
"106 483 CURVE SMOOTH",
"82 483 OFFCURVE",
"70 468 OFFCURVE",
"70 438 CURVE SMOOTH",
"70 124 LINE SMOOTH",
"70 24 OFFCURVE",
"95 -15 OFFCURVE",
"180 -15 CURVE SMOOTH"
);
}
);
width = 576;
}
);
leftKerningGroup = "eight-kayahli";
rightKerningGroup = "eght-kayahl";
unicode = A908;
},
{
glyphname = "five-kayahli";
lastChange = "2016-07-31 01:35:30 +0000";
layers = (
{
layerId = "67BB2AE4-562A-42A4-A220-84C7D1DB401D";
paths = (
{
closed = 1;
nodes = (
"246 -15 LINE SMOOTH",
"277 -15 OFFCURVE",
"292 -3 OFFCURVE",
"292 21 CURVE SMOOTH",
"292 45 OFFCURVE",
"277 57 OFFCURVE",
"246 57 CURVE SMOOTH",
"183 57 LINE SMOOTH",
"147 57 OFFCURVE",
"138 67 OFFCURVE",
"138 106 CURVE SMOOTH",
"138 354 LINE SMOOTH",
"138 393 OFFCURVE",
"147 404 OFFCURVE",
"183 404 CURVE SMOOTH",
"468 404 LINE",
"468 354 LINE SMOOTH",
"468 324 OFFCURVE",
"480 309 OFFCURVE",
"504 309 CURVE SMOOTH",
"528 309 OFFCURVE",
"540 324 OFFCURVE",
"540 354 CURVE SMOOTH",
"540 476 LINE",
"176 476 LINE SMOOTH",
"91 476 OFFCURVE",
"66 437 OFFCURVE",
"66 337 CURVE SMOOTH",
"66 124 LINE SMOOTH",
"66 24 OFFCURVE",
"91 -15 OFFCURVE",
"176 -15 CURVE SMOOTH"
);
}
);
width = 575;
}
);
leftKerningGroup = "five-kayahli";
rightKerningGroup = "fve-kayahl";
unicode = A905;
},
{
glyphname = "four-kayahli";
lastChange = "2016-07-31 01:35:30 +0000";
layers = (
{
layerId = "67BB2AE4-562A-42A4-A220-84C7D1DB401D";
paths = (
{
closed = 1;
nodes = (
"468 -205 OFFCURVE",
"489 -201 OFFCURVE",
"513 -182 CURVE SMOOTH",
"536 -165 OFFCURVE",
"548 -126 OFFCURVE",
"548 -66 CURVE SMOOTH",
"548 337 LINE SMOOTH",
"548 437 OFFCURVE",
"523 476 OFFCURVE",
"438 476 CURVE SMOOTH",
"297 476 LINE SMOOTH",
"236 476 OFFCURVE",
"186 459 OFFCURVE",
"146 426 CURVE",
"146 438 LINE SMOOTH",
"146 468 OFFCURVE",
"134 483 OFFCURVE",
"110 483 CURVE SMOOTH",
"86 483 OFFCURVE",
"74 468 OFFCURVE",
"74 438 CURVE SMOOTH",
"74 -15 LINE",
"191 -15 LINE SMOOTH",
"222 -15 OFFCURVE",
"237 -3 OFFCURVE",
"237 21 CURVE SMOOTH",
"237 45 OFFCURVE",
"222 57 OFFCURVE",
"191 57 CURVE SMOOTH",
"146 57 LINE",
"146 232 LINE SMOOTH",
"146 344 OFFCURVE",
"197 404 OFFCURVE",
"297 404 CURVE SMOOTH",
"431 404 LINE SMOOTH",
"467 404 OFFCURVE",
"476 393 OFFCURVE",
"476 354 CURVE SMOOTH",
"476 -83 LINE SMOOTH",
"476 -122 OFFCURVE",
"467 -133 OFFCURVE",
"431 -133 CURVE SMOOTH",
"400 -133 OFFCURVE",
"385 -145 OFFCURVE",
"385 -169 CURVE SMOOTH",
"385 -193 OFFCURVE",
"400 -205 OFFCURVE",
"431 -205 CURVE SMOOTH"
);
}
);
width = 622;
}
);
leftKerningGroup = "four-kayahli";
rightKerningGroup = "four-kayahl";
unicode = A904;
},
{
glyphname = "nine-kayahli";
lastChange = "2016-07-31 01:35:30 +0000";
layers = (
{
layerId = "67BB2AE4-562A-42A4-A220-84C7D1DB401D";
paths = (
{
closed = 1;
nodes = (
"437 -15 LINE SMOOTH",
"521 -15 OFFCURVE",
"547 25 OFFCURVE",
"547 124 CURVE SMOOTH",
"547 338 LINE SMOOTH",
"547 437 OFFCURVE",
"522 476 OFFCURVE",
"437 476 CURVE SMOOTH",
"342 476 LINE SMOOTH",
"311 476 OFFCURVE",
"296 463 OFFCURVE",
"296 438 CURVE SMOOTH",
"296 415 OFFCURVE",
"311 404 OFFCURVE",
"342 404 CURVE SMOOTH",
"430 404 LINE SMOOTH",
"466 404 OFFCURVE",
"475 393 OFFCURVE",
"475 354 CURVE SMOOTH",
"475 106 LINE SMOOTH",
"475 67 OFFCURVE",
"466 57 OFFCURVE",
"430 57 CURVE SMOOTH",
"190 57 LINE SMOOTH",
"154 57 OFFCURVE",
"145 67 OFFCURVE",
"145 106 CURVE SMOOTH",
"145 404 LINE",
"175 404 LINE SMOOTH",
"205 404 OFFCURVE",
"220 415 OFFCURVE",
"220 438 CURVE SMOOTH",
"220 463 OFFCURVE",
"205 476 OFFCURVE",
"175 476 CURVE SMOOTH",
"145 476 LINE",
"145 580 LINE",
"154 572 LINE SMOOTH",
"201 527 OFFCURVE",
"245 579 OFFCURVE",
"209 620 CURVE",
"144 685 LINE",
"113 711 OFFCURVE",
"73 702 OFFCURVE",
"73 662 CURVE SMOOTH",
"73 124 LINE SMOOTH",
"73 25 OFFCURVE",
"99 -15 OFFCURVE",
"183 -15 CURVE SMOOTH"
);
}
);
width = 613;
}
);
leftKerningGroup = "nine-kayahli";
rightKerningGroup = "nne-kayahl";
unicode = A909;
},
{
glyphname = "one-kayahli";
lastChange = "2016-07-31 01:35:30 +0000";
layers = (
{
layerId = "67BB2AE4-562A-42A4-A220-84C7D1DB401D";
paths = (
{
closed = 1;
nodes = (
"429 -15 LINE SMOOTH",
"502 -15 OFFCURVE",
"538 21 OFFCURVE",
"538 93 CURVE SMOOTH",
"538 162 OFFCURVE",
"491 197 OFFCURVE",
"398 197 CURVE SMOOTH",
"341 197 OFFCURVE",
"280 150 OFFCURVE",
"214 57 CURVE",
"181 57 LINE SMOOTH",
"145 57 OFFCURVE",
"136 67 OFFCURVE",
"136 106 CURVE SMOOTH",
"136 185 LINE SMOOTH",
"136 224 OFFCURVE",
"145 233 OFFCURVE",
"181 233 CURVE SMOOTH",
"538 233 LINE",
"538 337 LINE SMOOTH",
"538 437 OFFCURVE",
"513 476 OFFCURVE",
"428 476 CURVE SMOOTH",
"174 476 LINE SMOOTH",
"98 476 OFFCURVE",
"64 441 OFFCURVE",
"64 354 CURVE SMOOTH",
"64 324 OFFCURVE",
"76 309 OFFCURVE",
"100 309 CURVE SMOOTH",
"124 309 OFFCURVE",
"136 324 OFFCURVE",
"136 354 CURVE SMOOTH",
"136 393 OFFCURVE",
"145 404 OFFCURVE",
"181 404 CURVE SMOOTH",
"421 404 LINE SMOOTH",
"457 404 OFFCURVE",
"466 393 OFFCURVE",
"466 354 CURVE SMOOTH",
"466 305 LINE",
"174 305 LINE SMOOTH",
"89 305 OFFCURVE",
"64 268 OFFCURVE",
"64 168 CURVE SMOOTH",
"64 124 LINE SMOOTH",
"64 24 OFFCURVE",
"89 -15 OFFCURVE",
"174 -15 CURVE SMOOTH"
);
},
{
closed = 1;
nodes = (
"346 102 OFFCURVE",
"376 125 OFFCURVE",
"398 125 CURVE SMOOTH",
"443 125 OFFCURVE",
"466 115 OFFCURVE",
"466 95 CURVE SMOOTH",
"466 68 OFFCURVE",
"457 57 OFFCURVE",
"421 57 CURVE SMOOTH",
"309 57 LINE"
);
}
);
width = 601;
}
);
leftKerningGroup = "one-kayahli";
rightKerningGroup = "one-kayahl";
unicode = A901;
},
{
glyphname = "seven-kayahli";
lastChange = "2016-07-31 01:35:30 +0000";
layers = (
{
layerId = "67BB2AE4-562A-42A4-A220-84C7D1DB401D";
paths = (
{
closed = 1;
nodes = (
"430 -15 LINE SMOOTH",
"514 -15 OFFCURVE",
"540 25 OFFCURVE",
"540 124 CURVE SMOOTH",
"540 662 LINE SMOOTH",
"540 701 OFFCURVE",
"499 711 OFFCURVE",
"470 685 CURVE",
"405 620 LINE",
"372 582 OFFCURVE",
"408 519 OFFCURVE",
"468 579 CURVE",
"468 476 LINE",
"438 476 LINE SMOOTH",
"409 476 OFFCURVE",
"394 463 OFFCURVE",
"394 438 CURVE SMOOTH",
"394 415 OFFCURVE",
"409 404 OFFCURVE",
"438 404 CURVE SMOOTH",
"468 404 LINE",
"468 106 LINE SMOOTH",
"468 67 OFFCURVE",
"459 57 OFFCURVE",
"423 57 CURVE SMOOTH",
"183 57 LINE SMOOTH",
"147 57 OFFCURVE",
"138 67 OFFCURVE",
"138 106 CURVE SMOOTH",
"138 354 LINE SMOOTH",
"138 393 OFFCURVE",
"147 404 OFFCURVE",
"183 404 CURVE SMOOTH",
"271 404 LINE SMOOTH",
"302 404 OFFCURVE",
"317 415 OFFCURVE",
"317 438 CURVE SMOOTH",
"317 463 OFFCURVE",
"302 476 OFFCURVE",
"271 476 CURVE SMOOTH",
"176 476 LINE SMOOTH",
"91 476 OFFCURVE",
"66 437 OFFCURVE",
"66 338 CURVE SMOOTH",
"66 124 LINE SMOOTH",
"66 25 OFFCURVE",
"92 -15 OFFCURVE",
"176 -15 CURVE SMOOTH"
);
}
);
width = 613;
}
);
leftKerningGroup = "seven-kayahli";
rightKerningGroup = "seven-kayahl";
unicode = A907;
},
{
glyphname = "six-kayahli";
lastChange = "2016-07-31 01:35:30 +0000";
layers = (
{
layerId = "67BB2AE4-562A-42A4-A220-84C7D1DB401D";
paths = (
{
closed = 1;
nodes = (
"482 -27 OFFCURVE",
"509 -16 OFFCURVE",
"524 5 CURVE SMOOTH",
"539 26 OFFCURVE",
"547 62 OFFCURVE",
"547 112 CURVE SMOOTH",
"547 337 LINE SMOOTH",
"547 437 OFFCURVE",
"522 476 OFFCURVE",
"437 476 CURVE SMOOTH",
"323 476 LINE",
"145 241 LINE",
"145 438 LINE SMOOTH",
"145 468 OFFCURVE",
"133 483 OFFCURVE",
"109 483 CURVE SMOOTH",
"85 483 OFFCURVE",
"73 468 OFFCURVE",
"73 438 CURVE SMOOTH",
"73 23 LINE SMOOTH",
"73 -7 OFFCURVE",
"85 -22 OFFCURVE",
"109 -22 CURVE SMOOTH",
"133 -22 OFFCURVE",
"145 -7 OFFCURVE",
"145 23 CURVE SMOOTH",
"145 126 LINE",
"353 404 LINE",
"430 404 LINE SMOOTH",
"466 404 OFFCURVE",
"475 393 OFFCURVE",
"475 354 CURVE SMOOTH",
"475 189 LINE",
"437 189 LINE",
"345 197 OFFCURVE",
"298 68 OFFCURVE",
"360 5 CURVE",
"379 -17 OFFCURVE",
"407 -27 OFFCURVE",
"445 -27 CURVE SMOOTH"
);
},
{
closed = 1;
nodes = (
"428 44 OFFCURVE",
"419 48 OFFCURVE",
"414 56 CURVE",
"392 82 OFFCURVE",
"409 117 OFFCURVE",
"437 117 CURVE SMOOTH",
"475 117 LINE",
"475 94 LINE",
"474 61 OFFCURVE",
"463 45 OFFCURVE",
"440 45 CURVE"
);
}
);
width = 612;
}
);
leftKerningGroup = "six-kayahli";
rightKerningGroup = "sx-kayahl";
unicode = A906;
},
{
glyphname = "three-kayahli";
lastChange = "2016-07-31 01:35:30 +0000";
layers = (
{
layerId = "67BB2AE4-562A-42A4-A220-84C7D1DB401D";
paths = (
{
closed = 1;
nodes = (
"427 -15 LINE SMOOTH",
"503 -15 OFFCURVE",
"536 19 OFFCURVE",
"536 106 CURVE SMOOTH",
"536 195 LINE",
"396 195 LINE SMOOTH",
"338 195 OFFCURVE",
"277 149 OFFCURVE",
"212 57 CURVE",
"179 57 LINE SMOOTH",
"142 57 OFFCURVE",
"134 68 OFFCURVE",
"134 108 CURVE",
"536 308 LINE",
"536 337 LINE SMOOTH",
"536 437 OFFCURVE",
"511 476 OFFCURVE",
"426 476 CURVE SMOOTH",
"172 476 LINE SMOOTH",
"87 476 OFFCURVE",
"62 437 OFFCURVE",
"62 337 CURVE SMOOTH",
"62 276 LINE",
"189 276 LINE SMOOTH",
"219 276 OFFCURVE",
"234 288 OFFCURVE",
"234 312 CURVE SMOOTH",
"234 336 OFFCURVE",
"219 348 OFFCURVE",
"189 348 CURVE SMOOTH",
"134 348 LINE",
"134 354 LINE SMOOTH",
"134 393 OFFCURVE",
"143 404 OFFCURVE",
"179 404 CURVE SMOOTH",
"419 404 LINE SMOOTH",
"458 404 OFFCURVE",
"464 391 OFFCURVE",
"464 351 CURVE",
"62 150 LINE",
"62 124 LINE SMOOTH",
"62 24 OFFCURVE",
"87 -15 OFFCURVE",
"172 -15 CURVE SMOOTH"
);
},
{
closed = 1;
nodes = (
"344 101 OFFCURVE",
"373 123 OFFCURVE",
"396 123 CURVE SMOOTH",
"464 123 LINE",
"464 95 LINE SMOOTH",
"464 68 OFFCURVE",
"455 57 OFFCURVE",
"419 57 CURVE SMOOTH",
"307 57 LINE"
);
}
);
width = 599;
}
);
leftKerningGroup = "three-kayahli";
rightKerningGroup = "three-kayahl";
unicode = A903;
},
{
glyphname = "zero-kayahli";
lastChange = "2016-07-31 01:35:30 +0000";
layers = (
{
layerId = "67BB2AE4-562A-42A4-A220-84C7D1DB401D";
paths = (
{
closed = 1;
nodes = (
"430 -15 LINE SMOOTH",
"514 -15 OFFCURVE",
"540 25 OFFCURVE",
"540 124 CURVE SMOOTH",
"540 337 LINE SMOOTH",
"540 436 OFFCURVE",
"514 476 OFFCURVE",
"430 476 CURVE SMOOTH",
"176 476 LINE SMOOTH",
"92 476 OFFCURVE",
"66 436 OFFCURVE",
"66 337 CURVE SMOOTH",
"66 124 LINE SMOOTH",
"66 25 OFFCURVE",
"92 -15 OFFCURVE",
"176 -15 CURVE SMOOTH"
);
},
{
closed = 1;
nodes = (
"147 57 OFFCURVE",
"138 68 OFFCURVE",
"138 108 CURVE SMOOTH",
"138 352 LINE SMOOTH",
"138 392 OFFCURVE",
"147 403 OFFCURVE",
"183 403 CURVE SMOOTH",
"423 403 LINE SMOOTH",
"459 403 OFFCURVE",
"468 392 OFFCURVE",
"468 352 CURVE SMOOTH",
"468 108 LINE SMOOTH",
"468 68 OFFCURVE",
"459 57 OFFCURVE",
"423 57 CURVE SMOOTH",
"183 57 LINE SMOOTH"
);
}
);
width = 606;
}
);
leftKerningGroup = "zero-kayahli";
rightKerningGroup = "zero-kayahl";
unicode = A900;
},
{
color = 4;
glyphname = asterisk;
layers = (
{
layerId = "67BB2AE4-562A-42A4-A220-84C7D1DB401D";
paths = (
{
closed = 1;
nodes = (
"219 351 OFFCURVE",
"229 362 OFFCURVE",
"229 382 CURVE SMOOTH",
"229 604 LINE SMOOTH",
"229 624 OFFCURVE",
"219 635 OFFCURVE",
"198 635 CURVE SMOOTH",
"178 635 OFFCURVE",
"167 624 OFFCURVE",
"167 604 CURVE SMOOTH",
"167 382 LINE SMOOTH",
"167 362 OFFCURVE",
"178 351 OFFCURVE",
"198 351 CURVE SMOOTH"
);
},
{
closed = 1;
nodes = (
"310 522 LINE SMOOTH",
"328 532 OFFCURVE",
"331 547 OFFCURVE",
"321 564 CURVE SMOOTH",
"311 581 OFFCURVE",
"297 585 OFFCURVE",
"279 575 CURVE SMOOTH",
"87 464 LINE SMOOTH",
"69 454 OFFCURVE",
"65 439 OFFCURVE",
"75 422 CURVE SMOOTH",
"85 405 OFFCURVE",
"100 401 OFFCURVE",
"118 411 CURVE SMOOTH"
);
},
{
closed = 1;
nodes = (
"297 401 OFFCURVE",
"311 405 OFFCURVE",
"321 422 CURVE SMOOTH",
"331 439 OFFCURVE",
"328 454 OFFCURVE",
"310 464 CURVE SMOOTH",
"118 575 LINE SMOOTH",
"100 585 OFFCURVE",
"85 581 OFFCURVE",
"75 564 CURVE SMOOTH",
"65 547 OFFCURVE",
"69 532 OFFCURVE",
"87 522 CURVE SMOOTH",
"279 411 LINE SMOOTH"
);
}
);
width = 397;
}
);
leftKerningGroup = asterisk;
rightKerningGroup = astersk;
unicode = 002A;
},
{
color = 5;
glyphname = comma;
layers = (
{
components = (
{
name = period;
transform = "{1, 0, 0, 1, -14, 0}";
}
);
layerId = "67BB2AE4-562A-42A4-A220-84C7D1DB401D";
paths = (
{
closed = 1;
nodes = (
"84 -117 OFFCURVE",
"94 -109 OFFCURVE",
"100 -97 CURVE SMOOTH",
"155 18 LINE",
"67 67 LINE",
"40 -86 LINE SMOOTH",
"36 -108 OFFCURVE",
"54 -117 OFFCURVE",
"71 -117 CURVE SMOOTH"
);
}
);
width = 238;
}
);
leftKerningGroup = period;
rightKerningGroup = perod;
rightMetricsKey = period;
unicode = 002C;
},
{
color = 5;
glyphname = exclam;
layers = (
{
components = (
{
name = period;
}
);
layerId = "67BB2AE4-562A-42A4-A220-84C7D1DB401D";
paths = (
{
closed = 1;
nodes = (
"151 136 OFFCURVE",
"163 148 OFFCURVE",
"163 172 CURVE SMOOTH",
"163 665 LINE SMOOTH",
"163 689 OFFCURVE",
"151 701 OFFCURVE",
"127 701 CURVE SMOOTH",
"103 701 OFFCURVE",
"91 689 OFFCURVE",
"91 665 CURVE SMOOTH",
"91 172 LINE SMOOTH",
"91 148 OFFCURVE",
"103 136 OFFCURVE",
"127 136 CURVE SMOOTH"
);
}
);
width = 252;
}
);
leftKerningGroup = exclam;
leftMetricsKey = period;
rightKerningGroup = exclam;
rightMetricsKey = period;
unicode = 0021;
},
{
color = 5;
glyphname = numbersign;
layers = (
{
layerId = "67BB2AE4-562A-42A4-A220-84C7D1DB401D";
paths = (
{
closed = 1;
nodes = (
"136 -9 OFFCURVE",
"149 1 OFFCURVE",
"152 14 CURVE SMOOTH",
"204 202 LINE",
"320 202 LINE",
"272 31 LINE SMOOTH",
"271 28 OFFCURVE",
"271 25 OFFCURVE",
"271 22 CURVE SMOOTH",
"271 5 OFFCURVE",
"285 -9 OFFCURVE",
"302 -9 CURVE SMOOTH",
"316 -9 OFFCURVE",
"329 1 OFFCURVE",
"332 14 CURVE SMOOTH",
"384 202 LINE",
"498 202 LINE SMOOTH",
"515 202 OFFCURVE",
"529 216 OFFCURVE",
"529 233 CURVE SMOOTH",
"529 250 OFFCURVE",
"515 264 OFFCURVE",
"498 264 CURVE SMOOTH",
"402 264 LINE",
"440 402 LINE",
"554 402 LINE SMOOTH",
"571 402 OFFCURVE",
"585 416 OFFCURVE",
"585 433 CURVE SMOOTH",
"585 450 OFFCURVE",
"571 464 OFFCURVE",
"554 464 CURVE SMOOTH",
"457 464 LINE",
"502 624 LINE SMOOTH",
"503 627 OFFCURVE",
"503 630 OFFCURVE",
"503 633 CURVE SMOOTH",
"503 650 OFFCURVE",
"489 664 OFFCURVE",
"472 664 CURVE SMOOTH",
"458 664 OFFCURVE",
"445 654 OFFCURVE",
"442 641 CURVE SMOOTH",
"393 464 LINE",
"277 464 LINE",
"322 624 LINE SMOOTH",
"323 627 OFFCURVE",
"323 630 OFFCURVE",
"323 633 CURVE SMOOTH",
"323 650 OFFCURVE",
"309 664 OFFCURVE",
"292 664 CURVE SMOOTH",
"278 664 OFFCURVE",
"265 654 OFFCURVE",
"262 641 CURVE SMOOTH",
"213 464 LINE",
"127 464 LINE SMOOTH",
"110 464 OFFCURVE",
"96 450 OFFCURVE",
"96 433 CURVE SMOOTH",
"96 416 OFFCURVE",
"110 402 OFFCURVE",
"127 402 CURVE SMOOTH",
"196 402 LINE",
"157 264 LINE",
"71 264 LINE SMOOTH",
"54 264 OFFCURVE",
"40 250 OFFCURVE",
"40 233 CURVE SMOOTH",
"40 216 OFFCURVE",
"54 202 OFFCURVE",
"71 202 CURVE SMOOTH",
"140 202 LINE",
"92 31 LINE SMOOTH",
"91 28 OFFCURVE",
"91 25 OFFCURVE",
"91 22 CURVE SMOOTH",
"91 5 OFFCURVE",
"105 -9 OFFCURVE",
"122 -9 CURVE SMOOTH"
);
},
{
closed = 1;
nodes = (
"260 402 LINE",
"376 402 LINE",
"337 264 LINE",
"222 264 LINE"
);
}
);
width = 605;
}
);
leftKerningGroup = numbersign;
rightKerningGroup = numbersgn;
unicode = 0023;
},
{
color = 5;
glyphname = period;
layers = (
{
layerId = "67BB2AE4-562A-42A4-A220-84C7D1DB401D";
paths = (
{
closed = 1;
nodes = (
"138 0 LINE SMOOTH",
"160 0 OFFCURVE",
"172 13 OFFCURVE",
"172 36 CURVE SMOOTH",
"172 59 LINE SMOOTH",
"172 82 OFFCURVE",
"160 94 OFFCURVE",
"138 94 CURVE SMOOTH",
"116 94 LINE SMOOTH",
"93 94 OFFCURVE",
"80 82 OFFCURVE",
"80 59 CURVE SMOOTH",
"80 36 LINE SMOOTH",
"80 13 OFFCURVE",
"93 0 OFFCURVE",
"116 0 CURVE SMOOTH"
);
}
);
width = 252;
}
);
leftKerningGroup = period;
rightKerningGroup = perod;
unicode = 002E;
},
{
color = 5;
glyphname = question;
layers = (
{
components = (
{
name = period;
transform = "{1, 0, 0, 1, 106, 0}";
}
);
layerId = "67BB2AE4-562A-42A4-A220-84C7D1DB401D";
paths = (
{
closed = 1;
nodes = (
"256 156 OFFCURVE",
"268 168 OFFCURVE",
"268 192 CURVE SMOOTH",
"268 257 OFFCURVE",
"295 273 OFFCURVE",
"339 300 CURVE SMOOTH",
"383 326 OFFCURVE",
"445 362 OFFCURVE",
"445 469 CURVE SMOOTH",
"445 591 OFFCURVE",
"388 648 OFFCURVE",
"266 648 CURVE SMOOTH",
"199 648 LINE SMOOTH",
"78 648 OFFCURVE",
"20 590 OFFCURVE",
"20 469 CURVE SMOOTH",
"20 445 OFFCURVE",
"32 433 OFFCURVE",
"56 433 CURVE SMOOTH",
"80 433 OFFCURVE",
"92 445 OFFCURVE",
"92 469 CURVE SMOOTH",
"92 550 OFFCURVE",
"117 576 OFFCURVE",
"199 576 CURVE SMOOTH",
"266 576 LINE SMOOTH",
"348 576 OFFCURVE",
"373 551 OFFCURVE",
"373 469 CURVE SMOOTH",
"373 404 OFFCURVE",
"346 388 OFFCURVE",
"302 361 CURVE SMOOTH",
"258 335 OFFCURVE",
"196 299 OFFCURVE",
"196 192 CURVE SMOOTH",
"196 168 OFFCURVE",
"208 156 OFFCURVE",
"232 156 CURVE SMOOTH"
);
}
);
width = 504;
}
);
leftKerningGroup = quesion;
rightKerningGroup = queston;
rightMetricsKey = two;
unicode = 003F;
},
{
color = 5;
glyphname = quotesingle;
layers = (
{
layerId = "67BB2AE4-562A-42A4-A220-84C7D1DB401D";
paths = (
{
closed = 1;
nodes = (
"128 453 OFFCURVE",
"142 467 OFFCURVE",
"142 484 CURVE SMOOTH",
"142 688 LINE SMOOTH",
"142 705 OFFCURVE",
"128 719 OFFCURVE",
"111 719 CURVE SMOOTH",
"94 719 OFFCURVE",
"80 705 OFFCURVE",
"80 688 CURVE SMOOTH",
"80 484 LINE SMOOTH",
"80 467 OFFCURVE",
"94 453 OFFCURVE",
"111 453 CURVE SMOOTH"
);
}
);
width = 222;
}
);
leftKerningGroup = quotesingle;
leftMetricsKey = period;
rightKerningGroup = quotesngle;
rightMetricsKey = period;
unicode = 0027;
},
{
color = 5;
glyphname = slash;
layers = (
{
layerId = "67BB2AE4-562A-42A4-A220-84C7D1DB401D";
paths = (
{
closed = 1;
nodes = (
"95 -147 OFFCURVE",
"107 -138 OFFCURVE",
"112 -119 CURVE SMOOTH",
"316 678 LINE SMOOTH",
"324 705 OFFCURVE",
"310 724 OFFCURVE",
"282 724 CURVE SMOOTH",
"263 724 OFFCURVE",
"252 715 OFFCURVE",
"247 696 CURVE SMOOTH",
"42 -101 LINE SMOOTH",
"35 -128 OFFCURVE",
"49 -147 OFFCURVE",
"77 -147 CURVE SMOOTH"
);
}
);
width = 329;
}
);
leftKerningGroup = slash;
rightKerningGroup = slash;
unicode = 002F;
},
{
color = 5;
glyphname = braceleft;
layers = (
{
layerId = "67BB2AE4-562A-42A4-A220-84C7D1DB401D";
paths = (
{
closed = 1;
nodes = (
"322 -171 OFFCURVE",
"336 -157 OFFCURVE",
"336 -140 CURVE SMOOTH",
"336 -123 OFFCURVE",
"322 -109 OFFCURVE",
"305 -109 CURVE SMOOTH",
"220 -109 OFFCURVE",
"202 -89 OFFCURVE",
"202 4 CURVE SMOOTH",
"202 190 LINE SMOOTH",
"202 208 OFFCURVE",
"194 221 OFFCURVE",
"178 226 CURVE SMOOTH",
"125 244 LINE",
"125 248 LINE",
"178 267 LINE SMOOTH",
"194 273 OFFCURVE",
"202 285 OFFCURVE",
"202 303 CURVE SMOOTH",
"202 489 LINE SMOOTH",
"202 590 OFFCURVE",
"221 612 OFFCURVE",
"305 612 CURVE SMOOTH",
"322 612 OFFCURVE",
"336 626 OFFCURVE",
"336 643 CURVE SMOOTH",
"336 660 OFFCURVE",
"322 674 OFFCURVE",
"305 674 CURVE SMOOTH",
"183 674 OFFCURVE",
"140 624 OFFCURVE",
"140 489 CURVE SMOOTH",
"140 319 LINE",
"84 297 LINE SMOOTH",
"68 290 OFFCURVE",
"60 279 OFFCURVE",
"60 261 CURVE SMOOTH",
"60 231 LINE SMOOTH",
"60 213 OFFCURVE",
"68 202 OFFCURVE",
"84 195 CURVE SMOOTH",
"140 174 LINE",
"140 4 LINE SMOOTH",
"140 -123 OFFCURVE",
"184 -171 OFFCURVE",
"305 -171 CURVE SMOOTH"
);
}
);
width = 346;
}
);
leftKerningGroup = parenleft;
rightKerningGroup = parenleft;
unicode = 007B;
},
{
color = 5;
glyphname = bracketleft;
layers = (
{
layerId = "67BB2AE4-562A-42A4-A220-84C7D1DB401D";
paths = (
{
closed = 1;
nodes = (
"175 -171 LINE SMOOTH",
"192 -171 OFFCURVE",
"206 -157 OFFCURVE",
"206 -140 CURVE SMOOTH",
"206 -123 OFFCURVE",
"192 -109 OFFCURVE",
"175 -109 CURVE SMOOTH",
"122 -109 LINE",
"122 612 LINE",
"175 612 LINE SMOOTH",
"192 612 OFFCURVE",
"206 626 OFFCURVE",
"206 643 CURVE SMOOTH",
"206 660 OFFCURVE",
"192 674 OFFCURVE",
"175 674 CURVE SMOOTH",
"91 674 LINE SMOOTH",
"71 674 OFFCURVE",
"60 663 OFFCURVE",
"60 643 CURVE SMOOTH",
"60 -140 LINE SMOOTH",
"60 -160 OFFCURVE",
"71 -171 OFFCURVE",
"91 -171 CURVE SMOOTH"
);
}
);
width = 216;
}
);
leftKerningGroup = parenleft;
rightKerningGroup = parenleft;
unicode = 005B;
},
{
color = 5;
glyphname = parenleft;
layers = (
{
layerId = "67BB2AE4-562A-42A4-A220-84C7D1DB401D";
paths = (
{
closed = 1;
nodes = (
"262 -171 OFFCURVE",
"276 -157 OFFCURVE",
"276 -140 CURVE SMOOTH",
"276 -123 OFFCURVE",
"262 -109 OFFCURVE",
"245 -109 CURVE SMOOTH",
"154 -109 OFFCURVE",
"122 -69 OFFCURVE",
"122 54 CURVE SMOOTH",
"122 439 LINE SMOOTH",
"122 569 OFFCURVE",
"154 612 OFFCURVE",
"245 612 CURVE SMOOTH",
"262 612 OFFCURVE",
"276 626 OFFCURVE",
"276 643 CURVE SMOOTH",
"276 660 OFFCURVE",
"262 674 OFFCURVE",
"245 674 CURVE SMOOTH",
"116 674 OFFCURVE",
"60 601 OFFCURVE",
"60 439 CURVE SMOOTH",
"60 54 LINE SMOOTH",
"60 -101 OFFCURVE",
"116 -171 OFFCURVE",
"245 -171 CURVE SMOOTH"
);
}
);
width = 286;
}
);
leftKerningGroup = parenleft;
rightKerningGroup = parenleft;
unicode = 0028;
},
{
color = 5;
glyphname = braceleft.case;
layers = (
{
layerId = "67BB2AE4-562A-42A4-A220-84C7D1DB401D";
paths = (
{
closed = 1;
nodes = (
"326 -71 OFFCURVE",
"336 -61 OFFCURVE",
"336 -40 CURVE SMOOTH",
"336 -19 OFFCURVE",
"326 -9 OFFCURVE",
"305 -9 CURVE SMOOTH",
"220 -9 OFFCURVE",
"202 11 OFFCURVE",
"202 104 CURVE SMOOTH",
"202 260 LINE SMOOTH",
"202 278 OFFCURVE",
"194 291 OFFCURVE",
"178 296 CURVE SMOOTH",
"125 314 LINE",
"125 319 LINE",
"178 337 LINE SMOOTH",
"194 342 OFFCURVE",
"202 355 OFFCURVE",
"202 373 CURVE SMOOTH",
"202 529 LINE SMOOTH",
"202 630 OFFCURVE",
"221 652 OFFCURVE",
"305 652 CURVE SMOOTH",
"326 652 OFFCURVE",
"336 662 OFFCURVE",
"336 683 CURVE SMOOTH",
"336 704 OFFCURVE",
"326 714 OFFCURVE",
"305 714 CURVE SMOOTH",
"183 714 OFFCURVE",
"140 664 OFFCURVE",
"140 529 CURVE SMOOTH",
"140 389 LINE",
"84 367 LINE SMOOTH",
"68 360 OFFCURVE",
"60 349 OFFCURVE",
"60 331 CURVE SMOOTH",
"60 301 LINE SMOOTH",
"60 283 OFFCURVE",
"68 272 OFFCURVE",
"84 265 CURVE SMOOTH",
"140 244 LINE",
"140 104 LINE SMOOTH",
"140 -23 OFFCURVE",
"184 -71 OFFCURVE",
"305 -71 CURVE SMOOTH"
);
}
);
width = 346;
}
);
leftKerningGroup = parenleft;
rightKerningGroup = parenleft;
},
{
color = 5;
glyphname = bracketleft.case;
layers = (
{
layerId = "67BB2AE4-562A-42A4-A220-84C7D1DB401D";
paths = (
{
closed = 1;
nodes = (
"175 -71 LINE SMOOTH",
"192 -71 OFFCURVE",
"206 -57 OFFCURVE",
"206 -40 CURVE SMOOTH",
"206 -23 OFFCURVE",
"192 -9 OFFCURVE",
"175 -9 CURVE SMOOTH",
"122 -9 LINE",
"122 652 LINE",
"175 652 LINE SMOOTH",
"192 652 OFFCURVE",
"206 666 OFFCURVE",
"206 683 CURVE SMOOTH",
"206 700 OFFCURVE",
"192 714 OFFCURVE",
"175 714 CURVE SMOOTH",
"91 714 LINE SMOOTH",
"71 714 OFFCURVE",
"60 703 OFFCURVE",
"60 683 CURVE SMOOTH",
"60 -40 LINE SMOOTH",
"60 -60 OFFCURVE",
"71 -71 OFFCURVE",
"91 -71 CURVE SMOOTH"
);
}
);
width = 216;
}
);
leftKerningGroup = parenleft;
rightKerningGroup = parenleft;
},
{
color = 5;
glyphname = parenleft.case;
layers = (
{
layerId = "67BB2AE4-562A-42A4-A220-84C7D1DB401D";
paths = (
{
closed = 1;
nodes = (
"262 -71 OFFCURVE",
"276 -57 OFFCURVE",
"276 -40 CURVE SMOOTH",
"276 -23 OFFCURVE",
"262 -9 OFFCURVE",
"245 -9 CURVE SMOOTH",
"154 -9 OFFCURVE",
"122 31 OFFCURVE",
"122 154 CURVE SMOOTH",
"122 479 LINE SMOOTH",
"122 609 OFFCURVE",
"154 652 OFFCURVE",
"245 652 CURVE SMOOTH",
"262 652 OFFCURVE",
"276 666 OFFCURVE",
"276 683 CURVE SMOOTH",
"276 700 OFFCURVE",
"262 714 OFFCURVE",
"245 714 CURVE SMOOTH",
"116 714 OFFCURVE",
"60 641 OFFCURVE",
"60 479 CURVE SMOOTH",
"60 154 LINE SMOOTH",
"60 -1 OFFCURVE",
"116 -71 OFFCURVE",
"245 -71 CURVE SMOOTH"
);
}
);
width = 286;
}
);
leftKerningGroup = parenleft;
rightKerningGroup = parenleft;
},
{
color = 5;
glyphname = emdash;
layers = (
{
layerId = "67BB2AE4-562A-42A4-A220-84C7D1DB401D";
paths = (
{
closed = 1;
nodes = (
"728 238 LINE SMOOTH",
"745 238 OFFCURVE",
"759 252 OFFCURVE",
"759 269 CURVE SMOOTH",
"759 286 OFFCURVE",
"745 300 OFFCURVE",
"728 300 CURVE SMOOTH",
"111 300 LINE SMOOTH",
"94 300 OFFCURVE",
"80 286 OFFCURVE",
"80 269 CURVE SMOOTH",
"80 252 OFFCURVE",
"94 238 OFFCURVE",
"111 238 CURVE SMOOTH"
);
}
);
width = 839;
}
);
leftKerningGroup = hyphen;
leftMetricsKey = period;
rightKerningGroup = hyphen;
rightMetricsKey = period;
unicode = 2014;
},
{
color = 5;
glyphname = endash;
layers = (
{
layerId = "67BB2AE4-562A-42A4-A220-84C7D1DB401D";
paths = (
{
closed = 1;
nodes = (
"480 240 LINE SMOOTH",
"500 240 OFFCURVE",
"511 251 OFFCURVE",
"511 271 CURVE SMOOTH",
"511 291 OFFCURVE",
"500 302 OFFCURVE",
"480 302 CURVE SMOOTH",
"111 302 LINE SMOOTH",
"91 302 OFFCURVE",
"80 291 OFFCURVE",
"80 271 CURVE SMOOTH",
"80 251 OFFCURVE",
"91 240 OFFCURVE",
"111 240 CURVE SMOOTH"
);
}
);
width = 591;
}
);
leftKerningGroup = hyphen;
leftMetricsKey = period;
rightKerningGroup = hyphen;
rightMetricsKey = period;
unicode = 2013;
},
{
color = 5;
glyphname = hyphen;
layers = (
{
layerId = "67BB2AE4-562A-42A4-A220-84C7D1DB401D";
paths = (
{
closed = 1;
nodes = (
"387 239 LINE SMOOTH",
"404 239 OFFCURVE",
"418 253 OFFCURVE",
"418 270 CURVE SMOOTH",
"418 287 OFFCURVE",
"404 301 OFFCURVE",
"387 301 CURVE SMOOTH",
"111 301 LINE SMOOTH",
"94 301 OFFCURVE",
"80 287 OFFCURVE",
"80 270 CURVE SMOOTH",
"80 253 OFFCURVE",
"94 239 OFFCURVE",
"111 239 CURVE SMOOTH"
);
}
);
width = 498;
}
);
leftKerningGroup = hyphen;
leftMetricsKey = period;
rightKerningGroup = hyphen;
rightMetricsKey = period;
unicode = 002D;
},
{
color = 5;
glyphname = guilsinglleft;
layers = (
{
layerId = "67BB2AE4-562A-42A4-A220-84C7D1DB401D";
paths = (
{
closed = 1;
nodes = (
"326 111 OFFCURVE",
"340 125 OFFCURVE",
"340 142 CURVE SMOOTH",
"340 152 OFFCURVE",
"335 160 OFFCURVE",
"328 166 CURVE SMOOTH",
"173 294 LINE",
"328 422 LINE SMOOTH",
"335 428 OFFCURVE",
"340 436 OFFCURVE",
"340 446 CURVE SMOOTH",
"340 463 OFFCURVE",
"326 477 OFFCURVE",
"309 477 CURVE SMOOTH",
"301 477 OFFCURVE",
"294 474 OFFCURVE",
"289 470 CURVE SMOOTH",
"103 316 LINE SMOOTH",
"86 302 OFFCURVE",
"86 286 OFFCURVE",
"103 272 CURVE SMOOTH",
"289 118 LINE SMOOTH",
"294 114 OFFCURVE",
"301 111 OFFCURVE",
"309 111 CURVE SMOOTH"
);
}
);
width = 430;
}
);
leftKerningGroup = guilsinglleft;
rightKerningGroup = gulsnglleft;
unicode = 2039;
},
{
color = 5;
glyphname = quotesinglbase;
layers = (
{
components = (
{
name = period;
transform = "{1, 0, 0, 1, -19, 0}";
}
);
layerId = "67BB2AE4-562A-42A4-A220-84C7D1DB401D";
paths = (
{
closed = 1;
nodes = (
"85 -121 OFFCURVE",
"96 -114 OFFCURVE",
"101 -102 CURVE SMOOTH",
"151 21 LINE",
"93 45 LINE",
"43 -78 LINE SMOOTH",
"32 -104 OFFCURVE",
"51 -121 OFFCURVE",
"72 -121 CURVE SMOOTH"
);
}
);
width = 233;
}
);
leftKerningGroup = period;
leftMetricsKey = comma;
rightKerningGroup = perod;
rightMetricsKey = comma;
unicode = 201A;
},
{
color = 4;
glyphname = cedi;
layers = (
{
layerId = "67BB2AE4-562A-42A4-A220-84C7D1DB401D";
paths = (
{
closed = 1;
nodes = (
"386 0 LINE SMOOTH",
"510 0 OFFCURVE",
"573 49 OFFCURVE",
"582 161 CURVE SMOOTH",
"584 185 OFFCURVE",
"571 198 OFFCURVE",
"547 198 CURVE SMOOTH",
"524 198 OFFCURVE",
"513 186 OFFCURVE",
"510 162 CURVE SMOOTH",
"501 93 OFFCURVE",
"470 72 OFFCURVE",
"386 72 CURVE SMOOTH",
"298 72 LINE SMOOTH",
"188 72 OFFCURVE",
"152 108 OFFCURVE",
"152 218 CURVE SMOOTH",
"152 416 LINE SMOOTH",
"152 527 OFFCURVE",
"188 562 OFFCURVE",
"297 562 CURVE SMOOTH",
"386 562 LINE SMOOTH",
"470 562 OFFCURVE",
"504 541 OFFCURVE",
"510 472 CURVE SMOOTH",
"512 448 OFFCURVE",
"524 436 OFFCURVE",
"547 436 CURVE SMOOTH",
"571 436 OFFCURVE",
"585 449 OFFCURVE",
"582 473 CURVE SMOOTH",
"568 585 OFFCURVE",
"510 634 OFFCURVE",
"386 634 CURVE SMOOTH",
"297 634 LINE SMOOTH",
"149 634 OFFCURVE",
"80 567 OFFCURVE",
"80 416 CURVE SMOOTH",
"80 218 LINE SMOOTH",
"80 68 OFFCURVE",
"149 0 OFFCURVE",
"298 0 CURVE SMOOTH"
);
},
{
closed = 1;
nodes = (
"376 -57 CURVE SMOOTH",
"376 704 LINE SMOOTH",
"376 724 OFFCURVE",
"365 735 OFFCURVE",
"345 735 CURVE SMOOTH",
"325 735 OFFCURVE",
"314 724 OFFCURVE",
"314 704 CURVE SMOOTH",
"314 -57 LINE SMOOTH",
"314 -77 OFFCURVE",
"325 -88 OFFCURVE",
"345 -88 CURVE SMOOTH",
"365 -88 OFFCURVE",
"376 -77 OFFCURVE"
);
}
);
width = 662;
}
);
leftKerningGroup = O;
leftMetricsKey = O;
rightKerningGroup = C;
rightMetricsKey = O;
unicode = 20B5;
},
{
color = 5;
glyphname = cent;
layers = (
{
layerId = "67BB2AE4-562A-42A4-A220-84C7D1DB401D";
paths = (
{
closed = 1;
nodes = (
"292 55 LINE SMOOTH",
"398 55 OFFCURVE",
"450 96 OFFCURVE",
"450 185 CURVE SMOOTH",
"450 205 OFFCURVE",
"434 221 OFFCURVE",
"414 221 CURVE SMOOTH",
"394 221 OFFCURVE",
"378 205 OFFCURVE",
"378 185 CURVE SMOOTH",
"378 141 OFFCURVE",
"361 127 OFFCURVE",
"292 127 CURVE SMOOTH",
"236 127 LINE SMOOTH",
"155 127 OFFCURVE",
"132 151 OFFCURVE",
"132 229 CURVE SMOOTH",
"132 312 LINE SMOOTH",
"132 392 OFFCURVE",
"156 416 OFFCURVE",
"236 415 CURVE SMOOTH",
"292 415 LINE SMOOTH",
"361 415 OFFCURVE",
"378 401 OFFCURVE",
"378 357 CURVE SMOOTH",
"378 337 OFFCURVE",
"394 321 OFFCURVE",
"414 321 CURVE SMOOTH",
"434 321 OFFCURVE",
"450 337 OFFCURVE",
"450 357 CURVE SMOOTH",
"450 446 OFFCURVE",
"398 487 OFFCURVE",
"292 487 CURVE SMOOTH",
"236 487 LINE SMOOTH",
"116 488 OFFCURVE",
"60 432 OFFCURVE",
"60 312 CURVE SMOOTH",
"60 229 LINE SMOOTH",
"60 110 OFFCURVE",
"116 55 OFFCURVE",
"236 55 CURVE SMOOTH"
);
},
{
closed = 1;
nodes = (
"295 0 CURVE SMOOTH",
"295 541 LINE SMOOTH",
"295 562 OFFCURVE",
"285 572 OFFCURVE",
"264 572 CURVE SMOOTH",
"243 572 OFFCURVE",
"233 562 OFFCURVE",
"233 541 CURVE SMOOTH",
"233 0 LINE SMOOTH",
"233 -21 OFFCURVE",
"243 -31 OFFCURVE",
"264 -31 CURVE SMOOTH",
"285 -31 OFFCURVE",
"295 -21 OFFCURVE"
);
}
);
width = 490;
}
);
leftKerningGroup = o;
leftMetricsKey = "=c-20";
rightKerningGroup = c;
rightMetricsKey = "=c-20";
unicode = 00A2;
},
{
color = 4;
glyphname = colonsign;
layers = (
{
components = (
{
name = C;
}
);
layerId = "67BB2AE4-562A-42A4-A220-84C7D1DB401D";
paths = (
{
closed = 1;
nodes = (
"223 -45 CURVE SMOOTH",
"413 690 LINE SMOOTH",
"417 707 OFFCURVE",
"410 718 OFFCURVE",
"394 722 CURVE SMOOTH",
"378 726 OFFCURVE",
"366 720 OFFCURVE",
"362 703 CURVE SMOOTH",
"172 -32 LINE SMOOTH",
"168 -49 OFFCURVE",
"175 -60 OFFCURVE",
"191 -64 CURVE SMOOTH",
"207 -68 OFFCURVE",
"219 -62 OFFCURVE"
);
},
{
closed = 1;
nodes = (
"353 -45 CURVE SMOOTH",
"543 690 LINE SMOOTH",
"547 707 OFFCURVE",
"540 718 OFFCURVE",
"524 722 CURVE SMOOTH",
"508 726 OFFCURVE",
"496 720 OFFCURVE",
"492 703 CURVE SMOOTH",
"302 -32 LINE SMOOTH",
"298 -49 OFFCURVE",
"305 -60 OFFCURVE",
"321 -64 CURVE SMOOTH",
"337 -68 OFFCURVE",
"349 -62 OFFCURVE"
);
}
);
width = 694;
}
);
leftKerningGroup = O;
rightKerningGroup = C;
unicode = 20A1;
},
{
color = 5;
glyphname = currency;
lastChange = "2016-07-31 01:33:47 +0000";
layers = (
{
layerId = "67BB2AE4-562A-42A4-A220-84C7D1DB401D";
paths = (
{
closed = 1;
nodes = (
"151 138 CURVE SMOOTH",
"199 185 LINE",
"230 164 OFFCURVE",
"268 151 OFFCURVE",
"309 151 CURVE SMOOTH",
"351 151 OFFCURVE",
"389 164 OFFCURVE",
"420 185 CURVE",
"467 138 LINE SMOOTH",
"474 131 OFFCURVE",
"483 127 OFFCURVE",
"493 127 CURVE SMOOTH",
"513 127 OFFCURVE",
"529 143 OFFCURVE",
"529 163 CURVE SMOOTH",
"529 173 OFFCURVE",
"525 182 OFFCURVE",
"519 188 CURVE SMOOTH",
"471 236 LINE",
"493 268 OFFCURVE",
"505 306 OFFCURVE",
"505 347 CURVE SMOOTH",
"505 388 OFFCURVE",
"492 426 OFFCURVE",
"471 457 CURVE",
"519 506 LINE SMOOTH",
"525 512 OFFCURVE",
"529 521 OFFCURVE",
"529 531 CURVE SMOOTH",
"529 551 OFFCURVE",
"513 567 OFFCURVE",
"493 567 CURVE SMOOTH",
"483 567 OFFCURVE",
"474 563 OFFCURVE",
"467 556 CURVE SMOOTH",
"420 508 LINE",
"388 530 OFFCURVE",
"350 542 OFFCURVE",
"309 542 CURVE SMOOTH",
"268 542 OFFCURVE",
"230 530 OFFCURVE",
"199 508 CURVE",
"153 555 LINE SMOOTH",
"146 562 OFFCURVE",
"137 566 OFFCURVE",
"127 566 CURVE SMOOTH",
"107 566 OFFCURVE",
"91 550 OFFCURVE",
"91 530 CURVE SMOOTH",
"91 520 OFFCURVE",
"95 511 OFFCURVE",
"101 505 CURVE SMOOTH",
"148 457 LINE",
"127 426 OFFCURVE",
"114 388 OFFCURVE",
"114 347 CURVE SMOOTH",
"114 306 OFFCURVE",
"127 267 OFFCURVE",
"148 236 CURVE",
"101 188 LINE SMOOTH",
"94 182 OFFCURVE",
"90 173 OFFCURVE",
"90 163 CURVE SMOOTH",
"90 143 OFFCURVE",
"106 127 OFFCURVE",
"126 127 CURVE SMOOTH",
"136 127 OFFCURVE",
"145 131 OFFCURVE"
);
},
{
closed = 1;
nodes = (
"186 347 CURVE SMOOTH",
"186 415 OFFCURVE",
"241 470 OFFCURVE",
"309 470 CURVE SMOOTH",
"378.007 470 OFFCURVE",
"433 415 OFFCURVE",
"433 347 CURVE SMOOTH",
"433 278 OFFCURVE",
"378 223 OFFCURVE",
"309 223 CURVE SMOOTH",
"241 223 OFFCURVE",
"186 277.993 OFFCURVE"
);
}
);
width = 600;
}
);
leftKerningGroup = currency;
rightKerningGroup = currency;
unicode = 00A4;
},
{
color = 5;
glyphname = dollar;
layers = (
{
layerId = "67BB2AE4-562A-42A4-A220-84C7D1DB401D";
paths = (
{
closed = 1;
nodes = (
"399 0 LINE SMOOTH",
"522 0 OFFCURVE",
"580 58 OFFCURVE",
"580 181 CURVE SMOOTH",
"580 304 OFFCURVE",
"522 362 OFFCURVE",
"399 362 CURVE SMOOTH",
"276 362 LINE SMOOTH",
"198 362 OFFCURVE",
"175 385 OFFCURVE",
"175 462 CURVE SMOOTH",
"175 539 OFFCURVE",
"198 562 OFFCURVE",
"275 562 CURVE SMOOTH",
"396 562 LINE SMOOTH",
"473 562 OFFCURVE",
"496 539 OFFCURVE",
"496 463 CURVE SMOOTH",
"496 443 OFFCURVE",
"512 427 OFFCURVE",
"532 427 CURVE SMOOTH",
"552 427 OFFCURVE",
"568 443 OFFCURVE",
"568 463 CURVE SMOOTH",
"568 579 OFFCURVE",
"513 634 OFFCURVE",
"396 634 CURVE SMOOTH",
"275 634 LINE SMOOTH",
"158 634 OFFCURVE",
"103 579 OFFCURVE",
"103 462 CURVE SMOOTH",
"103 345 OFFCURVE",
"158 290 OFFCURVE",
"276 290 CURVE SMOOTH",
"399 290 LINE SMOOTH",
"482 290 OFFCURVE",
"508 265 OFFCURVE",
"508 181 CURVE SMOOTH",
"508 97 OFFCURVE",
"482 72 OFFCURVE",
"399 72 CURVE SMOOTH",
"261 72 LINE SMOOTH",
"178 72 OFFCURVE",
"152 97 OFFCURVE",
"152 181 CURVE SMOOTH",
"152 201 OFFCURVE",
"136 217 OFFCURVE",
"116 217 CURVE SMOOTH",
"96 217 OFFCURVE",
"80 201 OFFCURVE",
"80 181 CURVE SMOOTH",
"80 58 OFFCURVE",
"137 0 OFFCURVE",
"261 0 CURVE SMOOTH"
);
},
{
closed = 1;
nodes = (
"362 -57 CURVE SMOOTH",
"362 310 LINE",
"367 340 LINE",
"367 704 LINE SMOOTH",
"367 724 OFFCURVE",
"356 735 OFFCURVE",
"336 735 CURVE SMOOTH",
"316 735 OFFCURVE",
"305 724 OFFCURVE",
"305 704 CURVE SMOOTH",
"305 344 LINE",
"300 310 LINE",
"300 -57 LINE SMOOTH",
"300 -77 OFFCURVE",
"311 -88 OFFCURVE",
"331 -88 CURVE SMOOTH",
"351 -88 OFFCURVE",
"362 -77 OFFCURVE"
);
}
);
width = 660;
}
);
leftKerningGroup = S;
leftMetricsKey = S;
rightKerningGroup = S;
rightMetricsKey = S;
unicode = 0024;
},
{
color = 4;
glyphname = dong;
layers = (
{
layerId = "67BB2AE4-562A-42A4-A220-84C7D1DB401D";
paths = (
{
closed = 1;
nodes = (
"245 119 LINE SMOOTH",
"323 119 OFFCURVE",
"371 155 OFFCURVE",
"382 223 CURVE",
"353 227 LINE",
"353 196 OFFCURVE",
"305 181 OFFCURVE",
"245 181 CURVE SMOOTH",
"219 181 LINE SMOOTH",
"159 181 OFFCURVE",
"142 198 OFFCURVE",
"142 257 CURVE SMOOTH",
"142 315 LINE SMOOTH",
"142 375 OFFCURVE",
"159 392 OFFCURVE",
"219 392 CURVE SMOOTH",
"353 392 LINE SMOOTH",
"373 392 OFFCURVE",
"384 403 OFFCURVE",
"384 423 CURVE SMOOTH",
"384 443 OFFCURVE",
"373 454 OFFCURVE",
"353 454 CURVE SMOOTH",
"219 454 LINE SMOOTH",
"125 454 OFFCURVE",
"80 409 OFFCURVE",
"80 315 CURVE SMOOTH",
"80 257 LINE SMOOTH",
"80 163 OFFCURVE",
"124 119 OFFCURVE",
"219 119 CURVE SMOOTH"
);
},
{
closed = 1;
nodes = (
"384 21 LINE SMOOTH",
"404 21 OFFCURVE",
"415 32 OFFCURVE",
"415 52 CURVE SMOOTH",
"415 72 OFFCURVE",
"404 83 OFFCURVE",
"384 83 CURVE SMOOTH",
"129 83 LINE SMOOTH",
"109 83 OFFCURVE",
"98 72 OFFCURVE",
"98 52 CURVE SMOOTH",
"98 32 OFFCURVE",
"109 21 OFFCURVE",
"129 21 CURVE SMOOTH"
);
},
{
closed = 1;
nodes = (
"415 150 CURVE SMOOTH",
"415 602 LINE SMOOTH",
"415 622 OFFCURVE",
"404 633 OFFCURVE",
"384 633 CURVE SMOOTH",
"364 633 OFFCURVE",
"353 622 OFFCURVE",
"353 602 CURVE SMOOTH",
"353 150 LINE SMOOTH",
"353 130 OFFCURVE",
"364 119 OFFCURVE",
"384 119 CURVE SMOOTH",
"404 119 OFFCURVE",
"415 130 OFFCURVE"
);
},
{
closed = 1;
nodes = (
"445 496 LINE SMOOTH",
"465 496 OFFCURVE",
"476 507 OFFCURVE",
"476 527 CURVE SMOOTH",
"476 547 OFFCURVE",
"465 558 OFFCURVE",
"445 558 CURVE SMOOTH",
"233 558 LINE SMOOTH",
"213 558 OFFCURVE",
"202 547 OFFCURVE",
"202 527 CURVE SMOOTH",
"202 507 OFFCURVE",
"213 496 OFFCURVE",
"233 496 CURVE SMOOTH"
);
}
);
width = 536;
}
);
leftKerningGroup = o;
leftMetricsKey = o;
rightKerningGroup = d;
rightMetricsKey = "=d-30";
unicode = 20AB;
},
{
color = 5;
glyphname = euro;
layers = (
{
layerId = "67BB2AE4-562A-42A4-A220-84C7D1DB401D";
paths = (
{
closed = 1;
nodes = (
"474 349 LINE SMOOTH",
"495 349 OFFCURVE",
"505 359 OFFCURVE",
"505 380 CURVE SMOOTH",
"505 401 OFFCURVE",
"495 411 OFFCURVE",
"474 411 CURVE SMOOTH",
"71 411 LINE SMOOTH",
"50 411 OFFCURVE",
"40 401 OFFCURVE",
"40 380 CURVE SMOOTH",
"40 359 OFFCURVE",
"50 349 OFFCURVE",
"71 349 CURVE SMOOTH"
);
},
{
closed = 1;
nodes = (
"419 241 LINE SMOOTH",
"440 241 OFFCURVE",
"450 251 OFFCURVE",
"450 272 CURVE SMOOTH",
"450 293 OFFCURVE",
"440 303 OFFCURVE",
"419 303 CURVE SMOOTH",
"71 303 LINE SMOOTH",
"50 303 OFFCURVE",
"40 293 OFFCURVE",
"40 272 CURVE SMOOTH",
"40 251 OFFCURVE",
"50 241 OFFCURVE",
"71 241 CURVE SMOOTH"
);
},
{
closed = 1;
nodes = (
"463 1 LINE SMOOTH",
"530 1 OFFCURVE",
"565 19 OFFCURVE",
"611 65 CURVE SMOOTH",
"617 71 OFFCURVE",
"621 80 OFFCURVE",
"621 89 CURVE SMOOTH",
"621 109 OFFCURVE",
"605 125 OFFCURVE",
"585 125 CURVE SMOOTH",
"575 125 OFFCURVE",
"565 121 OFFCURVE",
"559 113 CURVE SMOOTH",
"532 77 OFFCURVE",
"511 73 OFFCURVE",
"463 73 CURVE SMOOTH",
"343 73 LINE SMOOTH",
"233 73 OFFCURVE",
"197 109 OFFCURVE",
"197 219 CURVE SMOOTH",
"197 446 LINE SMOOTH",
"197 557 OFFCURVE",
"233 592 OFFCURVE",
"342 592 CURVE SMOOTH",
"463 592 LINE SMOOTH",
"500 592 OFFCURVE",
"510 585 OFFCURVE",
"537 554 CURVE SMOOTH",
"544 546 OFFCURVE",
"553 540 OFFCURVE",
"565 540 CURVE SMOOTH",
"585 540 OFFCURVE",
"601 556 OFFCURVE",
"601 576 CURVE SMOOTH",
"601 584 OFFCURVE",
"598 592 OFFCURVE",
"593 598 CURVE SMOOTH",
"553 646 OFFCURVE",
"522 664 OFFCURVE",
"463 664 CURVE SMOOTH",
"342 664 LINE SMOOTH",
"193 664 OFFCURVE",
"125 597 OFFCURVE",
"125 446 CURVE SMOOTH",
"125 219 LINE SMOOTH",
"125 69 OFFCURVE",
"193 1 OFFCURVE",
"343 1 CURVE SMOOTH"
);
}
);
width = 651;
}
);
leftKerningGroup = O;
leftMetricsKey = Hbar;
rightKerningGroup = C;
rightMetricsKey = "=C-40";
unicode = 20AC;
},
{
color = 4;
glyphname = florin;
layers = (
{
layerId = "67BB2AE4-562A-42A4-A220-84C7D1DB401D";
paths = (
{
closed = 1;
nodes = (
"155 97 CURVE SMOOTH",
"229 510 LINE SMOOTH",
"243 588 OFFCURVE",
"272 621 OFFCURVE",
"336 629 CURVE SMOOTH",
"359 632 OFFCURVE",
"371 643 OFFCURVE",
"371 666 CURVE SMOOTH",
"371 690 OFFCURVE",
"358 704 OFFCURVE",
"334 701 CURVE SMOOTH",
"233 688 OFFCURVE",
"179 635 OFFCURVE",
"159 522 CURVE SMOOTH",
"85 110 LINE SMOOTH",
"82 91 OFFCURVE",
"75 80 OFFCURVE",
"62 74 CURVE SMOOTH",
"40 64 OFFCURVE",
"30 56 OFFCURVE",
"30 34 CURVE SMOOTH",
"30 10 OFFCURVE",
"44 -5 OFFCURVE",
"68 0 CURVE SMOOTH",
"116 10 OFFCURVE",
"145 44 OFFCURVE"
);
},
{
closed = 1;
nodes = (
"313 422 LINE SMOOTH",
"336 422 OFFCURVE",
"349 435 OFFCURVE",
"349 458 CURVE SMOOTH",
"349 481 OFFCURVE",
"336 494 OFFCURVE",
"313 494 CURVE SMOOTH",
"98 494 LINE SMOOTH",
"75 494 OFFCURVE",
"62 481 OFFCURVE",
"62 458 CURVE SMOOTH",
"62 435 OFFCURVE",
"75 422 OFFCURVE",
"98 422 CURVE SMOOTH"
);
}
);
width = 341;
}
);
leftKerningGroup = florin;
rightKerningGroup = florn;
unicode = 0192;
},
{
color = 4;
glyphname = franc;
layers = (
{
layerId = "67BB2AE4-562A-42A4-A220-84C7D1DB401D";
paths = (
{
closed = 1;
nodes = (
"159 0 OFFCURVE",
"172 13 OFFCURVE",
"172 36 CURVE SMOOTH",
"172 300 LINE",
"347 300 LINE",
"347 36 LINE SMOOTH",
"347 13 OFFCURVE",
"360 0 OFFCURVE",
"383 0 CURVE SMOOTH",
"406 0 OFFCURVE",
"419 13 OFFCURVE",
"419 36 CURVE SMOOTH",
"419 181 LINE SMOOTH",
"419 255 OFFCURVE",
"468 300 OFFCURVE",
"563 300 CURVE SMOOTH",
"586 300 OFFCURVE",
"599 313 OFFCURVE",
"599 336 CURVE SMOOTH",
"599 359 OFFCURVE",
"586 372 OFFCURVE",
"563 372 CURVE SMOOTH",
"499 372 OFFCURVE",
"451 347 OFFCURVE",
"419 300 CURVE",
"419 336 LINE SMOOTH",
"419 359 OFFCURVE",
"406 372 OFFCURVE",
"383 372 CURVE SMOOTH",
"172 372 LINE",
"172 593 LINE",
"411 593 LINE SMOOTH",
"434 593 OFFCURVE",
"447 606 OFFCURVE",
"447 629 CURVE SMOOTH",
"447 652 OFFCURVE",
"434 665 OFFCURVE",
"411 665 CURVE SMOOTH",
"136 665 LINE SMOOTH",
"113 665 OFFCURVE",
"100 652 OFFCURVE",
"100 629 CURVE SMOOTH",
"100 36 LINE SMOOTH",
"100 13 OFFCURVE",
"113 0 OFFCURVE",
"136 0 CURVE SMOOTH"
);
}
);
width = 614;
}
);
leftKerningGroup = H;
leftMetricsKey = H;
rightKerningGroup = F;
rightMetricsKey = r;
unicode = 20A3;
},
{
color = 4;
glyphname = guarani;
layers = (
{
layerId = "67BB2AE4-562A-42A4-A220-84C7D1DB401D";
paths = (
{
closed = 1;
nodes = (
"386 0 LINE SMOOTH",
"523 0 OFFCURVE",
"584 60 OFFCURVE",
"584 198 CURVE SMOOTH",
"584 287 LINE SMOOTH",
"584 310 OFFCURVE",
"571 323 OFFCURVE",
"548 323 CURVE SMOOTH",
"472 324 LINE SMOOTH",
"449 324 OFFCURVE",
"436 311 OFFCURVE",
"436 288 CURVE SMOOTH",
"436 265 OFFCURVE",
"448 253 OFFCURVE",
"472 252 CURVE SMOOTH",
"512 251 LINE",
"512 198 LINE SMOOTH",
"512 100 OFFCURVE",
"483 72 OFFCURVE",
"386 72 CURVE SMOOTH",
"298 72 LINE SMOOTH",
"188 72 OFFCURVE",
"152 108 OFFCURVE",
"152 218 CURVE SMOOTH",
"152 416 LINE SMOOTH",
"152 527 OFFCURVE",
"188 562 OFFCURVE",
"297 562 CURVE SMOOTH",
"386 562 LINE SMOOTH",
"470 562 OFFCURVE",
"504 541 OFFCURVE",
"510 472 CURVE SMOOTH",
"512 448 OFFCURVE",
"524 436 OFFCURVE",
"547 436 CURVE SMOOTH",
"571 436 OFFCURVE",
"585 449 OFFCURVE",
"582 473 CURVE SMOOTH",
"568 585 OFFCURVE",
"510 634 OFFCURVE",
"386 634 CURVE SMOOTH",
"297 634 LINE SMOOTH",
"148 634 OFFCURVE",
"80 567 OFFCURVE",
"80 416 CURVE SMOOTH",
"80 218 LINE SMOOTH",
"80 68 OFFCURVE",
"148 0 OFFCURVE",
"298 0 CURVE SMOOTH"
);
},
{
closed = 1;
nodes = (
"376 -57 CURVE SMOOTH",
"376 704 LINE SMOOTH",
"376 724 OFFCURVE",
"365 735 OFFCURVE",
"345 735 CURVE SMOOTH",
"325 735 OFFCURVE",
"314 724 OFFCURVE",
"314 704 CURVE SMOOTH",
"314 -57 LINE SMOOTH",
"314 -77 OFFCURVE",
"325 -88 OFFCURVE",
"345 -88 CURVE SMOOTH",
"365 -88 OFFCURVE",
"376 -77 OFFCURVE"
);
}
);
width = 664;
}
);
leftKerningGroup = O;
leftMetricsKey = O;
rightKerningGroup = C;
rightMetricsKey = O;
unicode = 20B2;
},
{
color = 4;
glyphname = kip;
layers = (
{
components = (
{
name = K;
}
);
layerId = "67BB2AE4-562A-42A4-A220-84C7D1DB401D";
paths = (
{
closed = 1;
nodes = (
"467 335 LINE SMOOTH",
"487 335 OFFCURVE",
"498 346 OFFCURVE",
"498 366 CURVE SMOOTH",
"498 386 OFFCURVE",
"487 397 OFFCURVE",
"467 397 CURVE SMOOTH",
"249 397 LINE SMOOTH",
"229 397 OFFCURVE",
"218 386 OFFCURVE",
"218 366 CURVE SMOOTH",
"218 346 OFFCURVE",
"229 335 OFFCURVE",
"249 335 CURVE SMOOTH"
);
},
{
closed = 1;
nodes = (
"132 335 LINE SMOOTH",
"152 335 OFFCURVE",
"163 346 OFFCURVE",
"163 366 CURVE SMOOTH",
"163 386 OFFCURVE",
"152 397 OFFCURVE",
"132 397 CURVE SMOOTH",
"57 397 LINE SMOOTH",
"37 397 OFFCURVE",
"26 386 OFFCURVE",
"26 366 CURVE SMOOTH",
"26 346 OFFCURVE",
"37 335 OFFCURVE",
"57 335 CURVE SMOOTH"
);
}
);
width = 573;
}
);
leftKerningGroup = Hbar;
rightKerningGroup = K;
unicode = 20AD;
},
{
color = 4;
glyphname = lira;
layers = (
{
layerId = "67BB2AE4-562A-42A4-A220-84C7D1DB401D";
paths = (
{
closed = 1;
nodes = (
"547 0 LINE SMOOTH",
"571 0 OFFCURVE",
"583 12 OFFCURVE",
"583 36 CURVE SMOOTH",
"583 60 OFFCURVE",
"571 72 OFFCURVE",
"547 72 CURVE SMOOTH",
"186 72 LINE",
"195 92 OFFCURVE",
"199 117 OFFCURVE",
"199 146 CURVE SMOOTH",
"199 430 LINE SMOOTH",
"199 541 OFFCURVE",
"235 576 OFFCURVE",
"344 576 CURVE SMOOTH",
"365 576 LINE SMOOTH",
"462 576 OFFCURVE",
"491 548 OFFCURVE",
"491 450 CURVE SMOOTH",
"491 426 OFFCURVE",
"503 414 OFFCURVE",
"527 414 CURVE SMOOTH",
"551 414 OFFCURVE",
"563 426 OFFCURVE",
"563 450 CURVE SMOOTH",
"563 588 OFFCURVE",
"502 648 OFFCURVE",
"365 648 CURVE SMOOTH",
"344 648 LINE SMOOTH",
"195 648 OFFCURVE",
"127 581 OFFCURVE",
"127 430 CURVE SMOOTH",
"127 146 LINE SMOOTH",
"127 88 OFFCURVE",
"116 72 OFFCURVE",
"76 72 CURVE",
"76 37 LINE SMOOTH",
"76 16 OFFCURVE",
"92 0 OFFCURVE",
"113 0 CURVE SMOOTH"
);
},
{
closed = 1;
nodes = (
"392 283 LINE SMOOTH",
"409 283 OFFCURVE",
"418 292 OFFCURVE",
"418 309 CURVE SMOOTH",
"418 326 OFFCURVE",
"409 335 OFFCURVE",
"392 335 CURVE SMOOTH",
"65 335 LINE SMOOTH",
"48 335 OFFCURVE",
"39 326 OFFCURVE",
"39 309 CURVE SMOOTH",
"39 292 OFFCURVE",
"48 283 OFFCURVE",
"65 283 CURVE SMOOTH"
);
},
{
closed = 1;
nodes = (
"392 183 LINE SMOOTH",
"409 183 OFFCURVE",
"418 192 OFFCURVE",
"418 209 CURVE SMOOTH",
"418 226 OFFCURVE",
"409 235 OFFCURVE",
"392 235 CURVE SMOOTH",
"65 235 LINE SMOOTH",
"48 235 OFFCURVE",
"39 226 OFFCURVE",
"39 209 CURVE SMOOTH",
"39 192 OFFCURVE",
"48 183 OFFCURVE",
"65 183 CURVE SMOOTH"
);
}
);
width = 613;
}
);
leftKerningGroup = sterling;
rightKerningGroup = sterlng;
unicode = 20A4;
},
{
color = 4;
glyphname = liraTurkish;
layers = (
{
layerId = "67BB2AE4-562A-42A4-A220-84C7D1DB401D";
paths = (
{
closed = 1;
nodes = (
"248 0 LINE SMOOTH",
"372 0 OFFCURVE",
"435 49 OFFCURVE",
"444 161 CURVE SMOOTH",
"446 185 OFFCURVE",
"433 198 OFFCURVE",
"409 198 CURVE SMOOTH",
"386 198 OFFCURVE",
"375 186 OFFCURVE",
"372 162 CURVE SMOOTH",
"363 93 OFFCURVE",
"332 72 OFFCURVE",
"248 72 CURVE SMOOTH",
"172 72 LINE",
"172 612 LINE SMOOTH",
"172 635 OFFCURVE",
"159 648 OFFCURVE",
"136 648 CURVE SMOOTH",
"113 648 OFFCURVE",
"100 635 OFFCURVE",
"100 612 CURVE SMOOTH",
"100 36 LINE SMOOTH",
"100 13 OFFCURVE",
"113 0 OFFCURVE",
"136 0 CURVE SMOOTH"
);
},
{
closed = 1;
nodes = (
"299 461 LINE SMOOTH",
"314 468 OFFCURVE",
"319 480 OFFCURVE",
"311 495 CURVE SMOOTH",
"303 510 OFFCURVE",
"292 515 OFFCURVE",
"276 507 CURVE SMOOTH",
"28 386 LINE SMOOTH",
"12 378 OFFCURVE",
"8 366 OFFCURVE",
"16 351 CURVE SMOOTH",
"24 336 OFFCURVE",
"35 332 OFFCURVE",
"50 339 CURVE SMOOTH"
);
},
{
closed = 1;
nodes = (
"299 351 LINE SMOOTH",
"314 358 OFFCURVE",
"319 370 OFFCURVE",
"311 385 CURVE SMOOTH",
"303 400 OFFCURVE",
"292 405 OFFCURVE",
"276 397 CURVE SMOOTH",
"28 276 LINE SMOOTH",
"12 268 OFFCURVE",
"8 256 OFFCURVE",
"16 241 CURVE SMOOTH",
"24 226 OFFCURVE",
"35 222 OFFCURVE",
"50 229 CURVE SMOOTH"
);
}
);
width = 484;
}
);
leftKerningGroup = Hbar;
rightKerningGroup = L;
unicode = 20BA;
},
{
color = 4;
glyphname = manat;
layers = (
{
layerId = "67BB2AE4-562A-42A4-A220-84C7D1DB401D";
paths = (
{
closed = 1;
nodes = (
"130 0 OFFCURVE",
"142 12 OFFCURVE",
"142 36 CURVE SMOOTH",
"142 315 LINE SMOOTH",
"142 498 OFFCURVE",
"187 561 OFFCURVE",
"308 561 CURVE SMOOTH",
"328 561 LINE SMOOTH",
"449 561 OFFCURVE",
"494 498 OFFCURVE",
"494 315 CURVE SMOOTH",
"494 36 LINE SMOOTH",
"494 12 OFFCURVE",
"506 0 OFFCURVE",
"530 0 CURVE SMOOTH",
"554 0 OFFCURVE",
"566 12 OFFCURVE",
"566 36 CURVE SMOOTH",
"566 315 LINE SMOOTH",
"566 534 OFFCURVE",
"495 633 OFFCURVE",
"328 633 CURVE SMOOTH",
"308 633 LINE SMOOTH",
"141 633 OFFCURVE",
"70 534 OFFCURVE",
"70 315 CURVE SMOOTH",
"70 36 LINE SMOOTH",
"70 12 OFFCURVE",
"82 0 OFFCURVE",
"106 0 CURVE SMOOTH"
);
},
{
closed = 1;
nodes = (
"349 129 CURVE SMOOTH",
"349 669 LINE SMOOTH",
"349 689 OFFCURVE",
"338 700 OFFCURVE",
"318 700 CURVE SMOOTH",
"298 700 OFFCURVE",
"287 689 OFFCURVE",
"287 669 CURVE SMOOTH",
"287 129 LINE SMOOTH",
"287 109 OFFCURVE",
"298 98 OFFCURVE",
"318 98 CURVE SMOOTH",
"338 98 OFFCURVE",
"349 109 OFFCURVE"
);
}
);
width = 636;
}
);
leftKerningGroup = U;
leftMetricsKey = "=U-20";
rightKerningGroup = U;
rightMetricsKey = "=U-20";
unicode = 20BC;
},
{
color = 4;
glyphname = naira;
layers = (
{
components = (
{
name = strokelongcomb;
transform = "{1, 0, 0, 1, -10, 64}";
}
);
layerId = "67BB2AE4-562A-42A4-A220-84C7D1DB401D";
paths = (
{
closed = 1;
nodes = (
"189 36 CURVE SMOOTH",
"189 560 LINE",
"165 560 LINE",
"562 21 LINE",
"573 6 OFFCURVE",
"584 0 OFFCURVE",
"598 0 CURVE SMOOTH",
"621 0 OFFCURVE",
"634 13 OFFCURVE",
"634 36 CURVE SMOOTH",
"634 629 LINE SMOOTH",
"634 652 OFFCURVE",
"621 665 OFFCURVE",
"598 665 CURVE SMOOTH",
"575 665 OFFCURVE",
"562 652 OFFCURVE",
"562 629 CURVE SMOOTH",
"562 116 LINE",
"580 116 LINE",
"189 644 LINE SMOOTH",
"178 659 OFFCURVE",
"167 665 OFFCURVE",
"153 665 CURVE SMOOTH",
"130 665 OFFCURVE",
"117 652 OFFCURVE",
"117 629 CURVE SMOOTH",
"117 36 LINE SMOOTH",
"117 13 OFFCURVE",
"130 0 OFFCURVE",
"153 0 CURVE SMOOTH",
"176 0 OFFCURVE",
"189 13 OFFCURVE"
);
}
);
width = 756;
}
);
leftKerningGroup = Hbar;
leftMetricsKey = Hbar;
rightKerningGroup = Hbar;
rightMetricsKey = Hbar;
unicode = 20A6;
},
{
color = 4;
glyphname = peseta;
layers = (
{
layerId = "67BB2AE4-562A-42A4-A220-84C7D1DB401D";
paths = (
{
closed = 1;
nodes = (
"162 22 CURVE SMOOTH",
"162 268 LINE",
"227 268 LINE SMOOTH",
"343 268 OFFCURVE",
"405 330 OFFCURVE",
"405 446 CURVE SMOOTH",
"405 476 LINE SMOOTH",
"405 592 OFFCURVE",
"343 654 OFFCURVE",
"227 654 CURVE SMOOTH",
"131 654 LINE SMOOTH",
"111 654 OFFCURVE",
"100 643 OFFCURVE",
"100 623 CURVE SMOOTH",
"100 22 LINE SMOOTH",
"100 5 OFFCURVE",
"114 -9 OFFCURVE",
"131 -9 CURVE SMOOTH",
"148 -9 OFFCURVE",
"162 5 OFFCURVE"
);
},
{
closed = 1;
nodes = (
"583 20 CURVE SMOOTH",
"583 37 OFFCURVE",
"569 51 OFFCURVE",
"552 51 CURVE SMOOTH",
"500 51 OFFCURVE",
"486 64 OFFCURVE",
"486 117 CURVE SMOOTH",
"486 261 LINE",
"552 261 LINE SMOOTH",
"569 261 OFFCURVE",
"583 275 OFFCURVE",
"583 292 CURVE SMOOTH",
"583 309 OFFCURVE",
"569 323 OFFCURVE",
"552 323 CURVE SMOOTH",
"486 323 LINE",
"486 385 LINE SMOOTH",
"486 402 OFFCURVE",
"472 416 OFFCURVE",
"455 416 CURVE SMOOTH",
"438 416 OFFCURVE",
"424 402 OFFCURVE",
"424 385 CURVE SMOOTH",
"424 323 LINE",
"412 323 LINE SMOOTH",
"395 323 OFFCURVE",
"381 309 OFFCURVE",
"381 292 CURVE SMOOTH",
"381 275 OFFCURVE",
"395 261 OFFCURVE",
"412 261 CURVE SMOOTH",
"424 261 LINE",
"424 117 LINE SMOOTH",
"424 30 OFFCURVE",
"465 -11 OFFCURVE",
"552 -11 CURVE SMOOTH",
"569 -11 OFFCURVE",
"583 3 OFFCURVE"
);
},
{
closed = 1;
nodes = (
"162 592 LINE",
"227 592 LINE SMOOTH",
"309 592 OFFCURVE",
"343 558 OFFCURVE",
"343 476 CURVE SMOOTH",
"343 446 LINE SMOOTH",
"343 364 OFFCURVE",
"309 330 OFFCURVE",
"227 330 CURVE SMOOTH",
"162 330 LINE"
);
},
{
closed = 1;
nodes = (
"755 -10 LINE SMOOTH",
"822 -10 OFFCURVE",
"856 24 OFFCURVE",
"856 91 CURVE SMOOTH",
"856 158 OFFCURVE",
"822 192 OFFCURVE",
"755 192 CURVE SMOOTH",
"695 192 LINE SMOOTH",
"667 192 OFFCURVE",
"661 198 OFFCURVE",
"661 226 CURVE SMOOTH",
"661 255 OFFCURVE",
"666 260 OFFCURVE",
"695 260 CURVE SMOOTH",
"753 260 LINE SMOOTH",
"782 260 OFFCURVE",
"787 256 OFFCURVE",
"787 226 CURVE SMOOTH",
"787 209 OFFCURVE",
"801 195 OFFCURVE",
"818 195 CURVE SMOOTH",
"835 195 OFFCURVE",
"849 209 OFFCURVE",
"849 226 CURVE SMOOTH",
"849 290 OFFCURVE",
"817 322 OFFCURVE",
"753 322 CURVE SMOOTH",
"695 322 LINE SMOOTH",
"631 322 OFFCURVE",
"599 290 OFFCURVE",
"599 226 CURVE SMOOTH",
"599 163 OFFCURVE",
"632 130 OFFCURVE",
"695 130 CURVE SMOOTH",
"755 130 LINE SMOOTH",
"787 130 OFFCURVE",
"794 123 OFFCURVE",
"794 91 CURVE SMOOTH",
"794 59 OFFCURVE",
"787 52 OFFCURVE",
"755 52 CURVE SMOOTH",
"689 52 LINE SMOOTH",
"658 52 OFFCURVE",
"651 59 OFFCURVE",
"651 91 CURVE SMOOTH",
"651 108 OFFCURVE",
"637 122 OFFCURVE",
"620 122 CURVE SMOOTH",
"603 122 OFFCURVE",
"589 108 OFFCURVE",
"589 91 CURVE SMOOTH",
"589 24 OFFCURVE",
"623 -10 OFFCURVE",
"689 -10 CURVE SMOOTH"
);
}
);
width = 896;
}
);
leftKerningGroup = P;
leftMetricsKey = P;
rightKerningGroup = s;
rightMetricsKey = "=s-30";
unicode = 20A7;
},
